<svg id="svg" version="1.1" xmlns="http://www.w3.org/2000/svg" style="display: block;" viewBox="0 0 1200 1200"><path d="M0 0 C396 0 792 0 1200 0 C1200 396 1200 792 1200 1200 C804 1200 408 1200 0 1200 C0 804 0 408 0 0 Z " transform="translate(0,0)" style="fill: #D9660B;"/><path d="M0 0 C72.27 0 144.54 0 219 0 C225.32435252 12.64870505 231.59241589 25.27889836 237.6640625 38.04296875 C241.99018803 47.09780878 246.4071602 56.10851589 250.8125 65.125 C257.18847528 78.17702935 263.54370791 91.23817647 269.84960938 104.32421875 C274.32027771 113.59942096 278.81228021 122.86410572 283.3125 132.125 C283.66838196 132.85738892 284.02426392 133.58977783 284.39093018 134.34436035 C286.20114768 138.06952798 288.01163011 141.79456678 289.82226562 145.51953125 C293.40358712 152.88741675 296.98314849 160.25615732 300.5625 167.625 C300.91413208 168.34888916 301.26576416 169.07277832 301.62805176 169.81860352 C308.76481621 184.51121986 315.89161416 199.2086597 323.01611328 213.90722656 C325.00916113 218.01901548 327.00257335 222.13062767 328.99609375 226.2421875 C329.32629517 226.92321533 329.65649658 227.60424316 329.9967041 228.3059082 C330.99779675 230.37060837 331.99889688 232.43530491 333 234.5 C340.33897206 249.63604272 340.33897206 249.63604272 343.97433472 257.13616943 C351.14357562 271.92702223 358.31732033 286.71566805 365.5 301.5 C371.02527673 312.87284816 376.54689071 324.24745994 382.0625 335.625 C382.39105988 336.30274475 382.71961975 336.9804895 383.05813599 337.67877197 C385.70218935 343.13298875 388.34591445 348.58736463 390.98962402 354.04174805 C393.3054274 358.81957398 395.62136412 363.59733525 397.9375 368.375 C398.26597931 369.05258362 398.59445862 369.73016724 398.93289185 370.42828369 C404.11691471 381.12129281 409.30710248 391.81129827 414.5 402.5 C420.02527673 413.87284816 425.54689071 425.24745994 431.0625 436.625 C431.39105988 437.30274475 431.71961975 437.9804895 432.05813599 438.67877197 C434.70218935 444.13298875 437.34591445 449.58736463 439.98962402 455.04174805 C442.3054274 459.81957398 444.62136412 464.59733525 446.9375 469.375 C447.26597931 470.05258362 447.59445862 470.73016724 447.93289185 471.42828369 C453.11691471 482.12129281 458.30710248 492.81129827 463.5 503.5 C472.98580574 523.02492763 472.98580574 523.02492763 477.07113647 531.4564209 C478.72103047 534.8613233 480.3737329 538.26479239 482.03320312 541.66503906 C485.14531261 548.05028741 488.22224903 554.44714083 491.19981384 560.89645386 C492.61273513 563.95183086 494.04248542 566.99919289 495.47360229 570.04608154 C496.14915001 571.49664215 496.81648814 572.95105912 497.47488403 574.40948486 C498.38961695 576.43439865 499.33215653 578.44413642 500.28125 580.453125 C500.80783203 581.59942383 501.33441406 582.74572266 501.87695312 583.92675781 C504.36576636 587.96371262 504.36576636 587.96371262 512 592 C533.45 592.33 554.9 592.66 577 593 C577 639.86 577 686.72 577 735 C519.91 735 462.82 735 404 735 C400.37 727.41 396.74 719.82 393 712 C390.14689803 706.13191793 387.29244045 700.2649081 384.42477417 694.4039917 C382.25473253 689.96842081 380.08815411 685.53115942 377.921875 681.09375 C377.28069984 679.78040176 377.28069984 679.78040176 376.62657166 678.44052124 C373.04261401 671.0953656 369.48386668 663.73837575 365.9375 656.375 C360.49117414 645.06720478 355.00176986 633.78089663 349.5 622.5 C343.97788405 611.17722094 338.46780111 599.84911981 333 588.5 C327.57226284 577.23500588 322.10522167 565.98954448 316.625 554.75 C310.67540694 542.54750653 304.73278135 530.34174513 298.8125 518.125 C298.48766632 517.45470764 298.16283264 516.78441528 297.82815552 516.09381104 C296.20094122 512.73583934 294.57401845 509.37772652 292.94726562 506.01953125 C289.65373571 499.2206795 286.35817393 492.42281265 283.0625 485.625 C282.73383942 484.94705383 282.40517883 484.26910767 282.06655884 483.57061768 C276.52584835 472.14185289 270.97784431 460.7166403 265.42752075 449.2925415 C259.94950459 438.01707132 254.47787707 426.73852092 249.01025391 415.45800781 C243.8455258 404.80273336 238.67452327 394.15052082 233.5 383.5 C227.99492712 372.16912172 222.49455545 360.83598212 217 349.5 C211.52566236 338.20598532 206.04655151 326.91430123 200.5625 315.625 C200.03440231 314.53786713 200.03440231 314.53786713 199.49563599 313.42877197 C196.99725964 308.28576588 194.49865597 303.14287024 192 298 C189.1456768 292.12507604 186.29145494 286.25010287 183.4375 280.375 C183.08535431 279.65008362 182.73320862 278.92516724 182.37039185 278.17828369 C176.91163892 266.94056685 171.45915719 255.69982092 166.00997925 244.4574585 C162.26980095 236.74114451 158.52788535 229.0256812 154.78125 221.3125 C154.42864105 220.58656647 154.0760321 219.86063293 153.71273804 219.11270142 C151.93491957 215.45292809 150.15655482 211.79342134 148.37744141 208.13427734 C145.1463961 201.48753165 141.9194344 194.83892147 138.71026611 188.18157959 C137.27583746 185.20595511 135.83944241 182.23128136 134.40307617 179.2565918 C133.7319152 177.86502056 133.06178353 176.47295229 132.39282227 175.08032227 C129.11424809 168.25534673 125.78112205 161.46082839 122.2890625 154.7421875 C121.7523291 153.70690918 121.2155957 152.67163086 120.66259766 151.60498047 C118.28828569 147.88487641 116.15446274 146.38482091 112 145 C110.46480928 144.89950496 108.92571251 144.85384097 107.38728333 144.84178162 C106.44273946 144.83200759 105.49819559 144.82223356 104.52502918 144.81216335 C103.48656692 144.8063931 102.44810465 144.80062284 101.37817383 144.79467773 C100.26764743 144.78464501 99.15712103 144.77461229 98.01294231 144.76427555 C94.41099332 144.73284285 90.80903334 144.70809964 87.20703125 144.68359375 C84.98612098 144.66519472 82.76521429 144.64635828 80.54431152 144.6270752 C72.30041674 144.5585758 64.05645327 144.49855618 55.8125 144.4375 C37.394375 144.293125 18.97625 144.14875 0 144 C0 96.48 0 48.96 0 0 Z " transform="translate(377,233)" style="fill: #D9660B;"/><path d="M0 0 C1.32237148 -0.00668677 1.32237148 -0.00668677 2.67145753 -0.01350862 C3.64594905 -0.01332426 4.62044056 -0.01313989 5.62446213 -0.01294994 C6.65507633 -0.01662663 7.68569053 -0.02030332 8.74753547 -0.02409142 C12.22366684 -0.03516231 15.69976837 -0.03897785 19.17591476 -0.04278088 C21.65905478 -0.04904293 24.14219385 -0.05568949 26.62533188 -0.0626936 C34.09363033 -0.08194633 41.56192085 -0.09252554 49.03023684 -0.10142139 C52.54603897 -0.105803 56.0618396 -0.11117016 59.57764053 -0.11641026 C71.26314735 -0.13342376 82.94865323 -0.14791817 94.63417053 -0.155159 C97.66745378 -0.15706894 100.70073702 -0.15898926 103.73402023 -0.16094494 C104.86490124 -0.16167055 104.86490124 -0.16167055 106.01862833 -0.16241082 C118.23299641 -0.17071198 130.44726659 -0.19604977 142.66159192 -0.22852562 C155.19804376 -0.26158653 167.73444583 -0.27960689 180.2709415 -0.28280324 C187.31123978 -0.28496929 194.35139532 -0.29373162 201.39165115 -0.31926441 C208.01376922 -0.34322504 214.63567632 -0.34680316 221.25784492 -0.33650303 C223.69029659 -0.33600606 226.12276066 -0.34237356 228.55517387 -0.35605907 C231.87260769 -0.37368167 235.18910868 -0.36671858 238.50654221 -0.35352612 C239.47211084 -0.36449536 240.43767947 -0.37546461 241.43250775 -0.38676625 C247.07845081 -0.33245394 250.3487866 0.34377554 254.81946945 4.13422108 C258.54865454 8.07374393 260.70850281 12.58681036 263.02259445 17.43109608 C263.41728928 18.24419239 263.8119841 19.0572887 264.21863937 19.8950243 C265.50823499 22.5552402 266.78885608 25.21967117 268.06946945 27.88422108 C268.96959057 29.74518609 269.8703134 31.60586016 270.77161789 33.46625233 C272.59560409 37.23352579 274.41613861 41.00243465 276.23353195 44.77289295 C278.52548431 49.52721405 280.82603174 54.27729479 283.13196945 59.02484608 C285.74411143 64.40371809 288.35401132 69.78366061 290.96009445 75.16547108 C294.57615308 82.63269523 298.19538769 90.09837625 301.81544113 97.56366444 C303.48358184 101.00378634 305.15151545 104.44400865 306.81946945 107.88422108 C307.48613512 109.25922156 308.15280179 110.63422156 308.81946945 112.00922108 C310.15280279 114.75922108 311.48613612 117.50922108 312.81946945 120.25922108 C313.14947449 120.93985615 313.47947952 121.62049122 313.81948471 122.32175159 C314.48610151 123.69664939 315.15271732 125.07154766 315.81933212 126.44644642 C317.48675352 129.88551419 319.15419231 133.32457353 320.82166672 136.76361561 C323.81267758 142.93239598 326.80357136 149.10123295 329.79380417 155.27039051 C336.96304507 170.06124331 344.13678978 184.84988913 351.31946945 199.63422108 C356.84474618 211.00706924 362.36636016 222.38168101 367.88196945 233.75922108 C368.21052933 234.43696583 368.5390892 235.11471058 368.87760544 235.81299305 C371.5216588 241.26720983 374.1653839 246.7215857 376.80909348 252.17596912 C379.12489685 256.95379506 381.44083357 261.73155632 383.75696945 266.50922108 C384.08544876 267.1868047 384.41392807 267.86438831 384.7523613 268.56250477 C389.93638417 279.25551389 395.12657194 289.94551935 400.31946945 300.63422108 C405.84474618 312.00706924 411.36636016 323.38168101 416.88196945 334.75922108 C417.21052933 335.43696583 417.5390892 336.11471058 417.87760544 336.81299305 C420.5216588 342.26720983 423.1653839 347.7215857 425.80909348 353.17596912 C428.12489685 357.95379506 430.44083357 362.73155632 432.75696945 367.50922108 C433.08544876 368.1868047 433.41392807 368.86438831 433.7523613 369.56250477 C438.93638417 380.25551389 444.12657194 390.94551935 449.31946945 401.63422108 C456.83291801 417.09938486 464.33620335 432.56945734 471.83558273 448.04144764 C473.82863058 452.15323656 475.8220428 456.26484875 477.8155632 460.37640858 C478.14576462 461.05743641 478.47596603 461.73846424 478.81617355 462.44012928 C479.8172662 464.50482945 480.81836633 466.56952599 481.81946945 468.63422108 C489.15844152 483.7702638 489.15844152 483.7702638 492.79380417 491.27039051 C500.31481952 506.78698879 507.84121168 522.30095393 515.3768425 537.81046009 C519.38059776 546.05087381 523.38213643 554.2923516 527.3780632 562.53656483 C527.74819534 563.3001833 528.11832748 564.06380177 528.49967575 564.85056019 C530.27334199 568.51002352 532.04664049 572.16966455 533.81946945 575.82953358 C534.4535798 577.13812938 535.08769416 578.44672324 535.7218132 579.75531483 C536.27345139 580.89412098 536.82508957 582.03292713 537.39344406 583.20624256 C538.2353557 584.93489283 539.09972805 586.65340744 540.01307297 588.34540272 C540.81946945 590.13422108 540.81946945 590.13422108 540.81946945 593.13422108 C541.70594666 593.12533863 542.59242386 593.11645618 543.50576401 593.10730457 C551.87701602 593.02701765 560.24813794 592.96618511 568.61968708 592.92697239 C572.92318389 592.90613462 577.22636144 592.8778873 581.52967453 592.83246326 C585.68588951 592.78886858 589.84179821 592.76505532 593.99822426 592.7547121 C595.58061606 592.74734507 597.16299188 592.73295889 598.74525261 592.71130085 C600.96900353 592.68208417 603.19150347 592.67827245 605.41541672 592.68011951 C606.6789447 592.67123707 607.94247269 592.66235462 609.2442894 592.65320301 C613.44398628 593.2182459 616.68464275 594.22380678 619.81946945 597.13422108 C623.22335642 602.09611455 624.40638611 605.79345811 624.32740402 611.84505177 C624.33364398 612.59000587 624.33988395 613.33495998 624.346313 614.10248846 C624.36218377 616.5822257 624.34966275 619.06097184 624.33704758 621.54071522 C624.3424713 623.32509907 624.34959537 625.10947845 624.35828781 626.89384937 C624.37649298 631.72850638 624.36946557 636.56282122 624.35677147 641.39748406 C624.34663085 646.46089763 624.35603996 651.52428229 624.36231613 656.58769703 C624.36958877 665.08901692 624.36001418 673.59019771 624.34095383 682.09149647 C624.31917885 691.91697646 624.32624257 701.74212452 624.34825945 711.5675965 C624.366416 720.00855475 624.36897072 728.44941314 624.35850477 736.89038461 C624.35227216 741.92969163 624.35142801 746.96884265 624.36465073 752.00813961 C624.37621253 756.74510636 624.36817742 761.48164536 624.3450737 766.21856594 C624.33978868 767.95599374 624.34129686 769.6934576 624.35012436 771.43087101 C624.36107187 773.8045232 624.34732745 776.17680869 624.32740402 778.55037403 C624.33632691 779.23627473 624.3452498 779.92217544 624.35444307 780.62886101 C624.24893807 787.1184459 621.44728686 790.43332278 617.10557175 794.96995926 C612.9145328 797.73022196 610.14312778 797.83605102 605.24183273 797.76241016 C603.96642467 797.77305174 603.96642467 797.77305174 602.66525078 797.78390831 C599.82296469 797.80147673 596.98204818 797.78338961 594.13978195 797.76532459 C592.09939069 797.77046385 590.05900387 797.77774517 588.01862717 797.78700733 C582.48139903 797.80552857 576.94465214 797.79257793 571.407444 797.77291703 C565.61265118 797.75653536 559.81788895 797.76534276 554.02308273 797.77043629 C544.29172196 797.77495777 534.56055336 797.7590839 524.82923508 797.73114491 C513.57857652 797.69909288 502.32826458 797.69910864 491.07758141 797.71635967 C480.25466312 797.73222352 469.43187192 797.72549207 458.6089592 797.70842266 C454.00300845 797.70155015 449.3971595 797.70258672 444.79121017 797.70996761 C439.36727137 797.71762878 433.94372704 797.70550947 428.5198555 797.67811871 C426.52926174 797.67123208 424.53863116 797.67113986 422.54803848 797.67833424 C419.83062084 797.68702378 417.11442193 797.67108143 414.39710617 797.64888477 C413.60935869 797.65712554 412.82161121 797.66536631 412.0099926 797.67385679 C406.84202418 797.59594373 403.95269344 796.49153005 399.81946945 793.13422108 C398.34206772 791.39775562 398.34206772 791.39775562 397.30408859 789.60272694 C396.69683441 788.55385807 396.69683441 788.55385807 396.07731247 787.48379993 C393.63356503 782.9190194 391.32878319 778.29473127 389.0655632 773.63812733 C388.52400085 772.53234837 387.98243851 771.4265694 387.42446518 770.28728199 C385.69788732 766.75907249 383.97744171 763.22791115 382.25696945 759.69672108 C381.12909308 757.39119717 380.00084084 755.08585709 378.87220383 752.78070545 C372.89656049 740.5633176 366.97617791 728.32034836 361.10103989 716.05434132 C356.83165738 707.14498454 352.51002395 698.26186574 348.16880417 689.38733387 C341.44677604 675.64436442 334.75555358 661.88734721 328.11683273 648.10394764 C323.21408173 637.93284579 318.26892976 627.78265541 313.31946945 617.63422108 C307.79735351 606.31144202 302.28727056 594.98334089 296.81946945 583.63422108 C291.3917323 572.36922696 285.92469113 561.12376556 280.44446945 549.88422108 C274.4948764 537.6817276 268.5522508 525.47596621 262.63196945 513.25922108 C262.14471893 512.25378254 262.14471893 512.25378254 261.64762497 511.22803211 C260.02041068 507.87006042 258.39348791 504.5119476 256.76673508 501.15375233 C253.47320516 494.35490058 250.17764339 487.55703373 246.88196945 480.75922108 C246.55330887 480.08127491 246.22464828 479.40332874 245.88602829 478.70483875 C240.34531781 467.27607397 234.79731376 455.85086138 229.2469902 444.42676258 C224.09951681 433.83165278 218.95721237 423.23405257 213.81946945 412.63422108 C208.34513181 401.3402064 202.86602097 390.04852231 197.38196945 378.75922108 C196.85387177 377.6720882 196.85387177 377.6720882 196.31510544 376.56299305 C193.81672909 371.41998696 191.31812543 366.27709132 188.81946945 361.13422108 C185.96514625 355.25929711 183.11092439 349.38432395 180.25696945 343.50922108 C179.90482376 342.7843047 179.55267807 342.05938831 179.1898613 341.31250477 C173.73110837 330.07478793 168.27862664 318.834042 162.8294487 307.59167957 C158.02091791 297.67126122 153.20733335 287.75331106 148.38975143 277.83728504 C146.26409105 273.46183459 144.13898719 269.0861138 142.01382065 264.71042347 C140.224118 261.02559771 138.43402257 257.3409636 136.64319992 253.65668201 C122.78038434 225.13480867 122.78038434 225.13480867 117.81946945 214.69672108 C117.49905685 214.02882557 117.17864426 213.36093006 116.84852219 212.6727953 C114.81946945 208.3698143 114.81946945 208.3698143 114.81946945 206.13422108 C113.91693766 206.13975183 113.91693766 206.13975183 112.9961729 206.14539433 C98.33960675 206.23382375 83.68305639 206.29996876 69.02628613 206.34146976 C61.93828804 206.36207408 54.85046829 206.39015355 47.76258469 206.43597889 C40.92206826 206.48018375 34.08173723 206.50336081 27.24108696 206.51373005 C24.63159456 206.52111943 22.02211227 206.53554906 19.41269875 206.5571413 C15.75696931 206.58618782 12.10200475 206.59017637 8.44617844 206.58832264 C7.36795822 206.60270374 6.28973801 206.61708485 5.17884445 206.63190174 C-1.16684389 206.59709574 -5.03480977 205.94366847 -10.18053055 202.13422108 C-14.3825794 196.71578966 -15.3294857 192.63367032 -15.32770157 185.94910145 C-15.33137826 185.21235416 -15.33505494 184.47560687 -15.33884305 183.7165339 C-15.34988088 181.24084709 -15.35372389 178.76520225 -15.3575325 176.28949451 C-15.36379706 174.51717972 -15.37044386 172.74486624 -15.37744522 170.97255421 C-15.39485513 166.15217221 -15.40540692 161.33180014 -15.41365075 156.5113945 C-15.41880085 153.49999984 -15.42487657 150.48860826 -15.43116188 147.47721577 C-15.45021379 138.05591388 -15.46444503 128.63461983 -15.47277385 119.21330237 C-15.48254781 108.33675314 -15.50887152 97.46040733 -15.54927474 86.58392978 C-15.57942982 78.17788289 -15.59424214 69.77189435 -15.59755486 61.36579442 C-15.59990598 56.34480374 -15.6088746 51.3240304 -15.63401604 46.30309772 C-15.65729117 41.57854446 -15.66153223 36.8543517 -15.65125465 32.12975597 C-15.65075905 30.39756986 -15.65708669 28.66536603 -15.6708107 26.93323421 C-15.68852824 24.56415039 -15.68142516 22.1963606 -15.66827774 19.82727528 C-15.67924699 19.14544988 -15.69021623 18.46362449 -15.70151788 17.76113772 C-15.63029289 12.42744011 -14.08843821 9.45145244 -11.18053055 5.13422108 C-7.42268549 1.73426603 -5.03968768 0.01178985 0 0 Z M15.81946945 31.13422108 C15.81946945 78.65422108 15.81946945 126.17422108 15.81946945 175.13422108 C52.40850095 175.34429235 52.40850095 175.34429235 88.99769211 175.52216053 C96.0799675 175.57208729 96.0799675 175.57208729 99.39719772 175.59923267 C101.71023588 175.61536523 104.02331925 175.6256651 106.33640671 175.63133717 C109.84353879 175.64107584 113.35008121 175.66941448 116.85706711 175.70184803 C117.88473505 175.70042207 118.91240299 175.69899611 119.97121239 175.69752693 C125.33709308 175.76839328 129.1863365 176.10909931 133.81946945 179.13422108 C135.24866867 180.68280506 135.24866867 180.68280506 136.24915695 182.44281483 C136.65360031 183.15034901 137.05804367 183.85788319 137.47474289 184.5868578 C140.37738577 190.08543728 143.1877428 195.6241206 145.94446945 201.19672108 C146.61849546 202.55233468 147.29265093 203.90788391 147.96693039 205.26337147 C152.16871027 213.72568814 156.29299845 222.22268596 160.34461594 230.75800037 C164.83445044 240.20649069 169.42008829 249.60759048 174.00696945 259.00922108 C175.6633324 262.40499933 177.31957112 265.80083815 178.97571945 269.19672108 C179.38531403 270.03654026 179.7949086 270.87635944 180.21691513 271.74162769 C184.15841815 279.82526339 188.08530857 287.91594409 192.00696945 296.00922108 C192.33153122 296.67896961 192.65609299 297.34871815 192.99048996 298.03876209 C194.61797584 301.39728459 196.24518521 304.75594094 197.87220383 308.11468983 C201.16573373 314.91354157 204.46127321 321.71141925 207.75696945 328.50922108 C208.08596237 329.18783192 208.41495529 329.86644276 208.75391769 330.56561756 C216.76669609 347.09289166 224.79295671 363.61361401 232.81946945 380.13422108 C235.67379265 386.00914504 238.52801451 391.88411821 241.38196945 397.75922108 C241.73411514 398.48413746 242.08626083 399.20905384 242.44907761 399.95593739 C247.90783053 411.19365422 253.36031227 422.43440016 258.8094902 433.67676258 C263.97412509 444.33185474 269.14503563 454.98388437 274.31946945 465.63422108 C280.15509188 477.64545668 285.98478222 489.65954816 291.80921555 501.67621326 C296.97394365 512.33148771 302.14494618 522.98370026 307.31946945 533.63422108 C312.82454234 544.96509936 318.32491401 556.29823896 323.81946945 567.63422108 C329.29380709 578.92823576 334.77291794 590.21991985 340.25696945 601.50922108 C340.60903458 602.23397633 340.9610997 602.95873158 341.32383347 603.7054491 C343.82220982 608.84845519 346.32081348 613.99135083 348.81946945 619.13422108 C351.67379265 625.00914504 354.52801451 630.88411821 357.38196945 636.75922108 C357.91018799 637.84659565 357.91018799 637.84659565 358.44907761 638.95593739 C363.90783053 650.19365422 369.36031227 661.43440016 374.8094902 672.67676258 C379.61828887 682.59773358 384.43215172 692.51623122 389.25001144 702.43280506 C390.31271105 704.6203093 391.37520999 706.80791087 392.43763351 708.9955492 C393.14303622 710.44802362 393.84843986 711.90049758 394.55384445 713.35297108 C394.90287827 714.0716637 395.25191208 714.79035633 395.61152267 715.53082752 C397.79320039 720.02264238 399.97650677 724.513662 402.16077805 729.00421619 C403.61678175 731.99823171 405.07163678 734.99280447 406.52625656 737.98749256 C407.2095116 739.39349808 407.89324994 740.79926887 408.57752609 742.20477772 C409.52926489 744.15979694 410.4792312 746.11566872 411.42884445 748.07172108 C411.96477219 749.17386951 412.50069992 750.27601795 413.05286789 751.41156483 C415.3684559 756.29106814 417.58449296 761.21727279 419.81946945 766.13422108 C476.90946945 766.13422108 533.99946945 766.13422108 592.81946945 766.13422108 C592.81946945 719.27422108 592.81946945 672.41422108 592.81946945 624.13422108 C571.36946945 623.80422108 549.91946945 623.47422108 527.81946945 623.13422108 C518.82003405 617.50957395 518.82003405 617.50957395 516.7999382 613.20453358 C516.34159592 612.2576366 515.88325363 611.31073963 515.41102219 610.33514881 C514.94768478 609.32009266 514.48434738 608.30503651 514.00696945 607.25922108 C513.49400314 606.18551258 512.98103683 605.11180408 512.45252609 604.00555897 C510.88862726 600.72394703 509.35361918 597.42982065 507.81946945 594.13422108 C506.56062721 591.49093462 505.29282408 588.85209199 504.02454758 586.21332264 C502.69441132 583.44135148 501.37427838 580.6647321 500.05384445 577.88812733 C495.9247634 569.2360199 491.71114778 560.62500211 487.50696945 552.00922108 C481.92187395 540.56165935 476.34723033 529.10959352 470.81946945 517.63422108 C465.35178782 506.28504362 459.84151214 494.95703528 454.31946945 483.63422108 C448.19320335 471.07209521 442.08846796 458.50021448 436.01990891 445.91009998 C431.53189178 436.60186032 427.02339319 427.30370508 422.50696945 418.00922108 C422.15117813 417.27701344 421.79538681 416.54480579 421.42881393 415.79041004 C419.6185058 412.06505886 417.80792826 408.33983869 415.99720383 404.61468983 C412.41588233 397.24680433 408.83632096 389.87806376 405.25696945 382.50922108 C404.90533737 381.78533192 404.55370529 381.06144276 404.19141769 380.31561756 C396.0617942 363.57898014 387.94532668 346.83597117 379.82984543 330.09247303 C377.51404205 325.3146471 375.19810533 320.53688583 372.88196945 315.75922108 C372.55349014 315.08163746 372.22501083 314.40405384 371.88657761 313.70593739 C366.70255474 303.01292826 361.51236697 292.32292281 356.31946945 281.63422108 C348.80602089 266.1690573 341.30273556 250.69898481 333.80335617 235.22699451 C331.81030833 231.1152056 329.8168961 227.0035934 327.8233757 222.89203358 C327.49317429 222.21100574 327.16297287 221.52997791 326.82276535 220.82831287 C325.8216727 218.76361271 324.82057257 216.69891617 323.81946945 214.63422108 C316.48049739 199.49817836 316.48049739 199.49817836 312.84513474 191.99805164 C305.67589383 177.20719885 298.50214913 162.41855303 291.31946945 147.63422108 C283.80602089 132.1690573 276.30273556 116.69898481 268.80335617 101.22699451 C266.22654898 95.91087163 263.64911448 90.59505294 261.07166672 85.27924061 C252.3207428 67.23099362 243.5701839 49.18256962 234.81946945 31.13422108 C162.54946945 31.13422108 90.27946945 31.13422108 15.81946945 31.13422108 Z " transform="translate(361.1805305480957,201.86577892303467)" style="fill: #FEFDFD;"/><path d="M0 0 C6.95900339 4.74375215 9.90392917 11.66900651 13.36791992 19.06005859 C14.02658611 20.42560054 14.68709428 21.79025541 15.34936523 23.15405273 C16.9828888 26.52945728 18.59346472 29.9151606 20.19537354 33.30566406 C21.3868199 35.82265899 22.5937374 38.33211589 23.80151367 40.84130859 C25.52177639 44.4215762 27.23050135 48.00709873 28.93432617 51.59521484 C32.98112495 60.08982202 37.11715698 68.54111745 41.24291992 76.99755859 C42.90058578 80.39594061 44.5581318 83.79438105 46.21557617 87.19287109 C46.6253772 88.03310318 47.03517822 88.87333527 47.45739746 89.73902893 C51.37699714 97.77776535 55.2811084 105.8239656 59.18041992 113.87255859 C60.48507782 116.56528127 61.78976181 119.2579913 63.09448242 121.95068359 C63.57879478 122.95024582 63.57879478 122.95024582 64.07289124 123.97000122 C67.53792167 131.12025857 71.00994972 138.26711351 74.4822998 145.41381836 C77.32041638 151.25534734 80.15770163 157.09728019 82.99499512 162.93920898 C83.70321691 164.39739421 84.41146897 165.85556473 85.11975098 167.3137207 C86.17913607 169.4947433 87.23837306 171.67583779 88.29760742 173.85693359 C88.64317688 174.56824432 88.98874634 175.27955505 89.3447876 176.01242065 C91.04206272 179.50734738 92.73599046 183.00382226 94.42260742 186.50390625 C97.39518357 192.66871573 100.3914834 198.81402826 103.50073242 204.91162109 C104.02103027 205.94899414 104.54132813 206.98636719 105.07739258 208.05517578 C106.02019787 209.93206533 106.97922835 211.80095196 107.95922852 213.65869141 C111.02923333 219.83221375 112.43585264 225.25939984 111.05541992 232.12255859 C109.33565543 236.34771728 107.22703658 240.30229682 105.03234863 244.29119873 C103.44575208 247.26544774 102.06646829 250.33328233 100.68823242 253.40771484 C100.40781097 254.02772369 100.12738953 254.64773254 99.83847046 255.28652954 C99.25463714 256.57815924 98.67196796 257.87031571 98.09039307 259.16296387 C96.4703367 262.76296839 94.84026721 266.35844318 93.21166992 269.95458984 C92.87205231 270.70509613 92.53243469 271.45560242 92.18252563 272.22885132 C88.38065556 280.62486677 84.532393 288.99944046 80.68041992 297.37255859 C79.96581096 298.92650937 79.25121139 300.48046447 78.53662109 302.03442383 C77.09705809 305.16452474 75.65716559 308.29447383 74.21704102 311.42431641 C70.64031674 319.19780316 67.06623014 326.97250198 63.49291992 334.74755859 C63.14053253 335.51420837 62.78814514 336.28085815 62.42507935 337.07073975 C56.97737554 348.92373875 51.55116359 360.78643441 46.13378906 372.65332031 C40.40912979 385.19062161 34.63654925 397.70544625 28.85186768 410.21514893 C23.84320043 421.04882431 18.87212998 431.89854252 13.94625854 442.77011108 C12.12824737 446.77946619 10.30362054 450.78581478 8.47865295 454.79200745 C7.18648216 457.62999537 5.89930254 460.47003538 4.62133789 463.31445312 C3.40250384 466.02673089 2.16888106 468.73170224 0.93041992 471.43505859 C0.43529907 472.55509277 0.43529907 472.55509277 -0.06982422 473.69775391 C-2.45123469 478.83338155 -5.04957491 481.63959287 -10.06477451 484.2086277 C-13.9131854 485.42995377 -17.59652375 485.40525866 -21.59178162 485.38998413 C-22.461617 485.39451524 -23.33145238 485.39904636 -24.22764641 485.40371478 C-27.14172716 485.41637306 -30.05562136 485.41473749 -32.96972656 485.41308594 C-35.05922689 485.41907022 -37.14872501 485.42587553 -39.23822021 485.43344116 C-44.91377764 485.45111674 -50.58927477 485.45579715 -56.26485705 485.45707273 C-61.00158452 485.45897147 -65.73829793 485.46632856 -70.47501999 485.47341692 C-81.64855573 485.48970376 -92.82205923 485.49458554 -103.99560547 485.49316406 C-115.52625628 485.49196196 -127.05672012 485.51307696 -138.58732361 485.54465139 C-148.48468515 485.57078886 -158.38198553 485.58153245 -168.27938133 485.58025324 C-174.19175257 485.57974295 -180.10395759 485.58546388 -186.01629448 485.60660934 C-191.57559885 485.62594949 -197.1345777 485.62614502 -202.69389343 485.61157608 C-204.73449236 485.60948177 -206.77511144 485.61422577 -208.81567574 485.626297 C-211.6009665 485.64170706 -214.38512886 485.63246944 -217.1703949 485.61703491 C-217.97827924 485.62732204 -218.78616358 485.63760916 -219.61852926 485.64820802 C-224.8509593 485.58411095 -227.77208243 484.54467019 -231.94458008 481.12255859 C-236.06262079 476.55932429 -237.41543946 473.00888238 -237.32885742 466.78125 C-236.54279493 461.3427363 -233.75113723 456.64299966 -231.25708008 451.81005859 C-230.36077814 450.01449987 -229.4645329 448.21891021 -228.57162476 446.42166138 C-227.9550587 445.18192327 -227.33640351 443.94322209 -226.71572876 442.70553589 C-223.48049503 436.2446604 -220.45883509 429.68901565 -217.44458008 423.12255859 C-212.67467185 412.78500497 -207.78176763 402.51353001 -202.81958008 392.26708984 C-198.94837901 384.25482032 -195.17465575 376.20140037 -191.44458008 368.12255859 C-187.19330755 358.91487459 -182.86481961 349.75033333 -178.44458008 340.62255859 C-174.15560857 331.76273236 -169.94599764 322.87174446 -165.81958008 313.93505859 C-160.51975453 302.46134395 -155.12503907 291.03496515 -149.69458008 279.62255859 C-149.29005615 278.77235138 -148.88553223 277.92214417 -148.46875 277.0461731 C-148.06309814 276.19360931 -147.65744629 275.34104553 -147.23950195 274.46264648 C-146.41982852 272.73991455 -145.60016705 271.01717692 -144.78051758 269.29443359 C-144.17182831 268.0151725 -144.17182831 268.0151725 -143.55084229 266.71006775 C-139.45789621 258.10504621 -135.38601833 249.4901322 -131.31958008 240.87255859 C-130.97286255 240.13787354 -130.62614502 239.40318848 -130.2689209 238.64624023 C-128.52478836 234.95032584 -126.78097984 231.25425871 -125.03735352 227.55810547 C-121.863313 220.83019301 -118.68620495 214.10372899 -115.5093689 207.37713623 C-113.73639122 203.62304364 -111.96351422 199.86890352 -110.19067383 196.11474609 C-109.83985245 195.37185333 -109.48903107 194.62896057 -109.12757874 193.86355591 C-107.01219195 189.38388827 -104.89728425 184.90399481 -102.78276062 180.42391968 C-101.02436171 176.69838985 -99.26577101 172.97295058 -97.50708008 169.24755859 C-97.15839874 168.50894592 -96.80971741 167.77033325 -96.45046997 167.00933838 C-90.55947435 154.53159102 -84.65246957 142.06146991 -78.74221802 129.59283447 C-73.12959075 117.75066538 -67.53929643 105.89819153 -61.96481323 94.0380249 C-55.89939223 81.13464755 -49.80280796 68.24617352 -43.6862793 55.36694336 C-39.89083421 47.37080579 -36.11906701 39.36468186 -32.38989258 31.33740234 C-31.29871963 28.99489664 -30.20713331 26.65258393 -29.11547852 24.31030273 C-28.4257902 22.82644252 -27.73855785 21.34143797 -27.05395508 19.85522461 C-26.10943055 17.80477242 -25.1567374 15.75829806 -24.20239258 13.71240234 C-23.66759277 12.55603271 -23.13279297 11.39966309 -22.58178711 10.20825195 C-18.02475926 1.61948443 -9.83643541 -4.43843677 0 0 Z M-6.94458008 51.12255859 C-17.27598059 71.49659377 -27.13117033 92.10533878 -36.70605469 112.84423828 C-41.46631834 123.13677681 -46.32192383 133.38281283 -51.19458008 143.62255859 C-51.59919464 144.47294708 -52.0038092 145.32333557 -52.42068481 146.19949341 C-52.8263266 147.05203705 -53.23196838 147.90458069 -53.64990234 148.78295898 C-54.4694948 150.50552796 -55.28907488 152.22810283 -56.10864258 153.95068359 C-56.51443039 154.80351425 -56.9202182 155.65634491 -57.33830261 156.53501892 C-61.4312556 165.14004976 -65.50313697 173.75497471 -69.56958008 182.37255859 C-69.91629761 183.10724365 -70.26301514 183.84192871 -70.62023926 184.59887695 C-72.3643718 188.29479135 -74.10818032 191.99085848 -75.85180664 195.68701172 C-79.02584716 202.41492418 -82.20295521 209.1413882 -85.37979126 215.86798096 C-87.15276893 219.62207355 -88.92564594 223.37621367 -90.69848633 227.13037109 C-91.04930771 227.87326385 -91.40012909 228.61615662 -91.76158142 229.38156128 C-93.87696821 233.86122891 -95.9918759 238.34112238 -98.10639954 242.82119751 C-99.86479845 246.54672734 -101.62338914 250.27216661 -103.38208008 253.99755859 C-103.73076141 254.73617126 -104.07944275 255.47478394 -104.43869019 256.23577881 C-110.3296858 268.71352617 -116.23669058 281.18364728 -122.14694214 293.65228271 C-127.7595694 305.49445181 -133.34986372 317.34692566 -138.92434692 329.20709229 C-144.24323813 340.52232668 -149.58814833 351.82505085 -154.94458008 363.12255859 C-161.29928057 376.52600681 -167.63549061 389.93792699 -173.94067383 403.36474609 C-177.51665393 410.97744092 -181.10986103 418.5815987 -184.72192383 426.17724609 C-185.90980834 428.67890609 -187.09739378 431.18070783 -188.28488159 433.68255615 C-189.05376627 435.30028741 -189.82403533 436.91736147 -190.59573364 438.53375244 C-191.66333844 440.77008669 -192.72630044 443.00857263 -193.78833008 445.24755859 C-194.10934189 445.91665253 -194.4303537 446.58574646 -194.76109314 447.27511597 C-196.40638366 450.55477599 -196.40638366 450.55477599 -196.94458008 454.12255859 C-140.51458008 454.12255859 -84.08458008 454.12255859 -25.94458008 454.12255859 C-19.70335744 441.71952314 -19.70335744 441.71952314 -13.75317383 429.18896484 C-13.40597794 428.43618759 -13.05878204 427.68341034 -12.70106506 426.90782166 C-11.59211878 424.50142874 -10.48698102 422.09331124 -9.38208008 419.68505859 C-8.59055633 417.96494074 -7.79888691 416.24488991 -7.00708008 414.52490234 C-1.81603873 403.23970391 3.3333729 391.93578479 8.46224976 380.6222229 C13.57243828 369.35102028 18.73875274 358.10645036 23.93041992 346.87255859 C24.30793396 346.05565552 24.685448 345.23875244 25.07440186 344.39709473 C25.83754922 342.74578593 26.6007023 341.09447978 27.36386108 339.44317627 C27.74160675 338.62580994 28.11935242 337.8084436 28.50854492 336.96630859 C28.88653229 336.14845886 29.26451965 335.33060913 29.65396118 334.48797607 C33.67388389 325.78793966 37.67949624 317.08134604 41.68041992 308.37255859 C42.02904083 307.61377411 42.37766174 306.85498962 42.73684692 306.07321167 C46.58385241 297.69866497 50.42404501 289.32103157 54.25463867 280.93896484 C54.59801773 280.18787445 54.94139679 279.43678406 55.29518127 278.66293335 C56.9838929 274.96814891 58.66990532 271.27217545 60.35058594 267.57373047 C63.42434112 260.81779003 66.535209 254.08590629 69.75854492 247.39990234 C70.3340871 246.19527287 70.90921254 244.99044419 71.48388672 243.78540039 C72.53831165 241.58312844 73.60652814 239.38738189 74.69140625 237.19995117 C75.15313232 236.23081787 75.6148584 235.26168457 76.09057617 234.26318359 C76.69977905 233.01843262 76.69977905 233.01843262 77.32128906 231.74853516 C79.28028233 224.74124163 75.71535034 218.71983982 72.63745117 212.61474609 C72.18869629 211.70484924 71.73994141 210.79495239 71.27758789 209.85748291 C69.81655768 206.89969418 68.34220959 203.94875714 66.86791992 200.99755859 C65.85015432 198.94194193 64.83347819 196.88578552 63.81787109 194.82910156 C61.80814972 190.76043967 59.79457452 186.69372494 57.77807617 182.62841797 C54.4246249 175.8585371 51.13681446 169.05862826 47.86791992 162.24755859 C42.46586924 151.02181781 37.01641631 139.81971057 31.55541992 128.62255859 C24.26365992 113.66989031 17.00713893 98.70095983 9.78637695 83.71386719 C6.90575313 77.73728377 4.02051944 71.76292635 1.13565063 65.78839111 C-0.36783014 62.67460419 -1.87103873 59.5606859 -3.37426758 56.44677734 C-3.87168457 55.41641357 -4.36910156 54.3860498 -4.8815918 53.32446289 C-5.23237793 52.59783447 -5.58316406 51.87120605 -5.94458008 51.12255859 C-6.27458008 51.12255859 -6.60458008 51.12255859 -6.94458008 51.12255859 Z " transform="translate(456.944580078125,512.87744140625)" style="fill: #FEFDFD;"/></svg>