<svg id="svg" version="1.1" xmlns="http://www.w3.org/2000/svg" style="display: block;" viewBox="0 0 381 372"><path d="M0 0 C125.73 0 251.46 0 381 0 C381 122.76 381 245.52 381 372 C255.27 372 129.54 372 0 372 C0 249.24 0 126.48 0 0 Z " transform="translate(0,0)" style="fill: #FEDEB2;"/><path d="M0 0 C125.73 0 251.46 0 381 0 C381 122.76 381 245.52 381 372 C255.27 372 129.54 372 0 372 C0 249.24 0 126.48 0 0 Z M162 16 C161.11406002 19.13863704 161.11406002 19.13863704 161 22 C160.05253906 22.03867187 160.05253906 22.03867187 159.0859375 22.078125 C145.51821562 22.81875832 145.51821562 22.81875832 133.98828125 28.97265625 C133.02837866 30.36086183 132.10894799 31.77837261 131.2421875 33.2265625 C129.36854107 35.90151684 127.10786397 36.40802591 124 37 C125.38691459 40.2221248 126.92436673 42.03354401 129.625 44.25 C141.81032042 54.67224292 141.81032042 54.67224292 142.5 59.5 C142.335 60.325 142.17 61.15 142 62 C141.37996094 62.14695313 140.75992188 62.29390625 140.12109375 62.4453125 C117.18941993 68.25333469 98.88261164 80.97400906 80.7265625 95.73046875 C77.1375831 98.36942419 74.48472881 99.36362666 70 99 C69 98 69 98 68.8125 95 C69.18630128 80.70928969 77.53136357 67.76876044 85 56 C80.58256633 57.42940724 77.531894 59.81710915 74.1875 62.9375 C73.66124023 63.42839111 73.13498047 63.91928223 72.59277344 64.42504883 C55.08798715 81.17771815 46.29605561 105.39330248 45.76028442 129.34803772 C45.72522156 132.36069772 45.72255038 135.3722094 45.73925781 138.38500977 C45.7500354 140.69508805 45.7392672 143.00439737 45.7265625 145.31445312 C45.3600549 156.90948536 45.3600549 156.90948536 48 168 C49.8144799 169.82915209 49.8144799 169.82915209 52 171 C55.84752242 170.75952985 58.62625575 169.76685313 62 168 C61.51080078 169.27230469 61.51080078 169.27230469 61.01171875 170.5703125 C55.24416421 186.05253854 52.82116211 201.00765936 52.875 217.5 C52.87113281 218.68464844 52.86726563 219.86929688 52.86328125 221.08984375 C52.87006058 227.17090087 53.14526521 232.98448013 54 239 C54.74823689 249.10119802 53.78632442 257.81395897 51.375 267.625 C49.05094873 277.08223924 48.64588336 284.50856158 51 294 C48.69 294.66 46.38 295.32 44 296 C45.75127943 303.35844601 48.47903548 308.9427854 53 315 C52.01 315.66 51.02 316.32 50 317 C51.29076763 322.88016366 54.45996102 326.28368117 59 330 C60.31149308 330.70866644 61.64025165 331.38901175 63 332 C62.34 333.65 61.68 335.3 61 337 C95.05114238 362.17488953 149.33130181 364.96714417 190 366 C191.21300781 366.04125 192.42601562 366.0825 193.67578125 366.125 C233.3586722 366.85732555 293.85299356 363.77178417 327 339 C328.3334529 336.92261982 328.3334529 336.92261982 329 335 C328.34 334.34 327.68 333.68 327 333 C327.59167969 332.57589844 328.18335938 332.15179688 328.79296875 331.71484375 C333.91833002 327.91053808 337.58601897 324.39629259 341 319 C339.68 317.35 338.36 315.7 337 314 C337.39832031 313.57589844 337.79664063 313.15179688 338.20703125 312.71484375 C342.49620335 307.96649021 345.76543773 303.67480896 346.1875 297.0625 C346.125625 296.381875 346.06375 295.70125 346 295 C344.02 294.34 342.04 293.68 340 293 C340.15855469 292.13117188 340.31710937 291.26234375 340.48046875 290.3671875 C341.76797512 282.02259737 341.33947841 274.61790741 339 266.5 C335.54868389 254.42188254 336.45145197 241.78779132 337.77075195 229.42041016 C339.78119483 208.19407294 335.67907817 188.0372345 329 168 C329.86625 168.515625 330.7325 169.03125 331.625 169.5625 C335.45689279 171.19460249 337.08240753 171.30586416 341 170 C349.05478444 161.22062198 345.44627636 140.04014125 345 129 C343.15038875 103.94956044 334.01707269 80.29426098 315.07080078 63.26611328 C313.39458018 61.82592073 311.70774993 60.40258066 310 59 C309.34 59.33 308.68 59.66 308 60 C308.60328125 60.93199219 309.2065625 61.86398438 309.828125 62.82421875 C316.97271011 74.11659931 322 85.34884503 322 99 C313.66000686 98.86761916 310.19992956 96.28791729 304 91 C290.92885956 80.46843528 278.38031638 71.45535365 262.2890625 66.09765625 C257.77875447 64.59243469 253.39399234 62.81226873 249 61 C248.6335025 57.73060959 248.77371175 56.33274538 250.65234375 53.5703125 C255.73677982 48.12953134 260.93448678 43.33046098 267 39 C264.1315587 36.89767656 264.1315587 36.89767656 261 36 C260.18364737 34.58785317 259.41982533 33.14499439 258.6875 31.6875 C255.1279299 26.11792389 250.87235653 25.09847868 244.63671875 23.640625 C239.76448573 22.78235839 234.94312862 22.20176035 230 22 C229.938125 21.0925 229.87625 20.185 229.8125 19.25 C229.23800793 15.98348308 229.23800793 15.98348308 227.24804688 13.83007812 C222.1139358 10.9373168 217.01311186 11.42982527 211.21875 11.46875 C209.97250854 11.4649231 208.72626709 11.46109619 207.44226074 11.45715332 C204.13625053 11.45373791 200.83099542 11.46980504 197.52508545 11.4921875 C195.50166842 11.49999356 193.47894528 11.49221479 191.45556641 11.47851562 C187.56380044 11.45380298 183.67305879 11.4567992 179.78125 11.46875 C177.97327942 11.45660461 177.97327942 11.45660461 176.12878418 11.44421387 C168.13305661 11.34132126 168.13305661 11.34132126 162 16 Z " transform="translate(0,0)" style="fill: #FEFEFE;"/><path d="M0 0 C1.24624146 -0.0038269 2.49248291 -0.00765381 3.77648926 -0.01159668 C7.08249947 -0.01501209 10.38775458 0.00105504 13.69366455 0.0234375 C15.71708158 0.03124356 17.73980472 0.02346479 19.76318359 0.00976562 C23.65494956 -0.01494702 27.54569121 -0.0119508 31.4375 0 C32.64281372 -0.00809692 33.84812744 -0.01619385 35.08996582 -0.02453613 C43.39763473 0.06860117 43.39763473 0.06860117 47.46679688 2.36132812 C49.64386189 5.05778212 49.98556101 7.11114488 50.21875 10.53125 C50.85039062 10.55703125 51.48203125 10.5828125 52.1328125 10.609375 C71.85427623 11.85972717 71.85427623 11.85972717 77.23046875 17.7265625 C78.19461106 19.30056911 79.11378588 20.90338307 79.9765625 22.53515625 C81.19067196 24.89290173 81.19067196 24.89290173 84.59375 26.09375 C85.46 26.238125 86.32625 26.3825 87.21875 26.53125 C84.15450602 29.69434056 80.97758385 32.63741457 77.65625 35.53125 C72.98355728 39.62693989 72.98355728 39.62693989 69.21875 44.53125 C69.09875799 47.12772928 69.09875799 47.12772928 69.21875 49.53125 C73.57615401 51.32842815 77.91432644 53.11031332 82.40234375 54.55859375 C97.80133071 59.56103923 110.3681748 68.13698301 122.6328125 78.55078125 C129.53812492 84.76464859 129.53812492 84.76464859 138.15625 87.34375 C138.92839844 87.39144531 139.70054687 87.43914062 140.49609375 87.48828125 C141.34880859 87.50955078 141.34880859 87.50955078 142.21875 87.53125 C143.22171255 72.82113264 135.49505342 59.75543975 128.21875 47.53125 C143.70620159 54.58047124 153.40852247 72.34286395 159.21875 87.53125 C160.94572737 92.44537381 162.17646205 97.42952477 163.21875 102.53125 C163.55519531 104.17480469 163.55519531 104.17480469 163.8984375 105.8515625 C166.15552821 119.42502583 170.10098756 145.95998955 162.03125 157.71875 C159.21875 159.53125 159.21875 159.53125 156.63671875 159.38671875 C152.11851409 158.25587667 147.997421 156.47529409 143.71875 154.65625 C124.73272105 146.8671541 105.83604946 146.37421382 85.59179688 146.40185547 C83.89128075 146.40049623 82.19076492 146.39871339 80.49024963 146.39654541 C75.9220792 146.3920332 71.35393165 146.39373476 66.78576088 146.3969245 C61.97399464 146.39948052 57.16223019 146.39710161 52.35046387 146.39553833 C44.27449191 146.39372602 36.19852915 146.39609822 28.12255859 146.40087891 C18.8249022 146.4063197 9.52726774 146.40455638 0.22961187 146.3990525 C-7.79552474 146.39449453 -15.8206548 146.3938839 -23.84579229 146.39649117 C-28.62030744 146.39803923 -33.39481232 146.39828849 -38.16932678 146.39495468 C-42.66088434 146.39203673 -47.15241399 146.39412268 -51.64396858 146.39984894 C-53.27884437 146.40115571 -54.91372255 146.40081854 -56.54859734 146.39858627 C-78.40503143 146.37152626 -102.26971035 146.43309087 -121.546875 158.22265625 C-123.78125 159.53125 -123.78125 159.53125 -126.90625 159.46875 C-129.78125 158.53125 -129.78125 158.53125 -131.59375 156.96875 C-135.17132054 149.62531573 -134.00120118 139.90038318 -134.02148438 131.90795898 C-134.03109572 129.63031128 -134.06214299 127.35360513 -134.09375 125.07617188 C-134.2820039 98.99815528 -127.21198267 73.70492693 -108.78125 54.53125 C-104.93965014 51.00290851 -100.89235508 47.73805109 -96.78125 44.53125 C-95.79125 45.02625 -95.79125 45.02625 -94.78125 45.53125 C-95.37292969 46.41425781 -95.96460938 47.29726563 -96.57421875 48.20703125 C-104.36546109 59.97713101 -111.69515918 71.90870317 -110.78125 86.53125 C-110.28625 87.02625 -110.28625 87.02625 -109.78125 87.53125 C-101.65552035 87.0532659 -96.81569471 82.63513979 -90.59375 77.78125 C-74.8676865 65.62336056 -57.96184089 53.67680769 -37.78125 50.53125 C-37.27481358 47.46918533 -37.19026413 45.36431811 -39.02929688 42.77197266 C-40.80061123 40.88439642 -42.63536048 39.10609969 -44.53125 37.34375 C-45.16546875 36.72822266 -45.7996875 36.11269531 -46.453125 35.47851562 C-48.96212925 33.06621258 -51.42621087 30.79187586 -54.234375 28.73046875 C-54.74484375 28.33472656 -55.2553125 27.93898438 -55.78125 27.53125 C-55.78125 26.87125 -55.78125 26.21125 -55.78125 25.53125 C-54.729375 25.180625 -53.6775 24.83 -52.59375 24.46875 C-49.45712912 23.16699034 -48.31012818 22.06007892 -46.71875 19.09375 C-43.61608442 14.25031495 -38.77836505 13.55664549 -33.453125 12.2421875 C-28.570835 11.29689305 -23.74822331 10.7339836 -18.78125 10.53125 C-18.6884375 9.17 -18.6884375 9.17 -18.59375 7.78125 C-17.78125 4.53125 -17.78125 4.53125 -16.02929688 2.36132812 C-10.8951858 -0.5314332 -5.79436186 -0.03892473 0 0 Z " transform="translate(179.78125,11.46875)" style="fill: #FEC701;"/><path d="M0 0 C1.70051613 -0.00135924 3.40103195 -0.00314208 5.10154724 -0.00531006 C9.66971768 -0.00982227 14.23786522 -0.00812071 18.806036 -0.00493097 C23.61780223 -0.00237495 28.42956668 -0.00475386 33.24133301 -0.00631714 C41.31730496 -0.00812945 49.39326773 -0.00575725 57.46923828 -0.00097656 C66.76689468 0.00446424 76.06452914 0.00270091 85.362185 -0.00280297 C93.38732162 -0.00736094 101.41245168 -0.00797157 109.43758917 -0.0053643 C114.21210432 -0.00381624 118.9866092 -0.00356697 123.76112366 -0.00690079 C128.25268122 -0.00981874 132.74421087 -0.00773278 137.23576546 -0.00200653 C138.87064124 -0.00069976 140.50551943 -0.00103693 142.14039421 -0.0032692 C170.90926523 -0.03888735 170.90926523 -0.03888735 182.12304688 2.87939453 C182.82204102 3.05929932 183.52103516 3.2392041 184.24121094 3.42456055 C186.29189819 3.97105038 188.33167429 4.54927393 190.37304688 5.12939453 C191.54867188 5.43232422 192.72429687 5.73525391 193.93554688 6.04736328 C198.41587606 7.48040975 201.41101262 8.69296265 204.07617188 12.67236328 C205.51946663 16.10236196 206.52544448 19.51764748 207.37304688 23.12939453 C207.55802734 23.8928418 207.74300781 24.65628906 207.93359375 25.44287109 C210.80919152 37.56007855 212.55222442 49.22203012 212.49804688 61.69189453 C212.50191406 62.58585937 212.50578125 63.47982422 212.50976562 64.40087891 C212.50297672 69.04109206 212.25680743 73.5019256 211.61328125 78.09399414 C210.16561793 90.35940992 211.02024926 102.26468598 214.49804688 114.07470703 C215.37304688 117.12939453 215.37304688 117.12939453 215.37304688 120.12939453 C214.5312085 120.14397705 213.68937012 120.15855957 212.82202148 120.17358398 C209.67011997 120.23498607 206.51884227 120.30920184 203.36743164 120.3918457 C202.00882145 120.42490387 200.65008022 120.45299414 199.29125977 120.47583008 C189.08128755 120.65205802 182.49794003 121.24294319 174.43554688 127.81689453 C173.66339844 128.43951172 172.89125 129.06212891 172.09570312 129.70361328 C171.52722656 130.17412109 170.95875 130.64462891 170.37304688 131.12939453 C169.71304688 130.79939453 169.05304688 130.46939453 168.37304688 130.12939453 C169.23929688 129.22189453 170.10554687 128.31439453 170.99804688 127.37939453 C179.79933524 117.0592077 184.59732774 102.65525606 184.37304688 89.12939453 C183.19860492 76.08618033 179.04910233 62.39416351 169.37304688 53.12939453 C169.37304688 52.46939453 169.37304688 51.80939453 169.37304688 51.12939453 C168.79683594 50.86771484 168.220625 50.60603516 167.62695312 50.33642578 C165.23303438 49.05441384 163.38474885 47.56542741 161.31054688 45.81689453 C148.53190451 35.77802656 133.21841259 33.66290997 117.37304688 35.12939453 C102.89063506 37.71449035 90.32135521 45.0421232 81.33007812 56.80126953 C75.64370837 65.38538422 72.32140409 74.06288225 70.37304688 84.12939453 C68.5762917 80.87326616 67.64787855 77.65060029 66.68554688 74.06689453 C64.61914938 67.24012946 61.58786052 61.85077986 57.37304688 56.12939453 C56.8496875 55.41009766 56.32632813 54.69080078 55.78710938 53.94970703 C47.51623921 43.58086005 35.33203918 37.29806501 22.37304688 35.12939453 C6.39196972 33.39956592 -8.09258735 36.09142072 -21.62695312 45.12939453 C-22.70783203 46.21220703 -22.70783203 46.21220703 -23.81054688 47.31689453 C-25.62695312 49.12939453 -25.62695312 49.12939453 -27.62695312 49.12939453 C-27.62695312 49.78939453 -27.62695312 50.44939453 -27.62695312 51.12939453 C-28.79452001 52.26262122 -29.96227107 53.39565866 -31.13085938 54.52783203 C-40.66025488 64.7290126 -44.52496962 77.9197122 -44.66210938 91.64892578 C-44.11027549 103.85656796 -40.50895697 117.73642984 -31.94335938 126.93798828 C-31.50894531 127.33115234 -31.07453125 127.72431641 -30.62695312 128.12939453 C-30.95695312 128.78939453 -31.28695312 129.44939453 -31.62695312 130.12939453 C-32.37460938 129.56349609 -33.12226562 128.99759766 -33.89257812 128.41455078 C-34.87742188 127.68107422 -35.86226562 126.94759766 -36.87695312 126.19189453 C-38.33875 125.09554687 -38.33875 125.09554687 -39.83007812 123.97705078 C-44.29555999 121.0270886 -48.05464693 120.9759127 -53.36132812 120.81298828 C-54.65683594 120.77109375 -55.95234375 120.72919922 -57.28710938 120.68603516 C-58.65038789 120.64622782 -60.01366918 120.60651548 -61.37695312 120.56689453 C-62.75587188 120.52367179 -64.13477838 120.48005632 -65.51367188 120.43603516 C-68.88466503 120.32995495 -72.25573139 120.22789603 -75.62695312 120.12939453 C-75.09354125 115.31833015 -74.3625066 110.86363289 -73.06445312 106.19189453 C-70.89527153 97.11307596 -70.88157131 87.65570186 -72.12695312 78.42236328 C-74.95800384 57.3413302 -72.42071272 36.28406178 -65.61523438 16.28955078 C-64.47771487 13.20403363 -64.47771487 13.20403363 -64.62695312 10.12939453 C-43.27173012 1.45821988 -22.7899577 -0.03111758 0 0 Z " transform="translate(125.626953125,156.87060546875)" style="fill: #BFBEBE;"/><path d="M0 0 C0.66 0.33 1.32 0.66 2 1 C1.40832031 1.88300781 0.81664062 2.76601563 0.20703125 3.67578125 C-7.58421109 15.44588101 -14.91390918 27.37745317 -14 42 C-13.505 42.495 -13.505 42.495 -13 43 C-4.87427035 42.5220159 -0.03444471 38.10388979 6.1875 33.25 C12.03721038 28.71512504 17.91762376 24.22062325 24 20 C24.845625 19.41089844 25.69125 18.82179688 26.5625 18.21484375 C29.39634252 16.80246391 30.09848975 17.0955784 33 18 C32.33871094 19.82724609 32.33871094 19.82724609 31.6640625 21.69140625 C29.67284626 27.66388504 28.53931776 33.76014744 27.375 39.9375 C26.94784204 42.17626537 26.51827947 44.41457372 26.0859375 46.65234375 C25.9007959 47.63195068 25.7156543 48.61155762 25.52490234 49.62084961 C25 52 25 52 24 54 C21.1640625 54.37890625 21.1640625 54.37890625 17.625 54.5625 C12.72744526 54.82302499 12.72744526 54.82302499 8 56 C6.92701558 58.12955803 6.92701558 58.12955803 6 61 C5.44162204 62.40711246 4.87726999 63.81186165 4.30859375 65.21484375 C3.68450911 66.78890923 3.06082119 68.36313204 2.4375 69.9375 C1.96280273 71.11602539 1.96280273 71.11602539 1.47851562 72.31835938 C-0.18729191 76.54477126 -1.46709523 80.45205925 -2 85 C-1.07380859 84.60167969 -1.07380859 84.60167969 -0.12890625 84.1953125 C12.60540768 78.88450273 24.96587607 77.87542544 38.66455078 77.77880859 C40.35062187 77.76154976 40.35062187 77.76154976 42.070755 77.74394226 C45.77891382 77.70736598 49.48708833 77.67758272 53.1953125 77.6484375 C55.82372203 77.62524644 58.4521298 77.6018559 61.08053589 77.57827759 C66.60998081 77.52949679 72.13944901 77.48490243 77.66894531 77.44238281 C83.23834224 77.39947812 88.80765418 77.35101339 94.37695312 77.296875 C120.83598501 77.0408819 147.29866963 76.79750762 173.75698471 77.23881912 C175.74159339 77.2715367 177.72627208 77.30032053 179.71100235 77.32456589 C212.70043697 77.75831898 212.70043697 77.75831898 227 85 C225.29722632 77.34562687 222.58944135 70.40993391 219.33764648 63.30859375 C217 58.18141838 217 58.18141838 217 56 C213.68455701 54.89485234 210.79589889 54.67892369 207.3125 54.4375 C206.13300781 54.35371094 204.95351563 54.26992187 203.73828125 54.18359375 C202.38283203 54.09271484 202.38283203 54.09271484 201 54 C199.996729 50.99018701 199.32436078 48.04324371 198.66015625 44.94140625 C198.40169922 43.75095703 198.14324219 42.56050781 197.87695312 41.33398438 C197.33496403 38.82419792 196.79589019 36.31378011 196.25976562 33.80273438 C196.00001953 32.61099609 195.74027344 31.41925781 195.47265625 30.19140625 C195.23812744 29.10029541 195.00359863 28.00918457 194.76196289 26.88500977 C194.08573134 24.3246034 193.24982113 22.31437616 192 20 C191.63215869 18.6757713 191.28797019 17.34386088 191 16 C200.27851649 18.81861911 207.66699108 24.61752512 215.1875 30.5625 C215.78780029 31.0366333 216.38810059 31.5107666 217.0065918 31.99926758 C219.48605971 33.96824673 221.94144019 35.95009771 224.3515625 38.00390625 C229.06815405 41.90308054 232.87587837 42.97164759 239 43 C240.00296255 28.28988264 232.27630342 15.22418975 225 3 C240.48745159 10.04922124 250.18977247 27.81161395 256 43 C257.72697737 47.91412381 258.95771205 52.89827477 260 58 C260.33644531 59.64355469 260.33644531 59.64355469 260.6796875 61.3203125 C262.93677821 74.89377583 266.88223756 101.42873955 258.8125 113.1875 C256 115 256 115 253.41796875 114.85546875 C248.89976409 113.72462667 244.778671 111.94404409 240.5 110.125 C221.51397105 102.3359041 202.61729946 101.84296382 182.37304688 101.87060547 C180.67253075 101.86924623 178.97201492 101.86746339 177.27149963 101.86529541 C172.7033292 101.8607832 168.13518165 101.86248476 163.56701088 101.8656745 C158.75524464 101.86823052 153.94348019 101.86585161 149.13171387 101.86428833 C141.05574191 101.86247602 132.97977915 101.86484822 124.90380859 101.86962891 C115.6061522 101.8750697 106.30851774 101.87330638 97.01086187 101.8678025 C88.98572526 101.86324453 80.9605952 101.8626339 72.93545771 101.86524117 C68.16094256 101.86678923 63.38643768 101.86703849 58.61192322 101.86370468 C54.12036566 101.86078673 49.62883601 101.86287268 45.13728142 101.86859894 C43.50240563 101.86990571 41.86752745 101.86956854 40.23265266 101.86733627 C18.37621857 101.84027626 -5.48846035 101.90184087 -24.765625 113.69140625 C-27 115 -27 115 -30.125 114.9375 C-33 114 -33 114 -34.8125 112.4375 C-38.39007054 105.09406573 -37.21995118 95.36913318 -37.24023438 87.37670898 C-37.24984572 85.09906128 -37.28089299 82.82235513 -37.3125 80.54492188 C-37.5007539 54.46690528 -30.43073267 29.17367693 -12 10 C-8.15840014 6.47165851 -4.11110508 3.20680109 0 0 Z " transform="translate(83,56)" style="fill: #FE9401;"/><path d="M0 0 C0.15279647 7.09810639 0.25748563 14.19578494 0.32958984 21.29516602 C0.3596644 23.70743661 0.40053545 26.11959875 0.45263672 28.53149414 C0.52585895 32.0095503 0.55955143 35.48615438 0.5859375 38.96484375 C0.61690521 40.03395493 0.64787292 41.1030661 0.67977905 42.20457458 C0.6831956 49.8971474 -1.31692043 54.01851438 -6 60 C-7.42262471 62.7645236 -7.42262471 62.7645236 -8.3125 65.25 C-8.61800781 66.03890625 -8.92351562 66.8278125 -9.23828125 67.640625 C-12.60315399 78.06310261 -12.35655777 90.92763843 -8 101 C-7.63648438 101.84820312 -7.27296875 102.69640625 -6.8984375 103.5703125 C-5.75161587 105.9305454 -4.6616877 107.96904836 -3 110 C0.15949682 111.21282289 0.15949682 111.21282289 3 111 C3 111.33 3 111.66 3 112 C2.35679306 112.00808685 1.71358612 112.01617371 1.05088806 112.02450562 C-5.71536206 112.1113542 -12.4813458 112.21088024 -19.24731445 112.31738281 C-21.76387008 112.355388 -24.28047478 112.39028739 -26.79711914 112.421875 C-52.86751984 112.65837929 -52.86751984 112.65837929 -78 119 C-79.485 119.495 -79.485 119.495 -81 120 C-80.04872467 113.34107268 -78.1820607 107.40287455 -75.6875 101.1875 C-75.40382568 100.45861572 -75.12015137 99.72973145 -74.82788086 98.97875977 C-72.94605305 94.43131423 -71.04499254 91.01322633 -67 88 C-63.66796875 87.51171875 -63.66796875 87.51171875 -60.1875 87.6875 C-59.02605469 87.73261719 -57.86460938 87.77773437 -56.66796875 87.82421875 C-55.78753906 87.88222656 -54.90710938 87.94023438 -54 88 C-53.81050781 86.0509375 -53.81050781 86.0509375 -53.6171875 84.0625 C-53.08543593 79.29352801 -52.19141191 74.67506916 -51.125 70 C-50.95009033 69.21689453 -50.77518066 68.43378906 -50.5949707 67.62695312 C-49.65194956 63.50289889 -48.59491845 59.49525238 -47.1875 55.5 C-46.795625 54.345 -46.40375 53.19 -46 52 C-46.33 51.34 -46.66 50.68 -47 50 C-24.46666667 40 -24.46666667 40 -19 40 C-18.49356358 36.93793533 -18.40901413 34.83306811 -20.24804688 32.24072266 C-22.01936123 30.35314642 -23.85411048 28.57484969 -25.75 26.8125 C-26.38421875 26.19697266 -27.0184375 25.58144531 -27.671875 24.94726562 C-30.18087925 22.53496258 -32.64496087 20.26062586 -35.453125 18.19921875 C-35.96359375 17.80347656 -36.4740625 17.40773438 -37 17 C-37 16.34 -37 15.68 -37 15 C-35.4221875 14.4740625 -35.4221875 14.4740625 -33.8125 13.9375 C-30.67587912 12.63574034 -29.52887818 11.52882892 -27.9375 8.5625 C-24.85143032 3.66414107 -19.80175072 3.06028582 -14.47265625 1.7265625 C-9.56134813 0.69899972 -5.01946547 -0.05386486 0 0 Z " transform="translate(161,22)" style="fill: #FEB601;"/><path d="M0 0 C1.7517091 0.15111851 3.50321748 0.30456486 5.25463867 0.45898438 C6.71772713 0.58678284 6.71772713 0.58678284 8.21037292 0.71716309 C14.70498641 1.37564409 22.42184603 2.1865582 27.01171875 7.1953125 C27.97586106 8.76931911 28.89503588 10.37213307 29.7578125 12.00390625 C30.97192196 14.36165173 30.97192196 14.36165173 34.375 15.5625 C35.674375 15.7790625 35.674375 15.7790625 37 16 C33.93575602 19.16309056 30.75883385 22.10616457 27.4375 25 C22.76480728 29.09568989 22.76480728 29.09568989 19 34 C18.88000799 36.59647928 18.88000799 36.59647928 19 39 C25.95045757 41.86666338 32.98014411 44.42365788 40.09375 46.8515625 C43 48 43 48 45 50 C45.50474839 51.64884475 46.00019835 53.30136541 46.43798828 54.96923828 C47.01094922 57.03956368 47.7072823 59.03204744 48.4296875 61.0546875 C50.19502114 66.30551998 51.21373935 71.61777606 52.1875 77.0625 C52.36474609 78.02349609 52.54199219 78.98449219 52.72460938 79.97460938 C53.15550433 82.3154171 53.58051928 84.65712485 54 87 C54.89203125 87.02578125 55.7840625 87.0515625 56.703125 87.078125 C58.45882812 87.16320312 58.45882812 87.16320312 60.25 87.25 C61.99023438 87.31960937 61.99023438 87.31960937 63.765625 87.390625 C67.65292593 88.12301503 68.66517141 88.84468935 71 92 C72.35406389 94.4985271 73.47312014 97.06427573 74.5625 99.6875 C74.86478516 100.39994873 75.16707031 101.11239746 75.47851562 101.84643555 C81.37062507 115.88812479 81.37062507 115.88812479 80 120 C79.49855469 119.74605469 78.99710937 119.49210937 78.48046875 119.23046875 C62.21636714 111.83265762 43.29749668 112.49527916 25.8125 112.3125 C23.58656976 112.27922871 21.3606575 112.24473053 19.13476562 112.20898438 C13.75663487 112.12522784 8.37848345 112.05642697 3 112 C4.87919008 107.27688597 6.87153824 102.60746001 8.87890625 97.9375 C12.77061301 87.7404147 12.32590868 74.98549672 8 65 C6.12995645 61.17518601 4.24012024 57.4310359 1.44120789 54.20123291 C-0.32538316 51.50302512 -0.36390482 49.97626231 -0.34057617 46.77246094 C-0.34034958 45.73168396 -0.34012299 44.69090698 -0.33988953 43.61859131 C-0.32440567 42.50179993 -0.30892181 41.38500854 -0.29296875 40.234375 C-0.28872391 39.08584045 -0.28447906 37.93730591 -0.28010559 36.75396729 C-0.26331333 33.0857397 -0.22565898 29.41806153 -0.1875 25.75 C-0.17245392 23.26302877 -0.15876539 20.77604892 -0.14648438 18.2890625 C-0.11340796 12.19252088 -0.06320256 6.09629969 0 0 Z " transform="translate(230,22)" style="fill: #FEB601;"/><path d="M0 0 C15.48745159 7.04922124 25.18977247 24.81161395 31 40 C32.72697737 44.91412381 33.95771205 49.89827477 35 55 C35.22429687 56.09570312 35.44859375 57.19140625 35.6796875 58.3203125 C37.93677821 71.89377583 41.88223756 98.42873955 33.8125 110.1875 C31 112 31 112 27.9375 112 C25.07703267 111.02622389 23.24920514 109.98968147 21 108 C21.99 107.67 22.98 107.34 24 107 C23.57769963 101.88053405 22.28280581 99.68161122 18.5625 96.1875 C17.75941406 95.41792969 16.95632813 94.64835937 16.12890625 93.85546875 C14.14003061 91.96562665 14.14003061 91.96562665 12 91 C12 90.34 12 89.68 12 89 C11.443125 88.7525 10.88625 88.505 10.3125 88.25 C3.36716078 84.49576258 1.689312 80.51937897 -0.5625 73.25 C-2.18727313 68.16834296 -3.77320636 63.24089518 -6.21484375 58.484375 C-8 55 -8 55 -8 53 C-11.31544299 51.89485234 -14.20410111 51.67892369 -17.6875 51.4375 C-18.86699219 51.35371094 -20.04648437 51.26992187 -21.26171875 51.18359375 C-22.61716797 51.09271484 -22.61716797 51.09271484 -24 51 C-25.003271 47.99018701 -25.67563922 45.04324371 -26.33984375 41.94140625 C-26.59830078 40.75095703 -26.85675781 39.56050781 -27.12304688 38.33398438 C-27.66503597 35.82419792 -28.20410981 33.31378011 -28.74023438 30.80273438 C-28.99998047 29.61099609 -29.25972656 28.41925781 -29.52734375 27.19140625 C-29.76187256 26.10029541 -29.99640137 25.00918457 -30.23803711 23.88500977 C-30.91426866 21.3246034 -31.75017887 19.31437616 -33 17 C-33.36784131 15.6757713 -33.71202981 14.34386088 -34 13 C-24.72148351 15.81861911 -17.33300892 21.61752512 -9.8125 27.5625 C-8.91204956 28.27369995 -8.91204956 28.27369995 -7.9934082 28.99926758 C-5.51394029 30.96824673 -3.05855981 32.95009771 -0.6484375 35.00390625 C4.06815405 38.90308054 7.87587837 39.97164759 14 40 C15.00296255 25.28988264 7.27630342 12.22418975 0 0 Z " transform="translate(308,59)" style="fill: #FDA002;"/><path d="M0 0 C17.81569905 9.65495949 33.27010237 28.5758606 39.5 47.875 C43.02872298 60.94255404 43.02872298 60.94255404 41 65 C38.44958811 66.13351639 36.9961778 65.99921819 34.25 65.4375 C31.4946604 64.2187921 29.65820761 63.10751426 27.3046875 61.30859375 C26.60085938 60.77210205 25.89703125 60.23561035 25.171875 59.68286133 C23.10486131 58.08125101 21.0464199 56.46952226 18.9921875 54.8515625 C6.01022864 44.63727538 -6.19917587 37.26067866 -22 32 C-23.94398779 31.2669804 -25.88236629 30.5187588 -27.8125 29.75 C-28.60269531 29.43546875 -29.39289063 29.1209375 -30.20703125 28.796875 C-32 28 -32 28 -33 27 C-33.4867432 23.63971264 -33.20169185 22.2963914 -31.26953125 19.45703125 C-10.57256728 -2.81935127 -10.57256728 -2.81935127 0 0 Z " transform="translate(281,34)" style="fill: #BFBFBE;"/><path d="M0 0 C9.5626827 4.54242177 17.03156712 10.87864378 24.6875 18.125 C25.22922852 18.61548828 25.77095703 19.10597656 26.32910156 19.61132812 C28.8046776 22.0270764 29.94067991 23.65998414 30.5390625 27.08984375 C27.90921529 32.0625244 22.82014892 32.77798653 17.6875 34.4375 C15.46742281 35.21519074 13.24992079 36.00027484 11.03515625 36.79296875 C9.97699707 37.17114746 8.91883789 37.54932617 7.82861328 37.93896484 C-6.79985571 43.42621897 -20.23094607 54.94284711 -32.2734375 64.73046875 C-35.82568101 67.34241251 -38.54973625 68.46844882 -43 68 C-45 66 -45 66 -45.25 62.9375 C-44.00908593 43.39310335 -31.04930532 24.24314535 -16.75927734 11.45800781 C-11.54117867 7.13348863 -5.75673821 3.5547072 0 0 Z " transform="translate(113,32)" style="fill: #BFBEBE;"/><path d="M0 0 C2.06931962 0.2635883 4.13090128 0.58826626 6.1875 0.9375 C13.53160032 2.06213612 20.56243117 2.20345933 28 2 C28.19335938 2.56589844 28.38671875 3.13179688 28.5859375 3.71484375 C28.97652344 4.81505859 28.97652344 4.81505859 29.375 5.9375 C29.63023437 6.66839844 29.88546875 7.39929688 30.1484375 8.15234375 C30.85271413 10.18682116 30.85271413 10.18682116 33 11 C34.9593604 11.08510205 36.92162794 11.10717656 38.8828125 11.09765625 C40.63271484 11.09282227 40.63271484 11.09282227 42.41796875 11.08789062 C44.25294922 11.07532227 44.25294922 11.07532227 46.125 11.0625 C47.97158203 11.05573242 47.97158203 11.05573242 49.85546875 11.04882812 C52.90369392 11.0370133 55.95182314 11.02054028 59 11 C59.33 8.36 59.66 5.72 60 3 C63.62385836 2.15158307 66.84898861 1.94629488 70.5625 2.0625 C76.87668714 2.1330934 82.82021926 1.2271905 89 0 C90 3 90 3 89.13671875 4.98046875 C82.90680757 14.46806933 74.8861793 20.72206962 64 24 C63.27941406 24.22429687 62.55882812 24.44859375 61.81640625 24.6796875 C46.14364069 28.64541327 26.99926602 27.08129724 13 18.8125 C7.46842156 14.92702572 1.14188754 10.0023735 -0.7734375 3.2890625 C-0.84820312 2.53367187 -0.92296875 1.77828125 -1 1 C-0.67 0.67 -0.34 0.34 0 0 Z " transform="translate(151,326)" style="fill: #D9BE9D;"/><path d="M0 0 C0.90789276 -0.01283524 1.81578552 -0.02567047 2.75119019 -0.03889465 C3.73451324 -0.04628159 4.7178363 -0.05366852 5.73095703 -0.0612793 C6.73965851 -0.06935104 7.74835999 -0.07742279 8.78762817 -0.08573914 C10.924482 -0.09958397 13.06135797 -0.11030433 15.19824219 -0.11816406 C18.46868648 -0.13539225 21.73812406 -0.17927702 25.00830078 -0.22338867 C27.08251208 -0.23351406 29.15673199 -0.24203064 31.23095703 -0.2487793 C32.69986893 -0.27504143 32.69986893 -0.27504143 34.19845581 -0.30183411 C40.97226952 -0.28015689 40.97226952 -0.28015689 44.19995117 2.02001953 C46.0724812 4.87683232 46.6181396 6.7508707 46.61376953 10.17700195 C44.95361328 12.73950195 44.95361328 12.73950195 42.55126953 15.17700195 C41.72369141 16.03036133 40.89611328 16.8837207 40.04345703 17.76293945 C39.24166016 18.55958008 38.43986328 19.3562207 37.61376953 20.17700195 C36.99759766 20.82926758 36.38142578 21.4815332 35.74658203 22.15356445 C34.42047288 23.54564919 33.02387685 24.87007322 31.61376953 26.17700195 C30.95376953 26.17700195 30.29376953 26.17700195 29.61376953 26.17700195 C29.61376953 26.83700195 29.61376953 27.49700195 29.61376953 28.17700195 C28.95376953 28.17700195 28.29376953 28.17700195 27.61376953 28.17700195 C27.61376953 28.83700195 27.61376953 29.49700195 27.61376953 30.17700195 C26.95376953 30.17700195 26.29376953 30.17700195 25.61376953 30.17700195 C25.61376953 30.83700195 25.61376953 31.49700195 25.61376953 32.17700195 C24.95376953 32.17700195 24.29376953 32.17700195 23.61376953 32.17700195 C23.61376953 32.83700195 23.61376953 33.49700195 23.61376953 34.17700195 C20.4627232 35.75252512 18.09500558 35.53002935 14.61376953 35.17700195 C12.30485123 33.53255457 10.63559434 32.11627353 8.71533203 30.1027832 C8.19490326 29.58193649 7.67447449 29.06108978 7.13827515 28.52445984 C6.04601102 27.42384268 4.96226343 26.31471527 3.88671875 25.19775391 C2.24198338 23.4928334 0.56973682 21.81920122 -1.10888672 20.14770508 C-2.16923076 19.07195354 -3.22788472 17.99453295 -4.28466797 16.9152832 C-5.03144302 16.16653679 -5.03144302 16.16653679 -5.79330444 15.40266418 C-8.5863284 12.47364766 -10.26535649 10.29671751 -10.38623047 6.17700195 C-7.33674155 1.55019118 -5.43127212 0.06677654 0 0 Z " transform="translate(177.38623046875,278.822998046875)" style="fill: #D9BE9D;"/><path d="M0 0 C5.61 0 11.22 0 17 0 C16.0625 13.39285714 16.0625 13.39285714 15 17 C16.7015625 17.185625 16.7015625 17.185625 18.4375 17.375 C20.2009375 17.684375 20.2009375 17.684375 22 18 C22.495 18.99 22.495 18.99 23 20 C20.33576747 26.69062907 16.94577571 32.76329631 12 38 C13.32 38.66 14.64 39.32 16 40 C13.23628475 48.06083614 7.9756727 51.66256249 1 56 C1.99 57.98 1.99 57.98 3 60 C-2.29659972 63.55096734 -7.5028996 66.27958007 -13.5 68.4375 C-14.3053418 68.73043945 -15.11068359 69.02337891 -15.94042969 69.32519531 C-31.52453063 74.80356527 -51.28777073 81.55810784 -68 81 C-65.09037576 79.42374415 -62.35366541 78.47775222 -59.140625 77.703125 C-57.72571777 77.35314453 -57.72571777 77.35314453 -56.28222656 76.99609375 C-55.2815918 76.74988281 -54.28095703 76.50367188 -53.25 76.25 C-39.30984221 72.70493012 -26.42044939 68.42069222 -14 61 C-13.7018576 57.2236068 -13.7018576 57.2236068 -15 55 C-14.40832031 54.64808594 -13.81664062 54.29617188 -13.20703125 53.93359375 C-7.76507144 50.53347856 -4.3827756 47.45608967 -1 42 C-2.32 40.35 -3.64 38.7 -5 37 C-4.60167969 36.57589844 -4.20335937 36.15179688 -3.79296875 35.71484375 C1.0879779 30.31136267 3.88935793 25.33023769 5 18 C2.69 17.67 0.38 17.34 -2 17 C-1.34 11.39 -0.68 5.78 0 0 Z " transform="translate(341,277)" style="fill: #FEF0D9;"/><path d="M0 0 C0.96186931 3.84747723 1.30659027 7.30167852 1.5625 11.25 C1.68818359 13.14492188 1.68818359 13.14492188 1.81640625 15.078125 C1.87699219 16.04234375 1.93757813 17.0065625 2 18 C0.02 18.66 -1.96 19.32 -4 20 C-2.09027262 27.71654071 0.29615275 33.29615275 6 39 C4.35 39.66 2.7 40.32 1 41 C4.77407297 47.72987349 8.55498323 51.70332215 15 56 C14.34 57.65 13.68 59.3 13 61 C27.90832492 71.46265476 46.61911494 75.55165923 64 80 C64 80.33 64 80.66 64 81 C56.60505915 80.46512025 49.5738073 79.18874667 42.375 77.4375 C41.30193604 77.17718994 40.22887207 76.91687988 39.12329102 76.64868164 C31.30046987 74.69368986 23.60029132 72.44578941 15.9375 69.9375 C14.46772705 69.46364868 14.46772705 69.46364868 12.96826172 68.98022461 C7.10530246 66.99625287 2.07489206 64.55051897 -3 61 C-2.01 59.68 -1.02 58.36 0 57 C-0.87011719 56.47212891 -0.87011719 56.47212891 -1.7578125 55.93359375 C-6.93043762 52.66442639 -11.73205311 49.29279242 -15 44 C-15 41 -15 41 -13.5 39.3125 C-13.005 38.879375 -12.51 38.44625 -12 38 C-12.47050781 37.45472656 -12.94101562 36.90945313 -13.42578125 36.34765625 C-17.72219317 31.14392752 -20.37220048 26.55770662 -22 20 C-19.09399739 18.74335022 -17.20395416 18 -14 18 C-14.144375 17.35933594 -14.28875 16.71867187 -14.4375 16.05859375 C-14.623125 15.19363281 -14.80875 14.32867187 -15 13.4375 C-15.185625 12.59058594 -15.37125 11.74367188 -15.5625 10.87109375 C-16 8 -16 8 -16 1 C-8.08 0.505 -8.08 0.505 0 0 Z " transform="translate(49,276)" style="fill: #FEF0D9;"/><path d="M0 0 C1.62035156 -0.02900391 1.62035156 -0.02900391 3.2734375 -0.05859375 C8.01158762 -0.02934591 11.1128177 0.09612349 15.23046875 2.55078125 C17.74082747 6.91204463 17.55167346 10.50316752 17.3125 15.4375 C17.28994141 16.32115234 17.26738281 17.20480469 17.24414062 18.11523438 C17.18547428 20.2858891 17.09579979 22.4556669 17 24.625 C16.38181396 24.66463867 15.76362793 24.70427734 15.12670898 24.74511719 C0.77076809 25.70972983 -12.60498387 27.04789291 -26 32.625 C-25.04872467 25.96607268 -23.1820607 20.02787455 -20.6875 13.8125 C-20.40382568 13.08361572 -20.12015137 12.35473145 -19.82788086 11.60375977 C-15.5710221 1.31704105 -10.75750178 -0.19255671 0 0 Z " transform="translate(106,109.375)" style="fill: #FFC701;"/><path d="M0 0 C1.65225586 0.061875 1.65225586 0.061875 3.33789062 0.125 C5.05588867 0.21394531 5.05588867 0.21394531 6.80859375 0.3046875 C8.53239258 0.35882813 8.53239258 0.35882813 10.29101562 0.4140625 C18.73157925 0.78985795 18.73157925 0.78985795 20.98999023 2.50097656 C23.10811044 5.3317238 24.37916978 8.56752924 25.74609375 11.8046875 C26.05289063 12.52164795 26.3596875 13.2386084 26.67578125 13.97729492 C32.62704428 28.03683592 32.62704428 28.03683592 31.24609375 32.1796875 C30.74464844 31.92574219 30.24320312 31.67179687 29.7265625 31.41015625 C17.3167477 25.76548751 2.71878713 24.88113832 -10.75390625 24.1796875 C-12.71209787 18.30511265 -12.26849964 11.6240061 -11.00390625 5.6171875 C-8.44808067 0.63332763 -5.39160741 -0.2061256 0 0 Z " transform="translate(278.75390625,109.8203125)" style="fill: #FFC701;"/><path d="M0 0 C5.04489655 -0.35892545 8.85234141 -0.58426255 13.4375 1.75 C17.99179446 5.7488927 19.84634211 8.65671715 20.25 14.8125 C20.18294487 18.87306094 19.2660292 21.56188674 17 25 C12.0193954 29.49469195 9.03316482 30.3052538 2.46875 30.2109375 C-2.30517961 29.80303845 -4.42357818 27.56332132 -7.75 24.3125 C-10.62222857 20.69963387 -10.85070285 17.55356297 -11 13 C-10.67 12.01 -10.34 11.02 -10 10 C-6.97265625 9.75585938 -6.97265625 9.75585938 -3.9453125 9.51171875 C-1.60480784 9.12606964 -1.60480784 9.12606964 0 6 C0.16699232 2.87478167 0.16699232 2.87478167 0 0 Z " transform="translate(248,233)" style="fill: #030100;"/><path d="M0 0 C4.65422701 -0.37233816 8.05195253 -0.46507989 12.3125 1.625 C15.95342677 4.84256319 18.5913541 7.43970836 19.3828125 12.3984375 C19.63883919 18.08222994 18.93626932 21.64938655 15 26 C10.64938655 29.93626932 7.08222994 30.63883919 1.3984375 30.3828125 C-3.53524104 29.59535241 -6.13226355 26.95907713 -9.375 23.375 C-11.5637327 18.82917054 -11.35261421 14.95618861 -11 10 C-9.72125 9.87625 -8.4425 9.7525 -7.125 9.625 C-3.65209064 9.30957601 -3.65209064 9.30957601 -1 7 C-0.59952556 4.67724823 -0.2602896 2.34260643 0 0 Z " transform="translate(134,233)" style="fill: #020100;"/><path d="M0 0 C4.95 0 9.9 0 15 0 C15.72703125 1.4540625 15.72703125 1.4540625 16.46875 2.9375 C16.78908203 3.57800293 17.10941406 4.21850586 17.43945312 4.87841797 C18.15221256 6.30426499 18.86444394 7.73037609 19.57617188 9.15673828 C21.4760657 12.96236919 23.38473547 16.7630894 25.3125 20.5546875 C25.67923828 21.27914062 26.04597656 22.00359375 26.42382812 22.75 C27.13286732 24.15006288 27.84503397 25.54854697 28.56054688 26.9453125 C31 31.77513519 31 31.77513519 31 34 C32.65 34 34.3 34 36 34 C36 37.63 36 41.26 36 45 C32.04 45 28.08 45 24 45 C23.5153125 44.030625 23.030625 43.06125 22.53125 42.0625 C22.21091797 41.42199707 21.89058594 40.78149414 21.56054688 40.12158203 C20.84778744 38.69573501 20.13555606 37.26962391 19.42382812 35.84326172 C17.5239343 32.03763081 15.61526453 28.2369106 13.6875 24.4453125 C13.32076172 23.72085938 12.95402344 22.99640625 12.57617188 22.25 C11.86713268 20.84993712 11.15496603 19.45145303 10.43945312 18.0546875 C8 13.22486481 8 13.22486481 8 11 C5.36 11 2.72 11 0 11 C0 7.37 0 3.74 0 0 Z " transform="translate(183,77)" style="fill: #040201;"/><path d="M0 0 C2.06155627 1.54050358 2.91440279 2.37322326 3.859375 4.77734375 C4.0625 6.75 4.0625 6.75 2.375 9.0625 C0.0625 10.75 0.0625 10.75 -1.828125 10.55859375 C-4.36076733 9.58774752 -5.94463344 8.26723106 -8 6.5 C-20.76731342 -3.67623835 -36.08377076 -5.59181634 -51.9375 -4.25 C-56.03770733 -3.51264463 -59.97532892 -2.53255249 -63.9375 -1.25 C-65.5 -4.0625 -65.5 -4.0625 -66.9375 -7.25 C-66.6075 -8.24 -66.2775 -9.23 -65.9375 -10.25 C-63.52358387 -11.16827089 -61.30986696 -11.84565349 -58.8125 -12.4375 C-58.09400879 -12.60967041 -57.37551758 -12.78184082 -56.63525391 -12.95922852 C-36.16532096 -17.49489931 -16.83389808 -11.83492298 0 0 Z " transform="translate(294.9375,196.25)" style="fill: #A6907D;"/><path d="M0 0 C1 3 1 3 -0.4375 6.1875 C-1.2109375 7.5796875 -1.2109375 7.5796875 -2 9 C-2.63421875 8.7834375 -3.2684375 8.566875 -3.921875 8.34375 C-20.65419876 3.35178601 -37.47505837 4.91609931 -52.9375 12.9375 C-57.01431114 15.27987833 -60.54137383 17.82180298 -64 21 C-66.46800047 19.84826645 -68.04783565 18.95216435 -70 17 C-69.93359375 15.12109375 -69.93359375 15.12109375 -69 13 C-49.93472029 -4.4044205 -24.0383649 -8.0127883 0 0 Z " transform="translate(162,186)" style="fill: #A6907D;"/><path d="M0 0 C-0.28109113 1.64767247 -0.57518526 3.29313145 -0.875 4.9375 C-1.03742188 5.85402344 -1.19984375 6.77054687 -1.3671875 7.71484375 C-1.57601562 8.46894531 -1.78484375 9.22304688 -2 10 C-6.09753777 12.04876888 -11.37153757 11.22907799 -15.875 11.25 C-16.97714844 11.270625 -18.07929688 11.29125 -19.21484375 11.3125 C-20.80619141 11.32023437 -20.80619141 11.32023437 -22.4296875 11.328125 C-23.40147949 11.3374707 -24.37327148 11.34681641 -25.37451172 11.35644531 C-28.42788914 10.9419083 -29.79239485 10.11661298 -32 8 C-32.52799676 5.23857697 -32.18598981 2.83634455 -32 0 C-19.6640794 -5.16494619 -12.46553725 -4.72467063 0 0 Z " transform="translate(212,327)" style="fill: #FDFBF8;"/><path d="M0 0 C0.33 0.66 0.66 1.32 1 2 C2.06734375 2.40412109 2.06734375 2.40412109 3.15625 2.81640625 C6.73284749 4.30501757 9.50815876 6.53222624 12.5 8.9375 C19.24112745 14.67734087 19.24112745 14.67734087 27.41015625 17.4453125 C31.79364566 16.90154994 33.90545933 15.49484902 37.4375 12.875 C37.99735596 12.46773682 38.55721191 12.06047363 39.1340332 11.64086914 C42.97748319 8.83097985 46.77594501 5.94791497 50.51171875 2.99609375 C52 2 52 2 54 2 C54.33 1.34 54.66 0.68 55 0 C54.76440078 6.20097136 51.82599171 8.84406239 47.5625 12.875 C46.96373047 13.46796875 46.36496094 14.0609375 45.74804688 14.671875 C41.2952639 19 41.2952639 19 39 19 C39 19.66 39 20.32 39 21 C38.34 21 37.68 21 37 21 C37 21.66 37 22.32 37 23 C36.34 23 35.68 23 35 23 C35 23.66 35 24.32 35 25 C34.34 25 33.68 25 33 25 C33 25.66 33 26.32 33 27 C29.84715286 28.57642357 27.48345221 28.35508827 24 28 C21.68040741 26.34441653 19.99766866 24.91504778 18.06640625 22.890625 C17.5436058 22.36740662 17.02080536 21.84418823 16.48216248 21.30511475 C15.38570178 20.20030231 14.29775568 19.08698141 13.21801758 17.96582031 C11.5623631 16.24985811 9.87905369 14.56529224 8.18945312 12.8828125 C7.12585146 11.80380822 6.06394106 10.72313364 5.00390625 9.640625 C4.24938927 8.88413666 4.24938927 8.88413666 3.47962952 8.11236572 C0.59470266 5.0869947 0 4.37610492 0 0 Z " transform="translate(168,286)" style="fill: #A6907D;"/><path d="M0 0 C3.39859703 1.46966358 5.64963709 3.38037514 8.25 6 C8.95640625 6.70125 9.6628125 7.4025 10.390625 8.125 C12 10 12 10 12 12 C11.11699219 12.42410156 10.23398438 12.84820312 9.32421875 13.28515625 C-1.96752888 18.77527637 -12.22994314 25.06333652 -22 33 C-22.33 32.34 -22.66 31.68 -23 31 C-18.16625153 18.57760447 -10.47489489 8.24619385 0 0 Z " transform="translate(113,56)" style="fill: #FDDDB2;"/><path d="M0 0 C11.78740551 4.98697926 18.68988479 17.69230744 24.1015625 28.6015625 C24.54628906 29.78878906 24.54628906 29.78878906 25 31 C24.67 31.66 24.34 32.32 24 33 C23.22398437 32.3709375 22.44796875 31.741875 21.6484375 31.09375 C11.81840692 23.25587742 1.65854453 16.82575198 -10 12 C-8.43873668 8.16780823 -5.97133075 5.82638778 -3 3 C-2.401875 2.401875 -1.80375 1.80375 -1.1875 1.1875 C-0.795625 0.795625 -0.40375 0.40375 0 0 Z " transform="translate(276,56)" style="fill: #FDDEB3;"/><path d="M0 0 C0.66 0 1.32 0 2 0 C2.87410936 1.53044753 3.72350224 3.07502594 4.5625 4.625 C5.03816406 5.48351562 5.51382813 6.34203125 6.00390625 7.2265625 C8.53861375 14.28398339 3.77290798 21.60098159 1 28 C-3.29 28 -7.58 28 -12 28 C-10.66398387 23.99195161 -9.35960399 20.39913691 -7.6171875 16.6015625 C-7.17246094 15.62832031 -6.72773438 14.65507813 -6.26953125 13.65234375 C-5.80933594 12.65332031 -5.34914062 11.65429688 -4.875 10.625 C-4.40707031 9.60277344 -3.93914062 8.58054687 -3.45703125 7.52734375 C-2.30741708 5.01696179 -1.15499936 2.50790769 0 0 Z " transform="translate(188,94)" style="fill: #080501;"/><path d="M0 0 C1.30179199 0.00193359 1.30179199 0.00193359 2.62988281 0.00390625 C9.51580558 0.10641347 15.64176041 1.07736941 22.1875 3.3125 C16.62849836 8.87150164 5.77656609 7.6240355 -1.60644531 7.62548828 C-8.64935771 7.50126727 -15.05179305 6.35163603 -21.8125 4.3125 C-15.36281354 0.01270903 -7.55452499 -0.04690431 0 0 Z " transform="translate(194.8125,344.6875)" style="fill: #B19B86;"/><path d="M0 0 C0.99 0.99 1.98 1.98 3 3 C0 5 0 5 -2 5 C-2.66 6.32 -3.32 7.64 -4 9 C-4.99 9 -5.98 9 -7 9 C-7.33 9.66 -7.66 10.32 -8 11 C-8 7.73770359 -7.78229676 6.67344514 -6 4 C-2.875 1.75 -2.875 1.75 0 0 Z " transform="translate(102,80)" style="fill: #F59400;"/><path d="M0 0 C0.556875 0.226875 1.11375 0.45375 1.6875 0.6875 C1.0275 2.3375 0.3675 3.9875 -0.3125 5.6875 C-1.97916667 5.6875 -3.64583333 5.6875 -5.3125 5.6875 C-5.6425 6.3475 -5.9725 7.0075 -6.3125 7.6875 C-6.6425 6.0375 -6.9725 4.3875 -7.3125 2.6875 C-2.88173077 -0.38942308 -2.88173077 -0.38942308 0 0 Z " transform="translate(114.3125,73.3125)" style="fill: #F79905;"/><path d="M0 0 C-0.66 1.32 -1.32 2.64 -2 4 C-3.32 3.34 -4.64 2.68 -6 2 C-6 1.34 -6 0.68 -6 0 C-3 -1 -3 -1 0 0 Z " transform="translate(130,37)" style="fill: #FBA30F;"/></svg>