<svg id="svg" version="1.1" xmlns="http://www.w3.org/2000/svg" style="display: block;" viewBox="0 0 300 300"><path d="M0 0 C99 0 198 0 300 0 C300 99 300 198 300 300 C201 300 102 300 0 300 C0 201 0 102 0 0 Z " transform="translate(0,0)" style="fill: #D72B6C;"/><path d="M0 0 C7.24963355 5.13680775 15.15564861 13.46694584 18 22 C22.07964281 20.69844994 22.07964281 20.69844994 26 19 C33.49841799 18.31116895 40.21886305 17.86045893 46.3984375 22.59375 C46.92695313 23.0578125 47.45546875 23.521875 48 24 C48.886875 24.721875 49.77375 25.44375 50.6875 26.1875 C54.68391682 31.04800694 57.76658438 36.2923788 58.3125 42.625 C58.209375 43.40875 58.10625 44.1925 58 45 C58.68449219 45.103125 59.36898437 45.20625 60.07421875 45.3125 C70.18363839 47.68801116 79.32675751 53.27824407 85 62 C90.7946608 71.76692214 91.38747128 81.97173106 89.48828125 92.9609375 C87.21071974 101.51824954 82.35440603 107.89584386 76.453125 114.3359375 C74.91953578 115.9513817 74.91953578 115.9513817 74 118 C73.34 118 72.68 118 72 118 C72 118.66 72 119.32 72 120 C72.66 120.33 73.32 120.66 74 121 C75.16801612 124.50404837 74.59818813 126.41087121 74 130 C74.33 130.99 74.66 131.98 75 133 C77.01508358 133.73323796 77.01508358 133.73323796 79 134 C78.01 134.33 77.02 134.66 76 135 C76.43570313 135.49628906 76.87140625 135.99257812 77.3203125 136.50390625 C78.56817636 137.92733537 79.80998854 139.35608428 81.046875 140.7890625 C82.24965373 142.15060802 83.48384669 143.48598761 84.765625 144.7734375 C88.42804669 148.56031041 89.92390249 151.5441543 90.16796875 156.859375 C89.79868474 161.56559918 87.85838024 164.22536418 84.4375 167.3125 C80.38292521 170.11951332 76.87959554 170.70670004 72 170 C65.63845398 167.73525279 61.52830048 162.86267596 56.9375 158.125 C56.14794922 157.32191406 55.35839844 156.51882812 54.54492188 155.69140625 C53.02514813 154.14488041 51.5081642 152.5956066 49.99438477 151.04321289 C46.94031167 147.91436753 43.8641708 144.81745887 40.6875 141.8125 C39 140 39 140 39 138 C38.01 138.45375 37.02 138.9075 36 139.375 C24.74019746 144.12663667 14.65964559 144.15296677 3.08984375 140.2734375 C-2.43626452 137.99592638 -7.08367383 134.96955745 -11.25 130.6875 C-12.91248116 128.76744699 -12.91248116 128.76744699 -15.5625 128.5625 C-18 128 -18 128 -19.8125 125.6875 C-21 123 -21 123 -21 119 C-21.66 119 -22.32 119 -23 119 C-23.99 116.03 -24.98 113.06 -26 110 C-27.98 110 -29.96 110 -32 110 C-31.67 111.32 -31.34 112.64 -31 114 C-31.99 114 -32.98 114 -34 114 C-34 116.64 -34 119.28 -34 122 C-40.81342714 122.10190419 -47.62665577 122.17167623 -54.44067383 122.21972656 C-56.75585271 122.23977 -59.07098142 122.26701225 -61.38598633 122.30175781 C-64.72489851 122.35059542 -68.06313799 122.37304225 -71.40234375 122.390625 C-72.42770737 122.41127014 -73.45307098 122.43191528 -74.50950623 122.45318604 C-84.62220717 122.45630261 -91.6086169 119.16138198 -98.92578125 112.265625 C-108.02666678 102.3249214 -110.73764918 91.00457908 -110.27734375 77.83984375 C-109.49432644 66.9989139 -105.1240064 59.4957844 -97.125 52.1875 C-94 50 -94 50 -91.73046875 49.4453125 C-88.78895338 48.67548134 -87.22906455 48.11012237 -85 46 C-83.20637561 40.95143399 -82.94286648 35.42539918 -82.3125 30.13623047 C-80.4227916 17.21830198 -70.77440124 5.83080093 -60.65625 -1.7578125 C-41.20001238 -14.32856343 -18.99444412 -12.31507915 0 0 Z " transform="translate(160,70)" style="fill: #D72B6B;"/><path d="M0 0 C9.60117527 6.47331364 15.41460779 14.89806849 18.4375 26 C18.62957031 26.64582031 18.82164062 27.29164063 19.01953125 27.95703125 C20.54726533 35.42436698 19.46426638 42.77964477 17.4375 50 C16.82971133 52.36843465 16.82971133 52.36843465 17.4375 55 C19.2619673 57.48113782 21.47071623 59.5176781 23.7109375 61.62109375 C24.34987946 62.24347427 24.98882141 62.8658548 25.64712524 63.50709534 C27.69072282 65.49623666 29.74973436 67.46825602 31.8125 69.4375 C33.86728673 71.40394246 35.91789205 73.37392581 37.95645142 75.35719299 C39.22440993 76.59049112 40.50172738 77.81425995 41.78939819 79.02696228 C45.82851653 82.95167736 48.17225821 86.30021713 48.58984375 92.125 C47.97024347 97.53242064 46.34029325 100.18796938 42.4375 104 C39.40403108 106.30125228 36.38757624 106.26447168 32.6328125 106.36328125 C25.07143012 105.11202047 20.4536467 99.36613007 15.375 94.125 C14.19067383 92.92037109 14.19067383 92.92037109 12.98242188 91.69140625 C11.46264813 90.14488041 9.9456642 88.5956066 8.43188477 87.04321289 C5.37781167 83.91436753 2.3016708 80.81745887 -0.875 77.8125 C-2.5625 76 -2.5625 76 -2.5625 74 C-3.5525 74.45375 -4.5425 74.9075 -5.5625 75.375 C-16.81993 80.12563546 -26.92098981 80.16641636 -38.484375 76.26171875 C-43.01525127 74.40451947 -46.76813739 72.07872644 -50.5625 69 C-51.18769531 68.49855469 -51.81289062 67.99710937 -52.45703125 67.48046875 C-59.85463167 60.8564736 -64.92783248 50.20638028 -65.93359375 40.37109375 C-66.16120936 26.88821595 -63.02495788 16.05258966 -53.5625 6 C-39.20209397 -8.52322242 -17.33704646 -9.98556405 0 0 Z " transform="translate(201.5625,134)" style="fill: #FBEDF6;"/><path d="M0 0 C7.24963355 5.13680775 15.15564861 13.46694584 18 22 C22.07964281 20.69844994 22.07964281 20.69844994 26 19 C33.49841799 18.31116895 40.21886305 17.86045893 46.3984375 22.59375 C46.92695313 23.0578125 47.45546875 23.521875 48 24 C48.886875 24.721875 49.77375 25.44375 50.6875 26.1875 C54.68391682 31.04800694 57.76658438 36.2923788 58.3125 42.625 C58.209375 43.40875 58.10625 44.1925 58 45 C58.68449219 45.103125 59.36898437 45.20625 60.07421875 45.3125 C70.18363839 47.68801116 79.32675751 53.27824407 85 62 C90.7946608 71.76692214 91.38747128 81.97173106 89.48828125 92.9609375 C86.88679919 102.73529208 81.26830613 110.17812153 73 116 C72.01 116 71.02 116 70 116 C67 111.77777778 67 111.77777778 67 109 C70.46153846 106 70.46153846 106 73 106 C73.33 105.01 73.66 104.02 74 103 C74.66 103 75.32 103 76 103 C76.67561748 101.3369416 77.33933281 99.66905395 78 98 C78.53625 96.824375 79.0725 95.64875 79.625 94.4375 C82.75959929 85.86959528 81.39917314 77.03553529 78.35546875 68.640625 C76.60234274 65.22531324 74.5182544 63.254252 71.390625 61.0859375 C70.93171875 60.72757812 70.4728125 60.36921875 70 60 C70 59.34 70 58.68 70 58 C65.19239216 56.31084049 60.32838176 55.02243476 55.390625 53.78125 C53 53 53 53 51 51 C50.12825798 47.90494954 49.37561418 44.81090531 48.67578125 41.67382812 C47.28735696 35.96774295 45.18616856 32.47439275 40.3125 29.1875 C36.06701332 27.66553308 32.45979962 27.26469254 28 28 C24.90794522 29.66054794 22.72197153 31.16251303 20.4375 33.8125 C19 35 19 35 16.64453125 35.0078125 C12.76773692 33.5303931 11.881174 30.63144671 10.25 27.0625 C3.95877066 14.44412565 -4.53732833 5.71298868 -18.08203125 0.90625 C-30.68235694 -2.58755019 -42.11658765 -1.55355836 -53.65234375 4.59765625 C-62.80179071 10.0629665 -69.47802232 18.83261304 -73.22265625 28.796875 C-75.05894708 36.36350055 -75.44500794 44.25041578 -76 52 C-76.7734375 52.27972656 -77.546875 52.55945313 -78.34375 52.84765625 C-88.26551071 56.66655177 -95.44865479 61.16909434 -100 71 C-102.81478387 82.16404145 -101.4200574 92.38245427 -95.71484375 102.21484375 C-92.15970126 107.53270313 -87.92734068 110.64381909 -82 113 C-78.19422371 113.67568902 -74.47988042 113.72215372 -70.62109375 113.70703125 C-69.04208031 113.72971321 -69.04208031 113.72971321 -67.4311676 113.75285339 C-64.09972358 113.79552076 -60.76918932 113.80454847 -57.4375 113.8125 C-55.16599179 113.83566048 -52.89450496 113.86102901 -50.62304688 113.88867188 C-45.08202242 113.95131688 -39.54135046 113.9864172 -34 114 C-34 116.64 -34 119.28 -34 122 C-40.81342714 122.10190419 -47.62665577 122.17167623 -54.44067383 122.21972656 C-56.75585271 122.23977 -59.07098142 122.26701225 -61.38598633 122.30175781 C-64.72489851 122.35059542 -68.06313799 122.37304225 -71.40234375 122.390625 C-72.42770737 122.41127014 -73.45307098 122.43191528 -74.50950623 122.45318604 C-84.62220717 122.45630261 -91.6086169 119.16138198 -98.92578125 112.265625 C-108.02666678 102.3249214 -110.73764918 91.00457908 -110.27734375 77.83984375 C-109.49432644 66.9989139 -105.1240064 59.4957844 -97.125 52.1875 C-94 50 -94 50 -91.73046875 49.4453125 C-88.78895338 48.67548134 -87.22906455 48.11012237 -85 46 C-83.20637561 40.95143399 -82.94286648 35.42539918 -82.3125 30.13623047 C-80.4227916 17.21830198 -70.77440124 5.83080093 -60.65625 -1.7578125 C-41.20001238 -14.32856343 -18.99444412 -12.31507915 0 0 Z " transform="translate(160,70)" style="fill: #FCF1F9;"/><path d="M0 0 C0.66 0 1.32 0 2 0 C2 0.66 2 1.32 2 2 C3.32 2.66 4.64 3.32 6 4 C5.01 4.66 4.02 5.32 3 6 C2.34 6.66 1.68 7.32 1 8 C0.01 8.33 -0.98 8.66 -2 9 C-3.10836423 10.88316159 -3.10836423 10.88316159 -4 13 C-4.99 14.485 -4.99 14.485 -6 16 C-8.01766065 24.0706426 -8.22342109 32.71823951 -4 40 C-1.45911321 42.87685203 -1.45911321 42.87685203 1 45 C2.29614601 41.75815858 2.29614601 41.75815858 3 38 C1.69882448 35.49759982 1.69882448 35.49759982 0 33 C-1.17379006 28.88745088 -1.27193016 25.83178637 0.0625 21.75 C2.44680324 18.36582765 4.25605377 16.80264078 8 15 C11.78487901 14.53346109 15.42502273 14.51334972 19.0859375 15.64453125 C21.32085163 16.2897051 21.32085163 16.2897051 24 14 C24.495 14.495 24.495 14.495 25 15 C26.31626692 11.38026598 27 8.90432869 27 5 C26.01 5 25.02 5 24 5 C24 4.34 24 3.68 24 3 C28.8171969 1.87375721 32.73787966 1.35100789 37.1875 3.8125 C43.34159963 8.23460752 47.34375151 15.5615211 48.74609375 22.95703125 C48.82988281 23.63121094 48.91367188 24.30539063 49 25 C49.09410156 25.74636719 49.18820313 26.49273437 49.28515625 27.26171875 C49.81823594 35.74998765 46.87005994 44.81385306 41.5625 51.5 C40.716875 52.325 39.87125 53.15 39 54 C38.175 54.886875 37.35 55.77375 36.5 56.6875 C28.60236113 62.88133353 17.14697612 62.5566472 7.6328125 61.58203125 C2.92401209 60.82761054 -0.09025965 59.71288106 -4 57 C-4.495 55.515 -4.495 55.515 -5 54 C-6.93330603 52.90833725 -6.93330603 52.90833725 -9 52 C-11 50 -11 50 -11 47 C-11.99 46.67 -12.98 46.34 -14 46 C-17.69334699 39.74972049 -17.68935177 33.12348538 -18 26 C-17.34 26 -16.68 26 -16 26 C-16 24.68 -16 23.36 -16 22 C-13.5 19.75 -13.5 19.75 -11 18 C-11.99 18 -12.98 18 -14 18 C-14 16.35 -14 14.7 -14 13 C-13.01 12.67 -12.02 12.34 -11 12 C-10.34 11.01 -9.68 10.02 -9 9 C-8.34 9 -7.68 9 -7 9 C-6.896875 8.360625 -6.79375 7.72125 -6.6875 7.0625 C-6.460625 6.381875 -6.23375 5.70125 -6 5 C-5.01 4.67 -4.02 4.34 -3 4 C-1.99357052 2.67151309 -0.99307821 1.33849671 0 0 Z " transform="translate(164,141)" style="fill: #D82D6C;"/><path d="M0 0 C9.60117527 6.47331364 15.41460779 14.89806849 18.4375 26 C18.62957031 26.64582031 18.82164062 27.29164063 19.01953125 27.95703125 C20.54726533 35.42436698 19.46426638 42.77964477 17.4375 50 C16.86667953 52.38766332 16.86667953 52.38766332 17.4375 55 C19.32071393 57.27124394 21.13339183 59.18402073 23.2734375 61.18359375 C23.86798737 61.76158218 24.46253723 62.33957062 25.07510376 62.93507385 C26.97606242 64.78159881 28.89237459 66.61092779 30.8125 68.4375 C32.72464741 70.26126478 34.63256732 72.08856334 36.5284729 73.92921448 C37.70739754 75.07351404 38.89567114 76.20828272 40.09432983 77.33189392 C43.49814792 80.63215946 45.41576837 83.21948619 46.4375 88 C46.0625 90.875 46.0625 90.875 45.4375 93 C43.9525 92.505 43.9525 92.505 42.4375 92 C42.4375 91.34 42.4375 90.68 42.4375 90 C41.4475 90 40.4575 90 39.4375 90 C37.98022461 88.61914062 37.98022461 88.61914062 36.40234375 86.65625 C31.90676126 81.29135598 26.9695024 76.42299158 22 71.5 C21.07767578 70.5821875 20.15535156 69.664375 19.20507812 68.71875 C16.95150101 66.47684945 14.69560925 64.237334 12.4375 62 C11.67050781 62.65484375 10.90351563 63.3096875 10.11328125 63.984375 C7.16880974 66.20240025 6.01311223 66.4086414 2.4375 66 C3.1875 60.25 3.1875 60.25 5.4375 58 C10.76651278 48.76575647 11.95535639 37.14710592 9.3125 26.9375 C6.82653521 19.51461922 2.34742339 12.01804398 -4.5625 8 C-13.61396721 3.51772337 -22.36257494 0.9937974 -32.32421875 3.76953125 C-42.90514111 7.73935414 -49.84284605 13.92458564 -54.80078125 24.0078125 C-58.47955554 33.62922219 -56.85157005 42.85744268 -53.00390625 52.109375 C-51.24115804 55.64442561 -49.22861104 58.11171304 -46.5625 61 C-45.5625 63.125 -45.5625 63.125 -45.5625 65 C-47 67.25 -47 67.25 -48.5625 69 C-57.3899469 64.46017016 -61.19072532 56.02895171 -64.6796875 47.16015625 C-67.75507187 36.15136885 -65.86730836 24.94150484 -60.5625 15 C-47.21900122 -6.04532824 -21.75617971 -12.53083832 0 0 Z " transform="translate(201.5625,134)" style="fill: #FBF3F9;"/><path d="M0 0 C3.22914286 3.22914286 3.10699749 7.62652521 3.828125 12.03125 C4.70388737 15.25245275 4.70388737 15.25245275 7.78125 16.27734375 C9.37453125 16.63505859 9.37453125 16.63505859 11 17 C12.75585654 17.67240171 14.50631328 18.35914171 16.25 19.0625 C17.10078125 19.40410156 17.9515625 19.74570313 18.828125 20.09765625 C20.23953552 20.68405163 21.63297719 21.3164886 23 22 C23 22.66 23 23.32 23 24 C23.8353125 24.309375 23.8353125 24.309375 24.6875 24.625 C30.4547623 28.05418299 32.84746499 32.93679148 34.4921875 39.22265625 C36.11757279 48.11226351 35.3615667 55.10460919 31 63 C30.69835937 63.67546875 30.39671875 64.3509375 30.0859375 65.046875 C28.83657218 67.29393493 27.46439835 68.60190308 25.5 70.25 C24.58734375 71.03117187 24.58734375 71.03117187 23.65625 71.828125 C22 73 22 73 20 73 C20.495 73.78375 20.99 74.5675 21.5 75.375 C23 78 23 78 23 80 C25.97 79.01 25.97 79.01 29 78 C28.34 79.32 27.68 80.64 27 82 C26.34 82 25.68 82 25 82 C25 82.66 25 83.32 25 84 C25.99 84.495 25.99 84.495 27 85 C28.16801612 88.50404837 27.59818813 90.41087121 27 94 C27.33 94.99 27.66 95.98 28 97 C30.01508358 97.73323796 30.01508358 97.73323796 32 98 C30.02 98.99 30.02 98.99 28 100 C25.10483963 97.39628368 22.26793068 94.73630606 19.4375 92.0625 C18.61830078 91.32708984 17.79910156 90.59167969 16.95507812 89.83398438 C11.1815226 84.30200021 11.1815226 84.30200021 10.66064453 80.56591797 C10.90237164 78.25792074 11.33322945 76.21964757 12 74 C14.70775508 63.78670491 12.60372672 54.57783593 8.8125 45 C5.34720295 39.26433592 1.34643058 33.12452614 -4.5 29.625 C-5.325 29.08875 -6.15 28.5525 -7 28 C-7 26.68 -7 25.36 -7 24 C-6.01 24 -5.02 24 -4 24 C-1.03268602 22.16343011 -1.03268602 22.16343011 1 20 C3.625 19.375 3.625 19.375 6 19 C5.54625 18.62875 5.0925 18.2575 4.625 17.875 C0.37398426 12.96998184 0.4646862 6.18766363 0 0 Z " transform="translate(207,106)" style="fill: #DD3472;"/><path d="M0 0 C2.09077225 1.56596302 3.39672981 2.92168679 5 5 C2.03 4.01 -0.94 3.02 -4 2 C-4.33 2.66 -4.66 3.32 -5 4 C-6.32 3.67 -7.64 3.34 -9 3 C-9 3.66 -9 4.32 -9 5 C-8.01 5 -7.02 5 -6 5 C-4.9742741 9.41062136 -4.96315288 11.92630576 -7 16 C-7.99 15.67 -8.98 15.34 -10 15 C-10.99 15.66 -11.98 16.32 -13 17 C-13.99 16.67 -14.98 16.34 -16 16 C-20.71532984 15.45212358 -24.12960282 15.57271411 -28.4375 17.6875 C-31.22038324 20.19888244 -32.25316886 21.34882555 -33 25 C-32.98325275 29.11982411 -32.52222301 32.1683115 -30.3125 35.6875 C-29.879375 36.450625 -29.44625 37.21375 -29 38 C-29.75 40.6875 -29.75 40.6875 -31 43 C-31.33 43.66 -31.66 44.32 -32 45 C-36.22141034 43.49235345 -37.80349864 40.78707131 -40 37 C-42.2506951 30.02869115 -41.63906512 21.72961606 -39 15 C-36.55814541 10.705704 -33.99960963 7.88860695 -30 5 C-30.33 3.35 -30.66 1.7 -31 0 C-31.94875 0.804375 -32.8975 1.60875 -33.875 2.4375 C-35.57932356 3.88246997 -36.99480986 4.99740493 -39 6 C-39.33 6.99 -39.66 7.98 -40 9 C-40.99 9.495 -40.99 9.495 -42 10 C-42.99 11.485 -42.99 11.485 -44 13 C-44.66 13 -45.32 13 -46 13 C-46 14.32 -46 15.64 -46 17 C-45.34 16.67 -44.68 16.34 -44 16 C-43.67 16.99 -43.34 17.98 -43 19 C-43.99 19 -44.98 19 -46 19 C-46.33 19.99 -46.66 20.98 -47 22 C-47.66 22 -48.32 22 -49 22 C-49 23.32 -49 24.64 -49 26 C-49.66 26 -50.32 26 -51 26 C-50.54915507 28.58484426 -50.08964737 31.1676329 -49.625 33.75 C-49.49867188 34.47960937 -49.37234375 35.20921875 -49.2421875 35.9609375 C-48.31545078 41.2379345 -48.31545078 41.2379345 -46 46 C-45.34 46.33 -44.68 46.66 -44 47 C-43.67 47.99 -43.34 48.98 -43 50 C-42.01 50.66 -41.02 51.32 -40 52 C-37 54 -37 54 -36 57 C-31.06868476 59.6384107 -26.65191076 60.5309519 -21.0625 60.75 C-20.01352539 60.80401978 -20.01352539 60.80401978 -18.94335938 60.85913086 C-14.15554449 61.06494443 -9.70159002 60.88154813 -5 60 C-9.14903243 64.14903243 -14.88444144 63.3125 -20.3828125 63.3125 C-30.07040059 63.13218956 -36.8755913 60.09784651 -43.953125 53.421875 C-51.33381405 44.68899864 -53.79930667 35.14588751 -53 24 C-51.21393746 13.69230008 -45.46698103 5.98191322 -37 0 C-24.73798551 -7.20077024 -12.6236264 -6.50521138 0 0 Z " transform="translate(197,141)" style="fill: #D43570;"/><path d="M0 0 C6.25786178 5.20043915 12.07950554 10.79207482 17.875 16.5 C18.35743164 16.9635791 18.83986328 17.4271582 19.33691406 17.90478516 C20.75484815 19.26788991 22.15503018 20.64938494 23.5546875 22.03125 C24.38468262 22.84142578 25.21467773 23.65160156 26.06982422 24.48632812 C28.32067086 27.41761032 28.84405009 29.33044189 29 33 C27.375 35.375 27.375 35.375 25 37 C21.66038329 37.48899546 20.36016281 37.24621623 17.54296875 35.3203125 C16.76566406 34.59585938 15.98835938 33.87140625 15.1875 33.125 C14.39730469 32.40570313 13.60710937 31.68640625 12.79296875 30.9453125 C11 29 11 29 11 27 C10.01 26.67 9.02 26.34 8 26 C6.75067633 24.5534147 5.50653994 23.10112929 4.31640625 21.60546875 C2.88039705 19.80040652 2.88039705 19.80040652 0.5625 17.5625 C-2.48484825 14.51515175 -5.2223298 11.29444605 -8 8 C-5.36 5.36 -2.72 2.72 0 0 Z " transform="translate(213,195)" style="fill: #D3346F;"/><path d="M0 0 C1.90234375 0.828125 1.90234375 0.828125 4.65234375 2.328125 C3.40257619 5.98129171 2.98135622 7.10878336 -0.34765625 9.328125 C-1.33765625 8.998125 -2.32765625 8.668125 -3.34765625 8.328125 C-8.06298609 7.78024858 -11.47725907 7.90083911 -15.78515625 10.015625 C-18.56803949 12.52700744 -19.60082511 13.67695055 -20.34765625 17.328125 C-20.330909 21.44794911 -19.86987926 24.4964365 -17.66015625 28.015625 C-17.22703125 28.77875 -16.79390625 29.541875 -16.34765625 30.328125 C-17.09765625 33.015625 -17.09765625 33.015625 -18.34765625 35.328125 C-18.67765625 35.988125 -19.00765625 36.648125 -19.34765625 37.328125 C-23.56906659 35.82047845 -25.15115489 33.11519631 -27.34765625 29.328125 C-29.29465687 23.2053204 -29.43838918 15.93893069 -26.84765625 10.015625 C-21.26140195 0.2497272 -10.54099652 -3.01672446 0 0 Z " transform="translate(184.34765625,148.671875)" style="fill: #FBF1F9;"/><path d="M0 0 C15.84 0 31.68 0 48 0 C48 1.98 48 3.96 48 6 C33.15 6 18.3 6 3 6 C2 3 2 3 3 1 C2.01 0.67 1.02 0.34 0 0 Z " transform="translate(77,185)" style="fill: #FDFDFE;"/><path d="M0 0 C1.98 0.99 1.98 0.99 4 2 C4 2.66 4 3.32 4 4 C5.28003906 3.835 6.56007812 3.67 7.87890625 3.5 C12.91751132 2.93938733 17.87424415 2.92057638 22.9375 3 C24.61321753 3.02544749 26.28900937 3.04650158 27.96484375 3.0625 C28.6930835 3.07410156 29.42132324 3.08570312 30.17163086 3.09765625 C32.09920186 3.11659582 32.09920186 3.11659582 34 2 C34.495 3.485 34.495 3.485 35 5 C35.5775 5.53625 36.155 6.0725 36.75 6.625 C39.93769244 9.98978647 44 15.18807577 44 20 C44.99 20.33 45.98 20.66 47 21 C48.1875 24.5625 48.1875 24.5625 49 28 C49.53625 27.814375 50.0725 27.62875 50.625 27.4375 C53.61990614 26.88580676 56.03745829 27.39402556 59 28 C59 28.66 59 29.32 59 30 C58.01 30.66 57.02 31.32 56 32 C57.98 32.99 59.96 33.98 62 35 C61.505 35.99 61.505 35.99 61 37 C58.98967123 36.36515933 56.99302124 35.6872487 55 35 C54.15695313 34.76667969 53.31390625 34.53335938 52.4453125 34.29296875 C49.70065397 33.421838 47.41612439 32.5738058 45 31 C43.96612452 28.75032245 43.69762167 26.84139715 43.42578125 24.38671875 C42.8034824 20.89841967 41.02660928 18.49471559 39.0234375 15.62890625 C38 14 38 14 38 12 C37.484375 11.7525 36.96875 11.505 36.4375 11.25 C34 10 34 10 31.125 7.875 C25.70366423 4.73509403 19.03360072 5.23107959 13 6 C10.99185126 6.98353374 8.99030921 7.98084876 7 9 C4 8 4 8 2.83203125 6.15234375 C2.49558594 5.42144531 2.15914062 4.69054687 1.8125 3.9375 C1.46832031 3.20402344 1.12414062 2.47054687 0.76953125 1.71484375 C0.51558594 1.14894531 0.26164063 0.58304687 0 0 Z " transform="translate(173,84)" style="fill: #CF4477;"/><path d="M0 0 C3.82745739 1.47829138 7.46802025 3.72332033 10 7 C10 7.66 10 8.32 10 9 C9.01 9 8.02 9 7 9 C7 9.66 7 10.32 7 11 C4.7252187 12.38111722 3.49828639 13.05694702 0.8125 12.75 C-1 12 -1 12 -2 10 C-2.639375 9.855625 -3.27875 9.71125 -3.9375 9.5625 C-6 9 -6 9 -8 6 C-8.61875 6.495 -9.2375 6.99 -9.875 7.5 C-12 9 -12 9 -14 9 C-14.33 10.32 -14.66 11.64 -15 13 C-18.34252724 13.07427838 -20.8035914 13.06546953 -24 12 C-24 10 -24 10 -22 8 C-21.2575 7.731875 -20.515 7.46375 -19.75 7.1875 C-16.20184143 5.65534062 -13.91981139 3.5305032 -11 1 C-7.52209305 -0.73895348 -3.80257834 -0.4605414 0 0 Z " transform="translate(197,97)" style="fill: #DF3372;"/><path d="M0 0 C1.04274021 3.20063314 0.90361734 5.15586321 0 8.375 C-0.96814222 12.27962655 -0.8302022 15.03347836 0 19 C-0.4375 21.375 -0.4375 21.375 -1 23 C-0.67 23 -0.34 23 0 23 C0.33 25.64 0.66 28.28 1 31 C4.07322544 31.91058531 6.80097361 32.08886184 10 32 C10.08226668 35.04386724 9.97608217 37.07175348 9 40 C11.97 40 14.94 40 18 40 C18.33 42.31 18.66 44.62 19 47 C14.88577839 47.61713324 12.42195813 46.97297931 9.0625 44.6875 C2.62079258 39.48220475 -1.87111372 31.96062216 -4 24 C-4.72186943 16.00318665 -4.51242429 8.3342331 -1 1 C-0.67 0.67 -0.34 0.34 0 0 Z " transform="translate(62,136)" style="fill: #BC3369;"/><path d="M0 0 C3.55780196 0.60990891 6.6828589 1.5783681 10 3 C10.33 2.34 10.66 1.68 11 1 C11.33 1.33 11.66 1.66 12 2 C12.33 1.34 12.66 0.68 13 0 C13.66 0.33 14.32 0.66 15 1 C15 1.66 15 2.32 15 3 C15.94875 2.814375 16.8975 2.62875 17.875 2.4375 C21 2 21 2 23 3 C25.50338027 7.33277355 26 10.02372182 26 15 C26.31478446 16.33783393 26.64587656 17.67203709 27 19 C25.68 19.33 24.36 19.66 23 20 C22.29037109 19.02160156 22.29037109 19.02160156 21.56640625 18.0234375 C15.52175662 10.03460231 9.02842402 5.16696493 0 1 C0 0.67 0 0.34 0 0 Z " transform="translate(149,64)" style="fill: #E13374;"/><path d="M0 0 C-1.578076 0.84324672 -3.1627042 1.67423918 -4.75 2.5 C-5.63171875 2.9640625 -6.5134375 3.428125 -7.421875 3.90625 C-10 5 -10 5 -14 5 C-14.268125 5.639375 -14.53625 6.27875 -14.8125 6.9375 C-16 9 -16 9 -19 10 C-19 10.99 -19 11.98 -19 13 C-17.35 13.33 -15.7 13.66 -14 14 C-17.26720791 18.38894929 -20.54898478 22.75259665 -24 27 C-23.39009109 23.44219804 -22.4216319 20.3171411 -21 17 C-23.51083114 18.25541557 -23.87125446 19.50063488 -25 22 C-25.99 21.67 -26.98 21.34 -28 21 C-28 22.65 -28 24.3 -28 26 C-28.66 26 -29.32 26 -30 26 C-30.66 27.98 -31.32 29.96 -32 32 C-33.06420545 29.29461024 -33.04564409 28.13534466 -32.1015625 25.3359375 C-26.68265456 14.46945016 -20.25338331 6.04537653 -9 1 C-8.071875 0.54625 -7.14375 0.0925 -6.1875 -0.375 C-3.6729891 -1.09343169 -2.46461912 -0.71303446 0 0 Z " transform="translate(170,130)" style="fill: #FDEDF7;"/><path d="M0 0 C6.25787966 -0.36103152 6.25787966 -0.36103152 9.3125 1.125 C11.48993358 3.54437065 12.1690807 5.88405261 13 9 C13.66 8.67 14.32 8.34 15 8 C15.50377768 10.26999825 16.00290019 12.54103003 16.5 14.8125 C16.7784375 16.07707031 17.056875 17.34164062 17.34375 18.64453125 C18 22 18 22 18 25 C15 25 15 25 13.4375 23.9375 C12 22 12 22 11.1875 18.8125 C9.08067695 12.04848917 4.76873691 7.07204958 -1 3 C-0.67 2.01 -0.34 1.02 0 0 Z " transform="translate(199,94)" style="fill: #FCF4FB;"/><path d="M0 0 C1.32 0 2.64 0 4 0 C4.495 0.99 4.495 0.99 5 2 C6.97522846 3.04808041 8.97481509 4.0520411 11 5 C9.85546875 6.58203125 9.85546875 6.58203125 8 8 C5.42578125 7.63671875 5.42578125 7.63671875 2.3125 6.6875 C-10.51522463 3.40565721 -21.62092765 4.37892939 -34 9 C-35.99813784 9.67222735 -37.99763602 10.34046765 -40 11 C-40 10.01 -40 9.02 -40 8 C-39.38125 7.7525 -38.7625 7.505 -38.125 7.25 C-35.83651402 6.19908097 -35.83651402 6.19908097 -35.2109375 3.97265625 C-34 2 -34 2 -31.46875 1.35546875 C-30.4890625 1.30003906 -29.509375 1.24460938 -28.5 1.1875 C-27.03046875 1.08501953 -27.03046875 1.08501953 -25.53125 0.98046875 C-23 1 -23 1 -21 2 C-19.40552536 2.08400529 -17.80759455 2.10727467 -16.2109375 2.09765625 C-14.79941406 2.09282227 -14.79941406 2.09282227 -13.359375 2.08789062 C-11.88210937 2.07532227 -11.88210937 2.07532227 -10.375 2.0625 C-8.88613281 2.05573242 -8.88613281 2.05573242 -7.3671875 2.04882812 C-4.9113984 2.03702145 -2.45572896 2.020554 0 2 C0 1.34 0 0.68 0 0 Z " transform="translate(141,56)" style="fill: #D33D74;"/><path d="M0 0 C0.85696068 3.31262111 1.46228519 6.62007831 2 10 C1.34 10 0.68 10 0 10 C0.45084493 12.58484426 0.91035263 15.1676329 1.375 17.75 C1.50132812 18.47960937 1.62765625 19.20921875 1.7578125 19.9609375 C2.68454922 25.2379345 2.68454922 25.2379345 5 30 C5.66 30.33 6.32 30.66 7 31 C7.33 31.99 7.66 32.98 8 34 C8.99 34.66 9.98 35.32 11 36 C14 38 14 38 15 41 C19.93131524 43.6384107 24.34808924 44.5309519 29.9375 44.75 C30.63681641 44.78601318 31.33613281 44.82202637 32.05664062 44.85913086 C36.84445551 45.06494443 41.29840998 44.88154813 46 44 C41.85096757 48.14903243 36.11555856 47.3125 30.6171875 47.3125 C20.92959941 47.13218956 14.1244087 44.09784651 7.046875 37.421875 C-0.39412438 28.61763909 -2.66246926 19.2003524 -2 8 C-1.50301178 5.23847416 -0.81279982 2.6923994 0 0 Z " transform="translate(146,157)" style="fill: #BE3F6E;"/><path d="M0 0 C0.68707031 0.61359375 1.37414062 1.2271875 2.08203125 1.859375 C0.43203125 1.859375 -1.21796875 1.859375 -2.91796875 1.859375 C-2.42296875 2.849375 -2.42296875 2.849375 -1.91796875 3.859375 C-2.90796875 3.859375 -3.89796875 3.859375 -4.91796875 3.859375 C-4.91796875 3.199375 -4.91796875 2.539375 -4.91796875 1.859375 C-5.90796875 1.859375 -6.89796875 1.859375 -7.91796875 1.859375 C-7.91796875 1.199375 -7.91796875 0.539375 -7.91796875 -0.140625 C-7.25796875 -0.140625 -6.59796875 -0.140625 -5.91796875 -0.140625 C-5.91796875 -0.800625 -5.91796875 -1.460625 -5.91796875 -2.140625 C-16.38183964 -3.66264258 -26.393778 -2.97896736 -36.91796875 -2.140625 C-36.91796875 -1.150625 -36.91796875 -0.160625 -36.91796875 0.859375 C-37.57796875 0.859375 -38.23796875 0.859375 -38.91796875 0.859375 C-38.91796875 1.519375 -38.91796875 2.179375 -38.91796875 2.859375 C-39.84609375 2.776875 -40.77421875 2.694375 -41.73046875 2.609375 C-44.93759588 2.50605957 -44.93759588 2.50605957 -46.54296875 4.546875 C-46.99671875 5.31 -47.45046875 6.073125 -47.91796875 6.859375 C-49.24666733 8.52973893 -50.57901243 10.19722232 -51.91796875 11.859375 C-53.23796875 11.529375 -54.55796875 11.199375 -55.91796875 10.859375 C-49.45369029 2.0248611 -40.6151021 -3.30000616 -30.04296875 -5.828125 C-19.75828325 -6.85659355 -8.6402387 -6.33848836 0 0 Z " transform="translate(149.91796875,74.140625)" style="fill: #C84878;"/><path d="M0 0 C0.33 0.66 0.66 1.32 1 2 C1.66 2 2.32 2 3 2 C3.94152471 6.39378197 3.73201859 9.60788848 3 14 C3.2475 14.94875 3.495 15.8975 3.75 16.875 C4.12469845 21.5587306 1.69649975 24.32380311 -1 28 C-1.99 27.67 -2.98 27.34 -4 27 C-4.12375 27.5775 -4.2475 28.155 -4.375 28.75 C-5 31 -5 31 -6.0625 33.0625 C-7.21778046 35.09134681 -7.21778046 35.09134681 -7 38 C-9.31 38 -11.62 38 -14 38 C-12.700625 36.63875 -12.700625 36.63875 -11.375 35.25 C-4.09486175 26.77667995 -1.15239704 17.61521197 -0.4375 6.6875 C-0.35371094 5.43324219 -0.26992187 4.17898437 -0.18359375 2.88671875 C-0.12300781 1.93410156 -0.06242188 0.98148438 0 0 Z " transform="translate(250,146)" style="fill: #D33D73;"/><path d="M0 0 C0.66 0.680625 1.32 1.36125 2 2.0625 C2.99521345 3.04653128 3.9958463 4.02509349 5 5 C5.59296875 5.5775 6.1859375 6.155 6.796875 6.75 C7.44140625 7.348125 8.0859375 7.94625 8.75 8.5625 C9.34296875 9.12066406 9.9359375 9.67882812 10.546875 10.25390625 C17.89917871 15.48715427 24.7125023 16.5987284 33.59765625 16.609375 C34.67252792 16.62591125 35.7473996 16.64244751 36.85484314 16.65948486 C40.25745499 16.70771834 43.65962069 16.72928158 47.0625 16.75 C49.38218361 16.7781802 51.70184665 16.80811046 54.02148438 16.83984375 C59.68090924 16.91347051 65.34020992 16.96525705 71 17 C71 17.33 71 17.66 71 18 C63.29539339 18.07620909 55.5908844 18.12866692 47.88598633 18.16479492 C45.26615771 18.17985979 42.64635422 18.20031554 40.02661133 18.22631836 C36.25595895 18.26280162 32.48564074 18.27974988 28.71484375 18.29296875 C27.54791489 18.30845261 26.38098602 18.32393646 25.17869568 18.33988953 C18.99217732 18.3411632 14.46222397 17.99162867 9 15 C9 14.01 9 13.02 9 12 C5.79552584 9.65405228 5.79552584 9.65405228 2 9 C1.34 6.03 0.68 3.06 0 0 Z " transform="translate(55,175)" style="fill: #B53466;"/><path d="M0 0 C0.66 0.99 1.32 1.98 2 3 C1.67 3.66 1.34 4.32 1 5 C0.34 5 -0.32 5 -1 5 C-1.33 6.65 -1.66 8.3 -2 10 C2.43379675 7.78310162 4.46636932 5.22271781 7 1 C7.66 1.33 8.32 1.66 9 2 C5.53907991 8.5392259 1.07921289 13.71950553 -5 18 C-5.99 18 -6.98 18 -8 18 C-11 13.77777778 -11 13.77777778 -11 11 C-7.53846154 8 -7.53846154 8 -5 8 C-4.67 7.01 -4.34 6.02 -4 5 C-3.34 5 -2.68 5 -2 5 C-1.34 3.35 -0.68 1.7 0 0 Z " transform="translate(238,168)" style="fill: #F8F1F8;"/><path d="M0 0 C0.99 0.33 1.98 0.66 3 1 C2.62488281 1.4846875 2.24976563 1.969375 1.86328125 2.46875 C-7.66195233 14.94512647 -13.14283243 25.90138481 -11 42 C-9.07869798 49.17438573 -5.94017526 55.72490606 -2 62 C-3.32 62 -4.64 62 -6 62 C-8.56771603 58.69865082 -9 57.27125508 -9 53 C-9.66 53 -10.32 53 -11 53 C-14.09267137 41.2091904 -15.57559776 25.26882416 -10 14 C-7.9375 11.1875 -7.9375 11.1875 -6 9 C-5.67 8.154375 -5.34 7.30875 -5 6.4375 C-3.82984899 3.58525691 -2.27234909 2.04511418 0 0 Z " transform="translate(148,136)" style="fill: #BF3C6B;"/><path d="M0 0 C0.99928333 2.698065 1.03624754 3.88010429 0.1875 6.6875 C-1 9 -1 9 -3 10 C-3.72693904 11.97888961 -4.39816251 13.97954558 -5 16 C-3.68 16.33 -2.36 16.66 -1 17 C-1.66 17.99 -2.32 18.98 -3 20 C-0.69 22.31 1.62 24.62 4 27 C2.68 27.33 1.36 27.66 0 28 C0 27.01 0 26.02 0 25 C-1.134375 24.87625 -2.26875 24.7525 -3.4375 24.625 C-4.613125 24.41875 -5.78875 24.2125 -7 24 C-7.33 23.34 -7.66 22.68 -8 22 C-7.34 22 -6.68 22 -6 22 C-6.11306697 20.04105639 -6.11306697 20.04105639 -7 18 C-9.49034386 16.70339566 -9.49034386 16.70339566 -12 16 C-9.93629962 13.32483285 -7.88941312 10.8948076 -5.4375 8.5625 C-2.88219261 5.87615121 -1.49070284 3.37369591 0 0 Z M-10 24 C-9.01 24 -8.02 24 -7 24 C-7.33 25.32 -7.66 26.64 -8 28 C-8.66 26.68 -9.32 25.36 -10 24 Z " transform="translate(209,184)" style="fill: #FBE4F1;"/><path d="M0 0 C14.62312797 -0.48985664 24.89840306 0.8853671 37 10 C37.495 10.99 37.495 10.99 38 12 C36.35 12 34.7 12 33 12 C32.505 11.01 32.505 11.01 32 10 C29.09883783 10.82890081 29.09883783 10.82890081 27.171875 12.1796875 C24.01404993 13.37239121 22.32213394 12.36848278 19.25 11.125 C18.26515625 10.73570312 17.2803125 10.34640625 16.265625 9.9453125 C15.51796875 9.63335937 14.7703125 9.32140625 14 9 C14.33 8.34 14.66 7.68 15 7 C17.97 7.495 17.97 7.495 21 8 C21 8.66 21 9.32 21 10 C22.65 9.34 24.3 8.68 26 8 C23.49738139 4.89675293 22.31941902 4.0595527 18.3125 3.3125 C17.219375 3.209375 16.12625 3.10625 15 3 C14.67 2.67 14.34 2.34 14 2 C11.65012738 1.76472227 9.29443961 1.58613583 6.9375 1.4375 C5.64714844 1.35371094 4.35679687 1.26992187 3.02734375 1.18359375 C1.52880859 1.09271484 1.52880859 1.09271484 0 1 C0 0.67 0 0.34 0 0 Z " transform="translate(170,128)" style="fill: #FCE4F2;"/><path d="M0 0 C3 0 3 0 4.4296875 1.35546875 C4.90664062 1.96003906 5.38359375 2.56460938 5.875 3.1875 C8.39091319 6.3427026 11.12877104 9.17247517 14 12 C15.4762095 13.47431072 16.95136791 14.94967424 18.42578125 16.42578125 C19.22177734 17.22177734 20.01777344 18.01777344 20.83789062 18.83789062 C24.55859375 22.55859375 28.27929688 26.27929688 32 30 C31.01 30.66 30.02 31.32 29 32 C26.3125 31.125 26.3125 31.125 24 30 C24.99 29.67 25.98 29.34 27 29 C22.7388113 23.20282877 22.7388113 23.20282877 16.5625 20 C15.716875 20 14.87125 20 14 20 C13.67 20.66 13.34 21.32 13 22 C12 21 12 21 11.90234375 18.93359375 C11.91394531 18.10988281 11.92554688 17.28617188 11.9375 16.4375 C11.94652344 15.61121094 11.95554688 14.78492188 11.96484375 13.93359375 C11.97644531 13.29550781 11.98804688 12.65742188 12 12 C11.34 12 10.68 12 10 12 C8.72469089 10.52848949 7.4542426 9.05137753 6.2421875 7.52734375 C4.97110001 5.9021389 4.97110001 5.9021389 3.1875 4.25 C2 3 2 3 2 1 C1.34 0.67 0.68 0.34 0 0 Z " transform="translate(196,208)" style="fill: #C8336A;"/><path d="M0 0 C1.875 0.125 1.875 0.125 4 1 C5.25 4.0625 5.25 4.0625 6 7 C4.94039062 6.76603516 4.94039062 6.76603516 3.859375 6.52734375 C-3.21018592 5.22353129 -9.76876694 4.6640217 -16 8.6875 C-19.17259737 11.11157168 -21.74940369 13.67303155 -24 17 C-23.22505408 11.96285155 -20.2360999 8.30673418 -16.8125 4.6875 C-12.12506339 1.87503803 -7.28243524 1.67393782 -1.9375 2.4375 C-1.298125 2.623125 -0.65875 2.80875 0 3 C0 2.01 0 1.02 0 0 Z " transform="translate(181,143)" style="fill: #CD366F;"/><path d="M0 0 C3.66881155 0.70554068 6.70450534 2.27735506 10 4 C10 5.98 10 7.96 10 10 C7.9375 10.875 7.9375 10.875 5 11 C2.40994275 9.26080867 0.20875121 7.19602066 -2 5 C-1.34 3.35 -0.68 1.7 0 0 Z " transform="translate(199,137)" style="fill: #F9F5FC;"/><path d="M0 0 C3.96718409 2.92614997 6.80874641 6.0520086 9.75 10 C10.52859375 11.03125 11.3071875 12.0625 12.109375 13.125 C14.82876712 17.26027397 14.82876712 17.26027397 15 20 C14.34 20.66 13.68 21.32 13 22 C12.896875 21.236875 12.79375 20.47375 12.6875 19.6875 C11.95635961 16.82940576 11.23048087 15.84257115 9 14 C7.02 14.66 5.04 15.32 3 16 C1.35 13.69 -0.3 11.38 -2 9 C-1.01 8.67 -0.02 8.34 1 8 C1.33 8.66 1.66 9.32 2 10 C2.99 10 3.98 10 5 10 C4.34 8.02 3.68 6.04 3 4 C2.34 4 1.68 4 1 4 C0.67 2.68 0.34 1.36 0 0 Z " transform="translate(163,73)" style="fill: #FDE3F2;"/><path d="M0 0 C4.48675899 3.64629982 8.73098066 7.19862785 12 12 C11.8125 14.875 11.8125 14.875 11 17 C10.01 15.68 9.02 14.36 8 13 C7.01 13.99 6.02 14.98 5 16 C4.67 15.01 4.34 14.02 4 13 C3.01 12.67 2.02 12.34 1 12 C1.52268466 9.23723823 2.10869587 6.6739124 3 4 C2.34 4 1.68 4 1 4 C0.67 2.68 0.34 1.36 0 0 Z " transform="translate(230,212)" style="fill: #D63773;"/><path d="M0 0 C1.98 0.99 1.98 0.99 4 2 C4 2.66 4 3.32 4 4 C5.2375 3.835 6.475 3.67 7.75 3.5 C13.4525566 2.87444133 19.27825962 2.47334995 25 3 C25.66 3.66 26.32 4.32 27 5 C26.05898437 5.03738281 25.11796875 5.07476562 24.1484375 5.11328125 C22.28058594 5.21189453 22.28058594 5.21189453 20.375 5.3125 C18.53035156 5.39951172 18.53035156 5.39951172 16.6484375 5.48828125 C12.84974629 6.02107413 10.3806275 7.27093981 7 9 C4 8 4 8 2.83203125 6.15234375 C2.49558594 5.42144531 2.15914062 4.69054687 1.8125 3.9375 C1.46832031 3.20402344 1.12414062 2.47054687 0.76953125 1.71484375 C0.51558594 1.14894531 0.26164063 0.58304687 0 0 Z " transform="translate(173,84)" style="fill: #C74B77;"/><path d="M0 0 C3.85025879 0.60355408 6.86101159 1.76772603 10.3125 3.5625 C11.19550781 4.01753906 12.07851562 4.47257812 12.98828125 4.94140625 C13.65214844 5.29074219 14.31601563 5.64007813 15 6 C15 6.66 15 7.32 15 8 C15.66 8 16.32 8 17 8 C21 12.47058824 21 12.47058824 21 15 C21.66 15 22.32 15 23 15 C23 14.34 23 13.68 23 13 C23.99 13.33 24.98 13.66 26 14 C26 14.33 26 14.66 26 15 C26.32380126 16.33568021 26.65657551 17.66923011 27 19 C25.68 19.33 24.36 19.66 23 20 C22.29037109 19.02160156 22.29037109 19.02160156 21.56640625 18.0234375 C15.52175662 10.03460231 9.02842402 5.16696493 0 1 C0 0.67 0 0.34 0 0 Z " transform="translate(149,64)" style="fill: #D54379;"/><path d="M0 0 C-1.578076 0.84324672 -3.1627042 1.67423918 -4.75 2.5 C-5.63171875 2.9640625 -6.5134375 3.428125 -7.421875 3.90625 C-10 5 -10 5 -14 5 C-14.268125 5.639375 -14.53625 6.27875 -14.8125 6.9375 C-16 9 -16 9 -19 10 C-20.20882096 12.00016466 -20.20882096 12.00016466 -21 14 C-22.32 13.67 -23.64 13.34 -25 13 C-20.23054833 7.67845746 -15.42596548 4.11011889 -9 1 C-8.071875 0.54625 -7.14375 0.0925 -6.1875 -0.375 C-3.6729891 -1.09343169 -2.46461912 -0.71303446 0 0 Z " transform="translate(170,130)" style="fill: #FEDFF1;"/><path d="M0 0 C0.66 0 1.32 0 2 0 C1.938125 1.010625 1.87625 2.02125 1.8125 3.0625 C2.02838773 7.59614239 3.05438035 9.95311113 5 14 C5.33 14.99 5.66 15.98 6 17 C4.5625 19.6875 4.5625 19.6875 3 22 C-0.875 20.25 -0.875 20.25 -2 18 C-0.68 17.67 0.64 17.34 2 17 C1.24849977 13.72226496 1.24849977 13.72226496 -2 12 C-1.67 11.67 -1.34 11.34 -1 11 C-0.92811529 8.70418219 -1.00353568 6.42482931 -1.0625 4.12890625 C-1 2 -1 2 0 0 Z " transform="translate(162,164)" style="fill: #FCDEF0;"/><path d="M0 0 C1.9375 0.75 1.9375 0.75 4 2 C4.75 4.125 4.75 4.125 5 6 C5.66 6 6.32 6 7 6 C8.6875 7.8125 8.6875 7.8125 10 10 C9.67 10.99 9.34 11.98 9 13 C7.68 12.67 6.36 12.34 5 12 C5 11.34 5 10.68 5 10 C4.34 10 3.68 10 3 10 C-0.22265625 4.82421875 -0.22265625 4.82421875 -1 3 C-0.67 2.01 -0.34 1.02 0 0 Z " transform="translate(159,71)" style="fill: #F8FAFD;"/><path d="M0 0 C3.22914286 3.22914286 3.10699749 7.62652521 3.828125 12.03125 C4.70777099 15.26161292 4.70777099 15.26161292 7.8359375 16.3046875 C8.88007813 16.53414062 9.92421875 16.76359375 11 17 C13.67641439 17.97568284 16.33633453 18.98964413 19 20 C19 20.99 19 21.98 19 23 C18.34 23 17.68 23 17 23 C16.67 22.34 16.34 21.68 16 21 C14.0534726 20.54968396 12.09179542 20.16388192 10.125 19.8125 C4.29856073 18.40945472 4.29856073 18.40945472 1.8125 15 C0.48030294 10.16037786 0.26188841 4.99394097 0 0 Z " transform="translate(207,106)" style="fill: #C34370;"/><path d="M0 0 C1.75 0.0625 1.75 0.0625 4 1 C8.12771037 5.79706881 8.20082061 9.16410896 7.75 15.4375 C7.5216511 17.62736598 7.27868358 19.81596893 7 22 C4.69 22.66 2.38 23.32 0 24 C0.639375 23.175 1.27875 22.35 1.9375 21.5 C4.35810839 17.82586226 5.23775126 14.39839839 5 10 C3.961548 6.27640784 2.14169228 3.21253841 0 0 Z " transform="translate(244,214)" style="fill: #C64675;"/><path d="M0 0 C1.65 0.33 3.3 0.66 5 1 C5.12375 1.639375 5.2475 2.27875 5.375 2.9375 C5.684375 3.9584375 5.684375 3.9584375 6 5 C6.66 5.33 7.32 5.66 8 6 C8 7.65 8 9.3 8 11 C7.401875 10.690625 6.80375 10.38125 6.1875 10.0625 C3.91043228 8.89790296 3.91043228 8.89790296 1 8 C-0.60769874 5.66883683 -1.09530596 4.57183574 -0.625 1.75 C-0.41875 1.1725 -0.2125 0.595 0 0 Z " transform="translate(217,220)" style="fill: #F6FBFD;"/><path d="M0 0 C5.29012124 4.40843437 10.18808428 9.07559794 15 14 C14.01 14.66 13.02 15.32 12 16 C11.4225 15.21625 10.845 14.4325 10.25 13.625 C8.17102363 11.19952756 6.90959667 10.14305583 4 9 C4 8.34 4 7.68 4 7 C2.68 6.67 1.36 6.34 0 6 C0 4.02 0 2.04 0 0 Z " transform="translate(231,202)" style="fill: #FDEAF6;"/><path d="M0 0 C1.33897583 0.95043374 2.67105427 1.91059147 4 2.875 C5.11375 3.67550781 5.11375 3.67550781 6.25 4.4921875 C6.8275 4.98976562 7.405 5.48734375 8 6 C8 6.66 8 7.32 8 8 C8.99 8 9.98 8 11 8 C11 10.31 11 12.62 11 15 C7.125 12.375 7.125 12.375 6 9 C2.49705129 7.28432339 2.49705129 7.28432339 -1 6 C-0.67 4.02 -0.34 2.04 0 0 Z " transform="translate(218,192)" style="fill: #F7FCFC;"/><path d="M0 0 C0.66 0 1.32 0 2 0 C2 0.66 2 1.32 2 2 C3.32 1.67 4.64 1.34 6 1 C7.88695626 5.28853694 9.58192622 9.52761347 11 14 C9.02 14.99 9.02 14.99 7 16 C6.74605469 15.26394531 6.49210938 14.52789062 6.23046875 13.76953125 C5.88628906 12.79371094 5.54210937 11.81789062 5.1875 10.8125 C4.85105469 9.84957031 4.51460937 8.88664063 4.16796875 7.89453125 C3.02037599 5.05049702 1.64692326 2.58128088 0 0 Z " transform="translate(212,144)" style="fill: #CE3A71;"/><path d="M0 0 C0.33 0 0.66 0 1 0 C1.16488152 4.28691958 1.24795152 7.29749162 -1 11 C-1.33 11.99 -1.66 12.98 -2 14 C-3.65 14 -5.3 14 -7 14 C-6.25 8.25 -6.25 8.25 -4 6 C-3.30251417 4.68252676 -2.63040043 3.35085807 -2 2 C-1.34 2 -0.68 2 0 2 C0 1.34 0 0.68 0 0 Z " transform="translate(211,186)" style="fill: #F9FAFD;"/><path d="M0 0 C8.69158672 -0.4974517 16.16000512 -0.08389977 24 4 C25.8046875 5.63671875 25.8046875 5.63671875 27 7 C25.35 7 23.7 7 22 7 C22.33 7.66 22.66 8.32 23 9 C22.01 9 21.02 9 20 9 C20 8.34 20 7.68 20 7 C19.01 7 18.02 7 17 7 C17 6.34 17 5.68 17 5 C17.66 5 18.32 5 19 5 C19 4.34 19 3.68 19 3 C12.30324864 1.96973056 5.7685324 1.89847201 -1 2 C-0.67 1.34 -0.34 0.68 0 0 Z " transform="translate(125,69)" style="fill: #CE3D72;"/><path d="M0 0 C0.66 0 1.32 0 2 0 C1.96519531 0.90621094 1.93039063 1.81242188 1.89453125 2.74609375 C1.72795329 10.24210213 2.12789557 16.05908097 5 23 C3.35 23 1.7 23 0 23 C0.33 20.69 0.66 18.38 1 16 C0.34 16 -0.32 16 -1 16 C-1 16.66 -1 17.32 -1 18 C-1.99 18.33 -2.98 18.66 -4 19 C-4 17.68 -4 16.36 -4 15 C-3.34 15 -2.68 15 -2 15 C-0.9458482 11.83754459 -0.68724328 9.13051782 -0.4375 5.8125 C-0.35371094 4.72582031 -0.26992187 3.63914063 -0.18359375 2.51953125 C-0.12300781 1.68808594 -0.06242188 0.85664063 0 0 Z " transform="translate(155,160)" style="fill: #CB4073;"/><path d="M0 0 C1.32 0 2.64 0 4 0 C2.63784659 4.58178876 0.98513532 5.60891881 -3 8 C-4.34689915 10.57099402 -4.34689915 10.57099402 -5 13 C-5.33 11.68 -5.66 10.36 -6 9 C-6.99 9.33 -7.98 9.66 -9 10 C-8.34 8.35 -7.68 6.7 -7 5 C-3.535 4.505 -3.535 4.505 0 4 C0 2.68 0 1.36 0 0 Z " transform="translate(166,152)" style="fill: #F1F5F7;"/><path d="M0 0 C-0.30744141 0.90492188 -0.30744141 0.90492188 -0.62109375 1.828125 C-0.89050781 2.62734375 -1.15992188 3.4265625 -1.4375 4.25 C-1.70433594 5.03890625 -1.97117187 5.8278125 -2.24609375 6.640625 C-3.46851657 10.46623838 -4.12351622 13.73147044 -4.09765625 17.765625 C-4.09443359 18.65507812 -4.09121094 19.54453125 -4.08789062 20.4609375 C-4.07951172 21.38132813 -4.07113281 22.30171875 -4.0625 23.25 C-4.05798828 24.18585938 -4.05347656 25.12171875 -4.04882812 26.0859375 C-4.03706918 28.39069041 -4.02063426 30.69531227 -4 33 C-4.66 33 -5.32 33 -6 33 C-8.05049132 9.84814758 -8.05049132 9.84814758 -3 1 C-2 0 -2 0 0 0 Z " transform="translate(55,131)" style="fill: #B53767;"/><path d="M0 0 C2.52408421 2.52408421 3.16305643 4.83342688 4.375 8.1875 C6.21973343 13.12503578 8.20134574 17.54288396 11 22 C9.68 22 8.36 22 7 22 C4.43228397 18.69865082 4 17.27125508 4 13 C3.34 13 2.68 13 2 13 C1.34 8.71 0.68 4.42 0 0 Z " transform="translate(135,176)" style="fill: #C34473;"/><path d="M0 0 C1.134375 0.020625 2.26875 0.04125 3.4375 0.0625 C3.480221 1.72861905 3.47813832 3.39632885 3.4375 5.0625 C2.4375 6.0625 2.4375 6.0625 -1.4375 6.3125 C-5.26575694 6.2850573 -5.26575694 6.2850573 -7.5625 4.5625 C-7.8925 4.0675 -8.2225 3.5725 -8.5625 3.0625 C-7.923125 2.753125 -7.28375 2.44375 -6.625 2.125 C-2.58814103 0.04540598 -2.58814103 0.04540598 0 0 Z " transform="translate(141.5625,62.9375)" style="fill: #FBFBFD;"/><path d="M0 0 C0.66 0 1.32 0 2 0 C1.66984032 3.27699137 1.27827088 6.5437655 0.875 9.8125 C0.7821875 10.74126953 0.689375 11.67003906 0.59375 12.62695312 C0.25647009 15.22213465 -0.10859183 17.53815037 -1 20 C-3.83028443 22.02110389 -5.52203234 23 -9 23 C-9 22.34 -9 21.68 -9 21 C-7.02 20.34 -5.04 19.68 -3 19 C-2.67 14.05 -2.34 9.1 -2 4 C-1.34 4 -0.68 4 0 4 C0 2.68 0 1.36 0 0 Z " transform="translate(77,96)" style="fill: #BA416B;"/><path d="M0 0 C4.0640371 3.47822995 5.99144763 7.51540503 8.25 12.25 C8.61351562 12.99507812 8.97703125 13.74015625 9.3515625 14.5078125 C10.24172145 16.33498087 11.1218739 18.16701834 12 20 C10.68 20.33 9.36 20.66 8 21 C7.73445312 20.18015625 7.46890625 19.3603125 7.1953125 18.515625 C6.84210938 17.43796875 6.48890625 16.3603125 6.125 15.25 C5.60292969 13.64898437 5.60292969 13.64898437 5.0703125 12.015625 C3.59235479 7.14272498 3.59235479 7.14272498 0 4 C0 2.68 0 1.36 0 0 Z " transform="translate(163,85)" style="fill: #C64D7A;"/><path d="M0 0 C2.31 0.33 4.62 0.66 7 1 C7 1.99 7 2.98 7 4 C8.65 4.33 10.3 4.66 12 5 C9.42786866 6.61949011 8.32330841 7.04408751 5.25 6.625 C4.5075 6.41875 3.765 6.2125 3 6 C3 5.34 3 4.68 3 4 C2.01 4 1.02 4 0 4 C0 2.68 0 1.36 0 0 Z " transform="translate(202,208)" style="fill: #F9FAFC;"/><path d="M0 0 C1.37562854 1.28965176 2.70766393 2.62689293 4 4 C4 4.66 4 5.32 4 6 C5.98 5.34 7.96 4.68 10 4 C9.34 5.32 8.68 6.64 8 8 C7.34 8 6.68 8 6 8 C6 8.66 6 9.32 6 10 C6.66 10.33 7.32 10.66 8 11 C7.34 11 6.68 11 6 11 C5.67 11.66 5.34 12.32 5 13 C4.67 11.35 4.34 9.7 4 8 C2.68 7.67 1.36 7.34 0 7 C0 4.69 0 2.38 0 0 Z " transform="translate(226,180)" style="fill: #D83A77;"/><path d="M0 0 C0.77085937 -0.01417969 1.54171875 -0.02835937 2.3359375 -0.04296875 C4.84334888 0.20948393 6.45761902 0.93556533 8.625 2.1875 C8.625 2.5175 8.625 2.8475 8.625 3.1875 C6.76875 3.1565625 6.76875 3.1565625 4.875 3.125 C1.93433903 3.125 -0.55236072 3.3115085 -3.375 4.1875 C-6.16401734 4.79972332 -8.50804555 5.1875 -11.375 5.1875 C-5.06772412 0.04209073 -5.06772412 0.04209073 0 0 Z " transform="translate(192.375,96.8125)" style="fill: #C64574;"/><path d="M0 0 C0.33 2.31 0.66 4.62 1 7 C-4.625 7.25 -4.625 7.25 -8 5 C-8 3.68 -8 2.36 -8 1 C-2.25 0 -2.25 0 0 0 Z " transform="translate(80,176)" style="fill: #CC2767;"/><path d="M0 0 C2.31 0.66 4.62 1.32 7 2 C7.103125 2.639375 7.20625 3.27875 7.3125 3.9375 C7.539375 4.618125 7.76625 5.29875 8 6 C8.99 6.33 9.98 6.66 11 7 C11.6875 9.0625 11.6875 9.0625 12 11 C12.66 11 13.32 11 14 11 C13.67 11.99 13.34 12.98 13 14 C10.83031809 11.85714108 8.66416525 9.71091768 6.5 7.5625 C5.87996094 6.95083984 5.25992188 6.33917969 4.62109375 5.70898438 C4.03457031 5.12568359 3.44804687 4.54238281 2.84375 3.94140625 C2.02680664 3.13231812 2.02680664 3.13231812 1.19335938 2.30688477 C0 1 0 1 0 0 Z " transform="translate(217,198)" style="fill: #FEE6F3;"/><path d="M0 0 C0 0.66 0 1.32 0 2 C-0.99 2.66 -1.98 3.32 -3 4 C-1.02 4.99 0.96 5.98 3 7 C2.67 7.66 2.34 8.32 2 9 C-3.04523873 7.70935753 -5.45256149 5.73919195 -9 2 C-9.99 1.67 -10.98 1.34 -12 1 C-7.67265609 -1.22923777 -4.71599818 -0.92470553 0 0 Z " transform="translate(232,112)" style="fill: #DE3F7A;"/><path d="M0 0 C0.33 0.66 0.66 1.32 1 2 C2.32 1.67 3.64 1.34 5 1 C3.53181332 4.10742423 1.79975 6.90471739 -0.125 9.75 C-0.93324219 10.94882813 -0.93324219 10.94882813 -1.7578125 12.171875 C-2.16773437 12.77515625 -2.57765625 13.3784375 -3 14 C-3.66 13.01 -4.32 12.02 -5 11 C-4.125 8.3125 -4.125 8.3125 -3 6 C-2.01 6 -1.02 6 0 6 C-0.2784375 4.7934375 -0.2784375 4.7934375 -0.5625 3.5625 C-0.706875 2.716875 -0.85125 1.87125 -1 1 C-0.67 0.67 -0.34 0.34 0 0 Z " transform="translate(86,74)" style="fill: #CA396F;"/><path d="M0 0 C0.66 1.32 1.32 2.64 2 4 C-1.35638226 8.24483639 -4.67462104 11.73193589 -9 15 C-9.66 15 -10.32 15 -11 15 C-10.34 13.02 -9.68 11.04 -9 9 C-7.02 8.67 -5.04 8.34 -3 8 C-3.061875 7.236875 -3.12375 6.47375 -3.1875 5.6875 C-3 3 -3 3 -1.5 1.1875 C-1.005 0.795625 -0.51 0.40375 0 0 Z " transform="translate(206,185)" style="fill: #C74375;"/><path d="M0 0 C0.66 0 1.32 0 2 0 C4.3548854 6.23352019 3.87557031 11.45688671 3 18 C2.01 18 1.02 18 0 18 C0 12.06 0 6.12 0 0 Z " transform="translate(220,160)" style="fill: #D03B74;"/><path d="M0 0 C0 1.32 0 2.64 0 4 C-1.32 4 -2.64 4 -4 4 C-4 5.32 -4 6.64 -4 8 C-5.65 8 -7.3 8 -9 8 C-9.33 7.34 -9.66 6.68 -10 6 C-4 0 -4 0 0 0 Z " transform="translate(160,136)" style="fill: #F6FCFC;"/><path d="M0 0 C0.33 0.66 0.66 1.32 1 2 C-0.78953185 2.83790789 -2.58169695 3.67019396 -4.375 4.5 C-5.87160156 5.19609375 -5.87160156 5.19609375 -7.3984375 5.90625 C-10 7 -10 7 -12 7 C-12 6.01 -12 5.02 -12 4 C-11.360625 3.71125 -10.72125 3.4225 -10.0625 3.125 C-7.84793921 2.17176549 -7.84793921 2.17176549 -7 0 C-3.88407501 -1.03864166 -2.9737344 -1.09036928 0 0 Z " transform="translate(113,60)" style="fill: #CD346E;"/><path d="M0 0 C1.98 0 3.96 0 6 0 C6 0.66 6 1.32 6 2 C6.66 2 7.32 2 8 2 C8.33 3.65 8.66 5.3 9 7 C10.32 7.33 11.64 7.66 13 8 C11.02 8.99 11.02 8.99 9 10 C7.49702124 8.52386015 5.99768715 7.04400843 4.5 5.5625 C3.6646875 4.73878906 2.829375 3.91507813 1.96875 3.06640625 C0 1 0 1 0 0 Z " transform="translate(226,196)" style="fill: #D43E76;"/><path d="M0 0 C0.66 0.99 1.32 1.98 2 3 C0.625 4.5 0.625 4.5 -1 6 C-1.66 6 -2.32 6 -3 6 C-3 7.65 -3 9.3 -3 11 C-2.01 11.33 -1.02 11.66 0 12 C-1.32 12.33 -2.64 12.66 -4 13 C-7 8.25 -7 8.25 -7 6 C-3.53846154 3 -3.53846154 3 -1 3 C-0.67 2.01 -0.34 1.02 0 0 Z " transform="translate(234,173)" style="fill: #FBD3E9;"/><path d="M0 0 C3.21852831 0.63065757 5.50801069 1.78020695 8.25 3.5625 C8.95640625 4.01753906 9.6628125 4.47257813 10.390625 4.94140625 C11.18726563 5.46541016 11.18726563 5.46541016 12 6 C10.68 6.33 9.36 6.66 8 7 C8 6.34 8 5.68 8 5 C6.02 4.34 4.04 3.68 2 3 C1.67 3.99 1.34 4.98 1 6 C-0.32 6 -1.64 6 -3 6 C-3 4.68 -3 3.36 -3 2 C-2.01 2 -1.02 2 0 2 C0 1.34 0 0.68 0 0 Z " transform="translate(148,202)" style="fill: #C7366B;"/><path d="M0 0 C1 3 1 3 0.22265625 4.9375 C-0.16019531 5.618125 -0.54304687 6.29875 -0.9375 7 C-2.46769739 9.73879397 -3 10.77775564 -3 14 C-5.31 14 -7.62 14 -10 14 C-9.61328125 13.57589844 -9.2265625 13.15179688 -8.828125 12.71484375 C-5.2605903 8.69695194 -2.51826571 4.74596229 0 0 Z " transform="translate(246,170)" style="fill: #C84978;"/><path d="M0 0 C1.1628134 3.39541514 0.81351928 5.27751909 -0.375 8.625 C-2.0414564 13.73851006 -2.66979018 18.6483236 -3 24 C-3.33 24 -3.66 24 -4 24 C-4.31157506 15.8875085 -4.57224347 8.45914051 -1 1 C-0.67 0.67 -0.34 0.34 0 0 Z " transform="translate(62,136)" style="fill: #BF4273;"/><path d="M0 0 C-4.625 3 -4.625 3 -8 3 C-8 4.32 -8 5.64 -8 7 C-9.98 7.33 -11.96 7.66 -14 8 C-12.61220551 4.65927822 -11.18411804 3.09800579 -8.125 1.1875 C-7.44695312 0.74792969 -6.76890625 0.30835938 -6.0703125 -0.14453125 C-3.59237953 -1.16843185 -2.47510086 -0.90457722 0 0 Z " transform="translate(174,149)" style="fill: #FDDFF0;"/><path d="M0 0 C0.66 0.33 1.32 0.66 2 1 C-1.20835538 6.82530885 -4.7045931 10.97121781 -10 15 C-10 11 -10 11 -8.57421875 9.47265625 C-7.95160156 9.00730469 -7.32898438 8.54195312 -6.6875 8.0625 C-3.67237667 5.66382901 -1.74756091 3.49512181 0 0 Z " transform="translate(245,169)" style="fill: #FDDFF1;"/><path d="M0 0 C0.85696068 3.31262111 1.46228519 6.62007831 2 10 C1.34 10 0.68 10 0 10 C0.185625 10.928125 0.37125 11.85625 0.5625 12.8125 C1 16 1 16 0 19 C-0.66 19 -1.32 19 -2 19 C-2.22262303 12.2718373 -1.95021536 6.46008837 0 0 Z " transform="translate(146,157)" style="fill: #CE467B;"/><path d="M0 0 C0.06058594 0.66386719 0.12117187 1.32773438 0.18359375 2.01171875 C0.79863507 8.54908081 0.79863507 8.54908081 2 15 C1.01 15.495 1.01 15.495 0 16 C-0.19335938 15.33613281 -0.38671875 14.67226562 -0.5859375 13.98828125 C-2.52751352 7.40210691 -2.52751352 7.40210691 -5 1 C-1.125 0 -1.125 0 0 0 Z " transform="translate(212,150)" style="fill: #FEE2F1;"/><path d="M0 0 C0.97646484 0.00322266 1.95292969 0.00644531 2.95898438 0.00976562 C3.96638672 0.01814453 4.97378906 0.02652344 6.01171875 0.03515625 C7.03845703 0.03966797 8.06519531 0.04417969 9.12304688 0.04882812 C11.64849757 0.06057441 14.1738278 0.0770006 16.69921875 0.09765625 C17.02921875 1.08765625 17.35921875 2.07765625 17.69921875 3.09765625 C16.87550781 2.93523437 16.05179688 2.7728125 15.203125 2.60546875 C11.32702753 2.04371549 7.54240716 1.95077564 3.63671875 1.97265625 C2.94255859 1.96878906 2.24839844 1.96492187 1.53320312 1.9609375 C-2.20411496 1.96803592 -5.66789019 2.20536722 -9.30078125 3.09765625 C-9.63078125 2.43765625 -9.96078125 1.77765625 -10.30078125 1.09765625 C-6.80085429 0.30058857 -3.58655815 -0.02097402 0 0 Z " transform="translate(174.30078125,126.90234375)" style="fill: #CC4978;"/><path d="M0 0 C0 1.65 0 3.3 0 5 C-0.66 5 -1.32 5 -2 5 C-2 4.34 -2 3.68 -2 3 C-2.66 3 -3.32 3 -4 3 C-4.33 3.66 -4.66 4.32 -5 5 C-5 4.34 -5 3.68 -5 3 C-6.65 3.66 -8.3 4.32 -10 5 C-10 5.66 -10 6.32 -10 7 C-11.32 6.67 -12.64 6.34 -14 6 C-9.95001278 2.59801074 -5.36373351 0 0 0 Z " transform="translate(84,122)" style="fill: #BF3C6E;"/><path d="M0 0 C3.15034855 0.57279065 5.34893825 1.07918369 7.25390625 3.7734375 C10.22804758 9.67782139 11.12780766 14.35400176 11 21 C10.67 21 10.34 21 10 21 C9.91363281 20.443125 9.82726562 19.88625 9.73828125 19.3125 C8.75187964 13.95516279 7.14516244 10.09495783 4.0234375 5.62890625 C3 4 3 4 3 2 C2.01 1.67 1.02 1.34 0 1 C0 0.67 0 0.34 0 0 Z " transform="translate(208,94)" style="fill: #CB547F;"/><path d="M0 0 C1.875 0.125 1.875 0.125 4 1 C5.25 4.0625 5.25 4.0625 6 7 C2.37 6.34 -1.26 5.68 -5 5 C-5 4.01 -5 3.02 -5 2 C-2.525 2.495 -2.525 2.495 0 3 C0 2.01 0 1.02 0 0 Z " transform="translate(181,143)" style="fill: #D34179;"/><path d="M0 0 C1.65 0 3.3 0 5 0 C5.66 1.98 6.32 3.96 7 6 C6.01 6.33 5.02 6.66 4 7 C1.3125 5.5625 1.3125 5.5625 -1 4 C-0.67 2.68 -0.34 1.36 0 0 Z " transform="translate(210,135)" style="fill: #EA2C72;"/><path d="M0 0 C0.33 0.99 0.66 1.98 1 3 C1.66 3 2.32 3 3 3 C2.67 4.32 2.34 5.64 2 7 C-1.34252724 7.07427838 -3.8035914 7.06546953 -7 6 C-7 4 -7 4 -5 2 C-3.35008418 1.29289322 -1.68437744 0.62056011 0 0 Z " transform="translate(180,103)" style="fill: #D23D76;"/><path d="M0 0 C-0.33 0.66 -0.66 1.32 -1 2 C-3.32156597 2.40729228 -5.6568787 2.74438677 -8 3 C-8 3.66 -8 4.32 -8 5 C-9.8125 5.625 -9.8125 5.625 -12 6 C-12.99 5.34 -13.98 4.68 -15 4 C-9.77228537 0.95842058 -6.07328688 -0.50610724 0 0 Z " transform="translate(193,89)" style="fill: #FBDDEF;"/><path d="M0 0 C1.65 0 3.3 0 5 0 C4.67 0.99 4.34 1.98 4 3 C3.34 3 2.68 3 2 3 C1.34 4.32 0.68 5.64 0 7 C-1.98 7 -3.96 7 -6 7 C-4.6875 4.5 -4.6875 4.5 -3 2 C-2.01 2 -1.02 2 0 2 C0 1.34 0 0.68 0 0 Z " transform="translate(107,65)" style="fill: #F9FCFC;"/><path d="M0 0 C0.33 0 0.66 0 1 0 C1.22424141 7.36259293 0.90120099 13.87049629 -1 21 C-1.33 21 -1.66 21 -2 21 C-2.22424141 13.63740707 -1.90120099 7.12950371 0 0 Z " transform="translate(86,99)" style="fill: #C64776;"/><path d="M0 0 C1.9375 0.625 1.9375 0.625 4 2 C4.75 5.125 4.75 5.125 5 8 C4.01 8.495 4.01 8.495 3 9 C2.34 7.68 1.68 6.36 1 5 C0.01 5.99 -0.98 6.98 -2 8 C-2 4.79604584 -1.25664978 2.90600261 0 0 Z " transform="translate(237,220)" style="fill: #C94475;"/><path d="M0 0 C0 3 0 3 -2 6 C-2.31983581 10.95745506 -2.25980539 14.48038922 0 19 C-0.99 19 -1.98 19 -3 19 C-5.09010969 14.08209485 -5.4967565 10.09734557 -4 5 C-1.9375 2 -1.9375 2 0 0 Z " transform="translate(168,158)" style="fill: #C04C76;"/><path d="M0 0 C1.134375 0.020625 2.26875 0.04125 3.4375 0.0625 C3.1075 2.3725 2.7775 4.6825 2.4375 7.0625 C1.7775 6.4025 1.1175 5.7425 0.4375 5.0625 C-2.16530568 5.38291397 -2.16530568 5.38291397 -4.5625 6.0625 C-4.605221 4.39638095 -4.60313832 2.72867115 -4.5625 1.0625 C-3.5625 0.0625 -3.5625 0.0625 0 0 Z " transform="translate(154.5625,152.9375)" style="fill: #D22867;"/><path d="M0 0 C0.99 1.32 1.98 2.64 3 4 C2.38125 4.04125 1.7625 4.0825 1.125 4.125 C0.42375 4.41375 -0.2775 4.7025 -1 5 C-1.69258229 6.99117408 -2.35747635 8.9921136 -3 11 C-5.125 12.875 -5.125 12.875 -7 14 C-5.53967505 8.68972746 -3.01679014 4.53669968 0 0 Z " transform="translate(87,80)" style="fill: #FBDDED;"/><path d="M0 0 C1.4540625 0.0309375 1.4540625 0.0309375 2.9375 0.0625 C3.5975 1.3825 4.2575 2.7025 4.9375 4.0625 C2.6275 4.3925 0.3175 4.7225 -2.0625 5.0625 C-2.7225 3.7425 -3.3825 2.4225 -4.0625 1.0625 C-3.0625 0.0625 -3.0625 0.0625 0 0 Z " transform="translate(125.0625,74.9375)" style="fill: #D43372;"/><path d="M0 0 C2.64 0.33 5.28 0.66 8 1 C8.33 1.99 8.66 2.98 9 4 C5.04 5.98 5.04 5.98 1 8 C0.67 6.68 0.34 5.36 0 4 C0.66 4 1.32 4 2 4 C2 3.34 2 2.68 2 2 C1.34 2 0.68 2 0 2 C0 1.34 0 0.68 0 0 Z " transform="translate(152,128)" style="fill: #D23972;"/><path d="M0 0 C3 0 3 0 4.4296875 1.35546875 C4.90664062 1.96003906 5.38359375 2.56460938 5.875 3.1875 C8.43054284 6.33081769 11.09420784 9.17967232 14 12 C13.01 13.485 13.01 13.485 12 15 C12 14.01 12 13.02 12 12 C11.34 12 10.68 12 10 12 C8.72469089 10.52848949 7.4542426 9.05137753 6.2421875 7.52734375 C4.97110001 5.9021389 4.97110001 5.9021389 3.1875 4.25 C2 3 2 3 2 1 C1.34 0.67 0.68 0.34 0 0 Z " transform="translate(196,208)" style="fill: #C44D79;"/><path d="M0 0 C4.875 1.75 4.875 1.75 6 4 C3.69 4.33 1.38 4.66 -1 5 C-1 5.66 -1 6.32 -1 7 C-0.34 7 0.32 7 1 7 C1 7.66 1 8.32 1 9 C-3.875 7.25 -3.875 7.25 -5 5 C-3.35 4.67 -1.7 4.34 0 4 C0 2.68 0 1.36 0 0 Z " transform="translate(69,179)" style="fill: #FDE2F0;"/><path d="M0 0 C0.66 0 1.32 0 2 0 C1.47557578 3.7758544 0.67345333 6.22372155 -2 9 C-2.99 9 -3.98 9 -5 9 C-5 7.35 -5 5.7 -5 4 C-4.01 4 -3.02 4 -2 4 C-1.34 2.68 -0.68 1.36 0 0 Z " transform="translate(147,147)" style="fill: #F3FEFD;"/><path d="M0 0 C1.875 0.25 1.875 0.25 4 1 C4.309375 1.66 4.61875 2.32 4.9375 3 C5.288125 3.66 5.63875 4.32 6 5 C8.55519921 5.81171228 8.55519921 5.81171228 11 6 C11 7.32 11 8.64 11 10 C7.81326038 8.59698853 5.67778594 6.92234929 3.25 4.4375 C2.63640625 3.81746094 2.0228125 3.19742188 1.390625 2.55859375 C0 1 0 1 0 0 Z " transform="translate(218,228)" style="fill: #FCD8EA;"/><path d="M0 0 C2.64 0.66 5.28 1.32 8 2 C8.33 3.32 8.66 4.64 9 6 C9.99 6.33 10.98 6.66 12 7 C11.67 8.32 11.34 9.64 11 11 C9.948125 9.63875 9.948125 9.63875 8.875 8.25 C6.25782611 5.07789526 3.46541431 3.17595782 0 1 C0 0.67 0 0.34 0 0 Z " transform="translate(200,133)" style="fill: #CF4F7E;"/><path d="M0 0 C-10.37357631 5.55580866 -10.37357631 5.55580866 -16 6 C-11.97115039 1.13180672 -6.24917557 -2.05051073 0 0 Z " transform="translate(170,130)" style="fill: #FCD7EA;"/><path d="M0 0 C2.58258923 2.58258923 2.72987466 4.72875612 3.4375 8.22265625 C3.7159375 9.10244141 3.7159375 9.10244141 4 10 C4.66 10.33 5.32 10.66 6 11 C6 11.66 6 12.32 6 13 C7.98 13 9.96 13 12 13 C11.67 13.66 11.34 14.32 11 15 C4.25 14.25 4.25 14.25 2 12 C1.3671875 9.1796875 1.3671875 9.1796875 0.875 5.875 C0.70742187 4.77929688 0.53984375 3.68359375 0.3671875 2.5546875 C0.24601563 1.71164063 0.12484375 0.86859375 0 0 Z " transform="translate(209,109)" style="fill: #FBCDE5;"/><path d="M0 0 C3.85025879 0.60355408 6.86101159 1.76772603 10.3125 3.5625 C11.19550781 4.01753906 12.07851562 4.47257812 12.98828125 4.94140625 C13.65214844 5.29074219 14.31601563 5.64007813 15 6 C15 6.66 15 7.32 15 8 C15.66 8.33 16.32 8.66 17 9 C13.09142602 8.44064577 10.59544795 7.32566703 7.375 5.0625 C6.61960938 4.53785156 5.86421875 4.01320313 5.0859375 3.47265625 C4.39757812 2.98667969 3.70921875 2.50070313 3 2 C2.01 1.34 1.02 0.68 0 0 Z " transform="translate(149,64)" style="fill: #CE4F7F;"/><path d="M0 0 C0.66 0 1.32 0 2 0 C2.33 0.66 2.66 1.32 3 2 C3 1.34 3 0.68 3 0 C3.66 0 4.32 0 5 0 C5.79953138 3.28696233 6.09658936 4.71023192 5 8 C5.66 8 6.32 8 7 8 C7 8.66 7 9.32 7 10 C2.57320993 8.52440331 2.08567304 6.09942632 0 2 C0 1.34 0 0.68 0 0 Z " transform="translate(249,216)" style="fill: #DF2F71;"/><path d="M0 0 C0.99 0 1.98 0 3 0 C3 2.64 3 5.28 3 8 C0 7 0 7 -1 6 C-1.66 5.67 -2.32 5.34 -3 5 C-3 4.01 -3 3.02 -3 2 C-2.01 2 -1.02 2 0 2 C0 1.34 0 0.68 0 0 Z " transform="translate(223,176)" style="fill: #D62F6C;"/><path d="M0 0 C0.99 0 1.98 0 3 0 C3 0.66 3 1.32 3 2 C3.99 2.33 4.98 2.66 6 3 C6.6875 5.0625 6.6875 5.0625 7 7 C6.34 7 5.68 7 5 7 C5.33 7.66 5.66 8.32 6 9 C4.68 8.67 3.36 8.34 2 8 C1.855625 7.05125 1.71125 6.1025 1.5625 5.125 C1.17064601 2.1065506 1.17064601 2.1065506 0 0 Z " transform="translate(160,87)" style="fill: #E53271;"/><path d="M0 0 C-2.05233685 2.2477975 -3.00667261 3.0022242 -6 4 C-6.66 3.34 -7.32 2.68 -8 2 C-11.08347826 1.83318891 -11.08347826 1.83318891 -14 2 C-13.67 1.34 -13.34 0.68 -13 0 C-8.37072828 -0.99847037 -4.61588935 -1.013244 0 0 Z " transform="translate(120,58)" style="fill: #DE3A77;"/><path d="M0 0 C4.29 0.99 8.58 1.98 13 3 C9.3558226 5.4294516 7.28758728 5.16179575 3 5 C3 4.01 3 3.02 3 2 C2.01 2 1.02 2 0 2 C0 1.34 0 0.68 0 0 Z " transform="translate(160,209)" style="fill: #BD3B69;"/><path d="M0 0 C2 0 2 0 4 2 C4.144375 2.639375 4.28875 3.27875 4.4375 3.9375 C5.10356162 6.37972594 6.11604329 7.36177677 8 9 C7.67 9.66 7.34 10.32 7 11 C5.82141137 9.9296491 4.6574639 8.84316035 3.5 7.75 C2.8503125 7.14671875 2.200625 6.5434375 1.53125 5.921875 C0 4 0 4 0 0 Z " transform="translate(218,185)" style="fill: #C74675;"/><path d="M0 0 C0.99 0 1.98 0 3 0 C2.43624605 3.94627764 1.40389944 6.79480075 -1 10 C-3.1875 10.8125 -3.1875 10.8125 -5 11 C-5 10.01 -5 9.02 -5 8 C-3.68 7.67 -2.36 7.34 -1 7 C-0.67 4.69 -0.34 2.38 0 0 Z " transform="translate(237,163)" style="fill: #CA4577;"/><path d="M0 0 C1.22589844 0.01353516 1.22589844 0.01353516 2.4765625 0.02734375 C3.41628906 0.04474609 3.41628906 0.04474609 4.375 0.0625 C4.705 1.0525 5.035 2.0425 5.375 3.0625 C4.385 3.0625 3.395 3.0625 2.375 3.0625 C2.375 2.4025 2.375 1.7425 2.375 1.0625 C1.385 1.0625 0.395 1.0625 -0.625 1.0625 C-0.955 2.0525 -1.285 3.0425 -1.625 4.0625 C-2.615 3.7325 -3.605 3.4025 -4.625 3.0625 C-5.615 3.3925 -6.605 3.7225 -7.625 4.0625 C-6.12685361 -0.43193917 -4.33905262 -0.06198647 0 0 Z " transform="translate(176.625,155.9375)" style="fill: #CC356A;"/><path d="M0 0 C-0.55728913 3.34373475 -1.35173889 6.03312999 -3 9 C-3.185625 8.1646875 -3.185625 8.1646875 -3.375 7.3125 C-4.05976855 4.77885636 -4.99133763 2.42078968 -6 0 C-3.50907189 -1.24546405 -2.58919267 -0.7767578 0 0 Z " transform="translate(192,148)" style="fill: #CA396D;"/><path d="M0 0 C2.77579761 2.77579761 2.86061387 5.30306937 3.625 9.125 C3.88539063 10.40632813 4.14578125 11.68765625 4.4140625 13.0078125 C4.60742188 13.99523437 4.80078125 14.98265625 5 16 C4.34 16 3.68 16 3 16 C0.91613111 10.72086547 0.42089996 5.60461531 0 0 Z " transform="translate(207,106)" style="fill: #D35280;"/><path d="M0 0 C1.12894876 0.93274109 2.25300876 1.87140122 3.375 2.8125 C4.00148437 3.33457031 4.62796875 3.85664063 5.2734375 4.39453125 C7 6 7 6 9 9 C7.35 9 5.7 9 4 9 C4 8.34 4 7.68 4 7 C3.34 7 2.68 7 2 7 C2 6.01 2 5.02 2 4 C1.01 3.67 0.02 3.34 -1 3 C-0.67 2.01 -0.34 1.02 0 0 Z " transform="translate(223,222)" style="fill: #FADEEE;"/><path d="M0 0 C3.17231132 4.75846698 3.12529405 8.65679336 3.0625 14.1875 C3.05798828 14.93708984 3.05347656 15.68667969 3.04882812 16.45898438 C3.03706354 18.30602383 3.01912865 20.15302213 3 22 C2.67 22 2.34 22 2 22 C1.93941406 21.00097656 1.87882813 20.00195312 1.81640625 18.97265625 C1.73261719 17.68230469 1.64882812 16.39195312 1.5625 15.0625 C1.48128906 13.77472656 1.40007812 12.48695313 1.31640625 11.16015625 C1.35080812 8.13976043 1.35080812 8.13976043 0 7 C-0.04092937 4.66702567 -0.04241723 2.33294775 0 0 Z " transform="translate(247,138)" style="fill: #F9CAE1;"/><path d="M0 0 C5.21979128 -0.1799928 9.07262981 0.02905192 14 2 C14 2.33 14 2.66 14 3 C12.41753293 3.08153933 10.83383727 3.13943557 9.25 3.1875 C8.36828125 3.22230469 7.4865625 3.25710937 6.578125 3.29296875 C3.55328417 2.94923684 2.24416398 1.99772541 0 0 Z " transform="translate(176,136)" style="fill: #C54172;"/><path d="M0 0 C2.00720923 0.28674418 4.0085944 0.61866701 6 1 C6 1.66 6 2.32 6 3 C7.98 2.67 9.96 2.34 12 2 C12 3.32 12 4.64 12 6 C10.58208592 5.54554036 9.16571954 5.08625056 7.75 4.625 C6.96109375 4.36976563 6.1721875 4.11453125 5.359375 3.8515625 C3.13372042 3.04826333 1.09068328 2.10288338 -1 1 C-0.67 0.67 -0.34 0.34 0 0 Z " transform="translate(185,135)" style="fill: #FAD4E9;"/><path d="M0 0 C-0.33 6.27 -0.66 12.54 -1 19 C-1.99 19 -2.98 19 -4 19 C-3.67 18.01 -3.34 17.02 -3 16 C-2.74232692 12.75761373 -2.55753192 9.52137679 -2.39453125 6.2734375 C-2.03919983 0 -2.03919983 0 0 0 Z " transform="translate(85,103)" style="fill: #FDDFF4;"/><path d="M0 0 C0.66 0 1.32 0 2 0 C2 0.99 2 1.98 2 3 C2.99 3 3.98 3 5 3 C5 3.66 5 4.32 5 5 C5.66 5.33 6.32 5.66 7 6 C6.01 7.485 6.01 7.485 5 9 C2.5 6.75 2.5 6.75 0 4 C0 2.68 0 1.36 0 0 Z " transform="translate(66,171)" style="fill: #C1396D;"/><path d="M0 0 C0.33 0 0.66 0 1 0 C1 2.31 1 4.62 1 7 C0.34 7 -0.32 7 -1 7 C-1.66 8.98 -2.32 10.96 -3 13 C-3.93045933 10.44855176 -4.08564091 9.25993522 -3.22265625 6.640625 C-2.83980469 5.85171875 -2.45695313 5.0628125 -2.0625 4.25 C-1.68222656 3.45078125 -1.30195313 2.6515625 -0.91015625 1.828125 C-0.60980469 1.22484375 -0.30945313 0.6215625 0 0 Z " transform="translate(141,149)" style="fill: #FCDDED;"/><path d="M0 0 C3.99824088 3.66505414 6.60168569 7.11112852 9 12 C8.67 12.66 8.34 13.32 8 14 C7.59007812 13.37351563 7.18015625 12.74703125 6.7578125 12.1015625 C6.21898437 11.28429687 5.68015625 10.46703125 5.125 9.625 C4.59132812 8.81289062 4.05765625 8.00078125 3.5078125 7.1640625 C2.04134945 4.92405904 2.04134945 4.92405904 0 3 C0 2.01 0 1.02 0 0 Z " transform="translate(202,146)" style="fill: #BF4B76;"/><path d="M0 0 C3 1 3 1 4.0625 3 C4.371875 3.66 4.68125 4.32 5 5 C5.66 5.33 6.32 5.66 7 6 C7 8.64 7 11.28 7 14 C5.10331936 11.15497903 3.76736522 8.42700115 2.375 5.3125 C1.92898437 4.31863281 1.48296875 3.32476562 1.0234375 2.30078125 C0.68570313 1.54152344 0.34796875 0.78226563 0 0 Z " transform="translate(243,130)" style="fill: #D14C7C;"/><path d="M0 0 C0.99 0.33 1.98 0.66 3 1 C3.33 3.64 3.66 6.28 4 9 C3.01 9 2.02 9 1 9 C-0.4783226 6.04335481 -0.06032783 3.25770263 0 0 Z " transform="translate(213,110)" style="fill: #EFFEFE;"/><path d="M0 0 C0 0.33 0 0.66 0 1 C-2.05078125 1.22786458 -4.1015625 1.45572917 -6.15234375 1.68359375 C-8.01140229 1.81886614 -8.01140229 1.81886614 -9 3 C-11.67058851 3.14115161 -14.32432238 3.04247107 -17 3 C-16.67 2.34 -16.34 1.68 -16 1 C-10.74469407 -0.34751434 -5.38420602 -0.09576651 0 0 Z " transform="translate(133,68)" style="fill: #CC6087;"/><path d="M0 0 C1.32 0.33 2.64 0.66 4 1 C2.69013727 2.16962686 1.3770374 3.33562944 0.0625 4.5 C-0.66839844 5.1496875 -1.39929688 5.799375 -2.15234375 6.46875 C-4 8 -4 8 -5 8 C-5 6.35 -5 4.7 -5 3 C-3.68 3 -2.36 3 -1 3 C-0.67 2.01 -0.34 1.02 0 0 Z " transform="translate(97,67)" style="fill: #C33E71;"/><path d="M0 0 C1.65 0 3.3 0 5 0 C1.66666667 2.66666667 -1.66666667 5.33333333 -5 8 C-5 6.68 -5 5.36 -5 4 C-4.34 4 -3.68 4 -3 4 C-3 3.34 -3 2.68 -3 2 C-2.01 2 -1.02 2 0 2 C0 1.34 0 0.68 0 0 Z " transform="translate(63,119)" style="fill: #BC366A;"/><path d="M0 0 C0.66 0 1.32 0 2 0 C2.598125 1.093125 3.19625 2.18625 3.8125 3.3125 C5.29044697 5.91074129 6.69822933 8.04349493 9 10 C6.75 10 6.75 10 4 9 C0 3.07028754 0 3.07028754 0 0 Z " transform="translate(170,95)" style="fill: #FEDBF3;"/><path d="M0 0 C0 0.66 0 1.32 0 2 C-1.64453125 3.32421875 -1.64453125 3.32421875 -3.8125 4.6875 C-4.52019531 5.14511719 -5.22789063 5.60273437 -5.95703125 6.07421875 C-8 7 -8 7 -11 6 C-9.54550599 4.9944239 -8.08627557 3.99569565 -6.625 3 C-5.40683594 2.1646875 -5.40683594 2.1646875 -4.1640625 1.3125 C-2 0 -2 0 0 0 Z " transform="translate(107,65)" style="fill: #FCD3E9;"/><path d="M0 0 C1.7074998 1.28062485 3.37373596 2.61767557 5 4 C5 4.66 5 5.32 5 6 C3.68 6 2.36 6 1 6 C1 5.34 1 4.68 1 4 C-0.32 3.67 -1.64 3.34 -3 3 C-2.01 2.01 -1.02 1.02 0 0 Z " transform="translate(213,195)" style="fill: #C13F6D;"/><path d="M0 0 C0.78375 0.04125 1.5675 0.0825 2.375 0.125 C2.375 0.785 2.375 1.445 2.375 2.125 C1.385 2.62 1.385 2.62 0.375 3.125 C0.045 4.115 -0.285 5.105 -0.625 6.125 C-1.615 6.125 -2.605 6.125 -3.625 6.125 C-4.25 4.25 -4.25 4.25 -4.625 2.125 C-2.625 0.125 -2.625 0.125 0 0 Z " transform="translate(248.625,174.875)" style="fill: #E62F72;"/><path d="M0 0 C1.65 0 3.3 0 5 0 C5 1.65 5 3.3 5 5 C3.68 5.33 2.36 5.66 1 6 C1 5.01 1 4.02 1 3 C0.34 3 -0.32 3 -1 3 C-0.67 2.01 -0.34 1.02 0 0 Z " transform="translate(67,168)" style="fill: #C72362;"/><path d="M0 0 C0.66 0 1.32 0 2 0 C2 0.66 2 1.32 2 2 C3.32 1.67 4.64 1.34 6 1 C6 4 6 7 6 10 C3.99006295 7.99006295 3.10059081 6.40788768 1.875 3.875 C1.52179688 3.15054688 1.16859375 2.42609375 0.8046875 1.6796875 C0.53914062 1.12539062 0.27359375 0.57109375 0 0 Z " transform="translate(212,144)" style="fill: #D04B7B;"/><path d="M0 0 C-0.625 1.875 -0.625 1.875 -2 4 C-5.19201574 5.35830457 -7.52710626 6 -11 6 C-3.8 0 -3.8 0 0 0 Z " transform="translate(72,118)" style="fill: #FAD5E9;"/><path d="M0 0 C3.53790403 3.69172595 3.59115883 7.09390595 4 12 C1.95780294 10.30820672 1.08206694 9.36272334 0.48828125 6.73828125 C0.43027344 5.93777344 0.37226563 5.13726562 0.3125 4.3125 C0.24675781 3.50425781 0.18101562 2.69601563 0.11328125 1.86328125 C0.07589844 1.24839844 0.03851563 0.63351563 0 0 Z " transform="translate(214,102)" style="fill: #FEDCF1;"/><path d="M0 0 C1.7074998 1.28062485 3.37373596 2.61767557 5 4 C5 4.66 5 5.32 5 6 C4.01 6 3.02 6 2 6 C2 6.66 2 7.32 2 8 C1.01 8 0.02 8 -1 8 C-0.67 5.36 -0.34 2.72 0 0 Z " transform="translate(202,100)" style="fill: #DB457D;"/><path d="M0 0 C3.11954738 0.33724836 4.6209965 0.6209965 6.875 2.875 C7.24625 3.57625 7.6175 4.2775 8 5 C7.67 5.99 7.34 6.98 7 8 C5.83035398 6.8572081 4.66435444 5.71068285 3.5 4.5625 C2.8503125 3.92441406 2.200625 3.28632813 1.53125 2.62890625 C0 1 0 1 0 0 Z " transform="translate(210,220)" style="fill: #FED7EC;"/><path d="M0 0 C1.65 0.33 3.3 0.66 5 1 C5 2.65 5 4.3 5 6 C4.01 6 3.02 6 2 6 C0.3125 4 0.3125 4 -1 2 C-0.67 1.34 -0.34 0.68 0 0 Z " transform="translate(216,210)" style="fill: #E22467;"/><path d="M0 0 C-1 3 -1 3 -3 4 C-4.54023996 4.06950541 -6.08334988 4.08452357 -7.625 4.0625 C-8.85089844 4.04896484 -8.85089844 4.04896484 -10.1015625 4.03515625 C-11.04128906 4.01775391 -11.04128906 4.01775391 -12 4 C-8.36043372 1.57362248 -4.44144233 0 0 0 Z " transform="translate(196,209)" style="fill: #BE4F76;"/><path d="M0 0 C2 3 2 3 1.7578125 5.48046875 C1.54898438 6.37378906 1.34015625 7.26710937 1.125 8.1875 C0.92132813 9.08855469 0.71765625 9.98960937 0.5078125 10.91796875 C0.34023438 11.60503906 0.17265625 12.29210937 0 13 C-0.33 13 -0.66 13 -1 13 C-1.02686553 11.02090602 -1.04633375 9.04171029 -1.0625 7.0625 C-1.07410156 5.96035156 -1.08570313 4.85820312 -1.09765625 3.72265625 C-1 1 -1 1 0 0 Z " transform="translate(60,149)" style="fill: #C32663;"/><path d="M0 0 C0.66 0 1.32 0 2 0 C1.34 3.96 0.68 7.92 0 12 C-0.66 11.67 -1.32 11.34 -2 11 C-2 8.69 -2 6.38 -2 4 C-1.34 4 -0.68 4 0 4 C0 2.68 0 1.36 0 0 Z " transform="translate(77,96)" style="fill: #CB4E7A;"/><path d="M0 0 C2.99529289 0.99843096 4.15840327 1.51384442 6 4 C5.6875 6.1875 5.6875 6.1875 5 8 C2.5 6.25 2.5 6.25 0 4 C0 2.68 0 1.36 0 0 Z " transform="translate(206,99)" style="fill: #F2FDFC;"/><path d="M0 0 C1.31571603 0.2547514 2.62760376 0.52934141 3.9375 0.8125 C4.66839844 0.96332031 5.39929688 1.11414063 6.15234375 1.26953125 C6.76207031 1.51058594 7.37179688 1.75164062 8 2 C8.33 2.99 8.66 3.98 9 5 C4.545 4.01 4.545 4.01 0 3 C0 2.01 0 1.02 0 0 Z " transform="translate(65,188)" style="fill: #BE2461;"/><path d="M0 0 C0 0.99 0 1.98 0 3 C0.66 3 1.32 3 2 3 C2 3.66 2 4.32 2 5 C0.35 5.33 -1.3 5.66 -3 6 C-3.12375 5.360625 -3.2475 4.72125 -3.375 4.0625 C-3.684375 3.0415625 -3.684375 3.0415625 -4 2 C-4.66 1.67 -5.32 1.34 -6 1 C-3.92446352 0.4465236 -2.15634036 0 0 0 Z " transform="translate(229,190)" style="fill: #D22C6B;"/><path d="M0 0 C3.48331435 3.01887244 4.79157144 5.56909529 6 10 C5.01 9.34 4.02 8.68 3 8 C3 7.34 3 6.68 3 6 C1.68 5.67 0.36 5.34 -1 5 C-0.67 3.35 -0.34 1.7 0 0 Z " transform="translate(241,128)" style="fill: #FDDEEF;"/><path d="M0 0 C0.763125 0.0825 1.52625 0.165 2.3125 0.25 C0.9925 1.9 -0.3275 3.55 -1.6875 5.25 C-3.0075 4.92 -4.3275 4.59 -5.6875 4.25 C-3.34903846 0.31153846 -3.34903846 0.31153846 0 0 Z " transform="translate(99.6875,80.75)" style="fill: #CD3F73;"/><path d="M0 0 C2.97 0.495 2.97 0.495 6 1 C6 1.99 6 2.98 6 4 C4.02 4.33 2.04 4.66 0 5 C0 3.33333333 0 1.66666667 0 0 Z " transform="translate(146,75)" style="fill: #E62E72;"/><path d="M0 0 C0 3 0 3 -2 6 C-3.65 5.67 -5.3 5.34 -7 5 C-7 4.34 -7 3.68 -7 3 C-4.69 2.01 -2.38 1.02 0 0 Z " transform="translate(242,231)" style="fill: #EFFCFA;"/><path d="M0 0 C1.14926266 0.95421808 2.29430541 1.91352045 3.4375 2.875 C4.39462891 3.67550781 4.39462891 3.67550781 5.37109375 4.4921875 C7 6 7 6 8 8 C6.35 7.67 4.7 7.34 3 7 C3 6.01 3 5.02 3 4 C2.34 4 1.68 4 1 4 C0.67 2.68 0.34 1.36 0 0 Z " transform="translate(222,204)" style="fill: #C84374;"/><path d="M0 0 C0.99 0 1.98 0 3 0 C3.33 1.98 3.66 3.96 4 6 C1.525 5.01 1.525 5.01 -1 4 C-0.67 2.68 -0.34 1.36 0 0 Z " transform="translate(214,201)" style="fill: #E1276B;"/><path d="M0 0 C0.93065133 2.60582371 1.14917407 3.64198224 0.0625 6.25 C-0.4634375 7.11625 -0.4634375 7.11625 -1 8 C-1.99 8 -2.98 8 -4 8 C-4 6.68 -4 5.36 -4 4 C-3.34 4 -2.68 4 -2 4 C-1.34 2.68 -0.68 1.36 0 0 Z " transform="translate(167,182)" style="fill: #C9386E;"/><path d="M0 0 C1.32 0.33 2.64 0.66 4 1 C3.2575 1.556875 2.515 2.11375 1.75 2.6875 C-0.91707995 4.93027178 -2.91556232 7.22074975 -5 10 C-4.38545304 6.00544473 -2.29353263 3.25533664 0 0 Z " transform="translate(162,150)" style="fill: #C04271;"/><path d="M0 0 C1.65 0 3.3 0 5 0 C1.87567603 2.52349243 -1.38060496 4.27256146 -5 6 C-5 4.68 -5 3.36 -5 2 C-3.35 2 -1.7 2 0 2 C0 1.34 0 0.68 0 0 Z " transform="translate(161,138)" style="fill: #FDD4EA;"/><path d="M0 0 C1.06126775 4.24507101 1.08878929 5.31975221 -1 9 C-2.32 9.33 -3.64 9.66 -5 10 C-3.35 6.7 -1.7 3.4 0 0 Z " transform="translate(209,184)" style="fill: #FCD3EB;"/><path d="M0 0 C1.49403054 2.98806107 2.79310745 5.89656201 4 9 C2.35 9 0.7 9 -1 9 C-0.67 6.03 -0.34 3.06 0 0 Z " transform="translate(156,174)" style="fill: #C94A7A;"/><path d="M0 0 C0.33 0.99 0.66 1.98 1 3 C-0.98 3 -2.96 3 -5 3 C-5.33 2.01 -5.66 1.02 -6 0 C-3 -1 -3 -1 0 0 Z " transform="translate(80,180)" style="fill: #C33266;"/><path d="M0 0 C1.9375 0.3125 1.9375 0.3125 4 1 C4.33 1.99 4.66 2.98 5 4 C5.66 4 6.32 4 7 4 C7.33 5.32 7.66 6.64 8 8 C6.85073734 7.04578192 5.70569459 6.08647955 4.5625 5.125 C3.92441406 4.59132812 3.28632813 4.05765625 2.62890625 3.5078125 C1 2 1 2 0 0 Z " transform="translate(236,206)" style="fill: #C54C78;"/><path d="M0 0 C1.5625 1.25 1.5625 1.25 3 3 C2.875 5.125 2.875 5.125 2 7 C1.01 7.33 0.02 7.66 -1 8 C-0.67 5.36 -0.34 2.72 0 0 Z " transform="translate(51,167)" style="fill: #BC2C62;"/><path d="M0 0 C0.556875 0.226875 1.11375 0.45375 1.6875 0.6875 C-2.74326923 3.76442308 -2.74326923 3.76442308 -5.625 3.375 C-6.4603125 3.0346875 -6.4603125 3.0346875 -7.3125 2.6875 C-2.88173077 -0.38942308 -2.88173077 -0.38942308 0 0 Z " transform="translate(172.3125,148.3125)" style="fill: #FAD0E6;"/><path d="M0 0 C2.31 0 4.62 0 7 0 C7 0.66 7 1.32 7 2 C7.66 2.66 8.32 3.32 9 4 C7.3125 4.8125 7.3125 4.8125 5 5 C2.25 2.5625 2.25 2.5625 0 0 Z " transform="translate(234,121)" style="fill: #D84579;"/><path d="M0 0 C0.66 0.99 1.32 1.98 2 3 C-0.76264289 3.59732819 -3.16032769 4 -6 4 C-6 3.34 -6 2.68 -6 2 C-6.66 1.67 -7.32 1.34 -8 1 C-6.865625 1.020625 -5.73125 1.04125 -4.5625 1.0625 C-1.18424326 1.41577477 -1.18424326 1.41577477 0 0 Z " transform="translate(206,86)" style="fill: #DA3C74;"/><path d="M0 0 C0.99 0 1.98 0 3 0 C2.67 1.32 2.34 2.64 2 4 C0.02 4 -1.96 4 -4 4 C-4 3.34 -4 2.68 -4 2 C-2.68 2 -1.36 2 0 2 C0 1.34 0 0.68 0 0 Z " transform="translate(128,50)" style="fill: #E72C72;"/><path d="M0 0 C1.32 0.33 2.64 0.66 4 1 C4 2.32 4 3.64 4 5 C2.68 4.34 1.36 3.68 0 3 C0 2.01 0 1.02 0 0 Z " transform="translate(211,232)" style="fill: #C8316A;"/><path d="M0 0 C2 1.8125 2 1.8125 4 4 C4 4.99 4 5.98 4 7 C2.68 6.67 1.36 6.34 0 6 C0 4.02 0 2.04 0 0 Z " transform="translate(226,180)" style="fill: #C23E70;"/><path d="M0 0 C0.33 1.32 0.66 2.64 1 4 C-0.65 4.33 -2.3 4.66 -4 5 C-4 3.68 -4 2.36 -4 1 C-2.68 0.67 -1.36 0.34 0 0 Z " transform="translate(68,179)" style="fill: #F8FBFA;"/><path d="M0 0 C1.32 0.33 2.64 0.66 4 1 C4 1.66 4 2.32 4 3 C4.99 3.33 5.98 3.66 7 4 C6.67 4.99 6.34 5.98 6 7 C3.95880212 5.38405168 1.95927063 3.7143618 0 2 C0 1.34 0 0.68 0 0 Z " transform="translate(230,128)" style="fill: #FCD0E7;"/><path d="M0 0 C1.32 0.33 2.64 0.66 4 1 C4 2.65 4 4.3 4 6 C3.34 6 2.68 6 2 6 C0 3 0 3 0 0 Z " transform="translate(244,127)" style="fill: #DF3772;"/><path d="M0 0 C0.33 0.99 0.66 1.98 1 3 C-0.8125 5.6875 -0.8125 5.6875 -3 8 C-3.66 8 -4.32 8 -5 8 C-3.8141763 4.62496331 -2.72426311 2.35277269 0 0 Z " transform="translate(60,125)" style="fill: #F7CFE2;"/><path d="M0 0 C-2.98646769 1.99097846 -5.59687262 2.94124926 -9 4 C-9 3.01 -9 2.02 -9 1 C-5.8035914 -0.06546953 -3.34252724 -0.07427838 0 0 Z " transform="translate(110,63)" style="fill: #C44071;"/><path d="M0 0 C1.5625 1.8125 1.5625 1.8125 3 4 C2.67 4.99 2.34 5.98 2 7 C1.01 6.67 0.02 6.34 -1 6 C-1.042721 4.33388095 -1.04063832 2.66617115 -1 1 C-0.67 0.67 -0.34 0.34 0 0 Z " transform="translate(245,220)" style="fill: #F5FBFC;"/><path d="M0 0 C2.81832513 1.40916257 3.02593461 3.07780383 4 6 C4 6.99 4 7.98 4 9 C3.34 9 2.68 9 2 9 C1.34 6.03 0.68 3.06 0 0 Z " transform="translate(55,175)" style="fill: #BB2760;"/><path d="M0 0 C1.65 0 3.3 0 5 0 C3.35 1.98 1.7 3.96 0 6 C-1 3 -1 3 0 0 Z " transform="translate(151,144)" style="fill: #FDD7ED;"/></svg>