<svg id="svg" version="1.1" xmlns="http://www.w3.org/2000/svg" style="display: block;" viewBox="0 0 571 571"><path d="M0 0 C188.43 0 376.86 0 571 0 C571 188.43 571 376.86 571 571 C382.57 571 194.14 571 0 571 C0 382.57 0 194.14 0 0 Z " transform="translate(0,0)" style="fill: #162B3C;"/><path d="M0 0 C0.91587891 -0.04576172 1.83175781 -0.09152344 2.77539062 -0.13867188 C9.46390368 -0.25071543 9.46390368 -0.25071543 12.6640625 2.79296875 C14.63748091 7.51399279 15.74536525 12.18123931 16.75 17.1875 C18.06900747 23.52570089 19.52416019 29.70898546 21.44458008 35.89257812 C23.06251882 41.43493548 24.17068736 47.1114324 25.38085938 52.75390625 C25.58646484 53.68847656 25.79207031 54.62304688 26.00390625 55.5859375 C26.18381104 56.42302246 26.36371582 57.26010742 26.54907227 58.12255859 C27.09884115 60.4252868 27.09884115 60.4252868 28.16723633 62.33789062 C29.51830438 65.11826518 30.05617246 67.85982972 30.6953125 70.8828125 C31.09169922 72.74486328 31.09169922 72.74486328 31.49609375 74.64453125 C31.62999512 75.28729004 31.76389648 75.93004883 31.90185547 76.59228516 C32.31283536 78.56410899 32.73188603 80.53408389 33.15234375 82.50390625 C35.1875 92.13831589 35.1875 92.13831589 35.1875 94.4375 C35.8475 94.4375 36.5075 94.4375 37.1875 94.4375 C37.12175781 93.41011719 37.05601562 92.38273437 36.98828125 91.32421875 C36.99544772 84.79269735 38.82835327 78.5540612 40.375 72.25 C40.69933866 70.89896735 41.02281588 69.54772763 41.34545898 68.19628906 C41.98882418 65.50743459 42.63694089 62.81980773 43.29003906 60.13330078 C44.25924807 56.14203691 45.214211 52.1475743 46.16381836 48.15161133 C46.55332204 46.51426827 46.9447486 44.8773814 47.33813477 43.2409668 C48.50507466 38.37465042 49.62824503 33.50036228 50.72265625 28.6171875 C51.11892212 26.86100098 51.11892212 26.86100098 51.52319336 25.06933594 C52.03621579 22.79001203 52.54384394 20.50946493 53.04516602 18.22753906 C54.48528714 11.84739298 56.26201876 6.28846248 59.1875 0.4375 C62.43719769 0.32111964 65.6863583 0.25019419 68.9375 0.1875 C70.31808594 0.13722656 70.31808594 0.13722656 71.7265625 0.0859375 C78.47751057 -0.01190233 78.47751057 -0.01190233 81.69921875 2.02734375 C83.56634576 5.05101137 84.40030962 7.7960638 85.25 11.25 C85.4135498 11.90508545 85.57709961 12.5601709 85.74560547 13.23510742 C87.6887209 21.17913204 89.21494023 29.2118057 90.7109375 37.25 C91.48243017 41.29717465 92.38162752 45.19516988 93.625 49.125 C94.95886501 53.37460008 95.85356804 57.62513183 96.6875 62 C97.61098644 66.80982519 98.69636905 71.30666412 100.38476562 75.89477539 C101.40635115 79.13072832 102.08656124 82.39384555 102.78125 85.71484375 C103.04615234 86.97417725 103.31105469 88.23351074 103.58398438 89.53100586 C103.88272461 90.96972046 103.88272461 90.96972046 104.1875 92.4375 C105.29552068 88.63450199 106.39795775 84.82993103 107.49560547 81.02392578 C108.05022452 79.10497252 108.60904952 77.18723645 109.16796875 75.26953125 C111.15536354 68.36785115 112.95042752 61.51504158 114.1875 54.4375 C114.8475 54.4375 115.5075 54.4375 116.1875 54.4375 C116.11982422 52.69533203 116.11982422 52.69533203 116.05078125 50.91796875 C116.05551583 46.60287378 117.02635063 42.82522342 118.375 38.75 C120.78028285 31.10272223 122.68531057 23.39998451 124.39916992 15.56958008 C125.68120622 9.90747897 126.95908186 4.66591814 131.1875 0.4375 C133.25048828 0.21044922 133.25048828 0.21044922 135.7578125 0.2421875 C136.65371094 0.24863281 137.54960937 0.25507813 138.47265625 0.26171875 C139.40980469 0.27847656 140.34695313 0.29523438 141.3125 0.3125 C142.25738281 0.32152344 143.20226562 0.33054688 144.17578125 0.33984375 C146.51327292 0.36345478 148.85026123 0.39638484 151.1875 0.4375 C151.495813 6.64580268 150.5683482 11.25963606 148.4375 17.0625 C147.88159657 18.64495102 147.32823687 20.22829779 146.77734375 21.8125 C146.36911377 22.98039062 146.36911377 22.98039062 145.95263672 24.171875 C144.50035253 28.47219321 143.32898571 32.84570352 142.14453125 37.2265625 C141.42847377 39.62900842 140.64931571 41.88323428 139.7421875 44.2109375 C137.96207518 48.86182178 136.72578078 53.61584871 135.5 58.4375 C135.27505859 59.30761719 135.05011719 60.17773438 134.81835938 61.07421875 C134.27086201 63.19431493 133.72862698 65.31576892 133.1875 67.4375 C132.5275 67.4375 131.8675 67.4375 131.1875 67.4375 C131.07792969 68.03175781 130.96835937 68.62601562 130.85546875 69.23828125 C128.99215176 78.97903594 126.2971512 88.3410475 123.09887695 97.72241211 C121.28927367 103.04377464 119.7008024 108.41672509 118.1796875 113.828125 C117.13790801 116.56792302 116.47314309 117.66077338 114.1875 119.4375 C111.91918945 119.77807617 111.91918945 119.77807617 109.30078125 119.73046875 C108.36298828 119.72080078 107.42519531 119.71113281 106.45898438 119.70117188 C105.48251953 119.67603516 104.50605469 119.65089844 103.5 119.625 C102.51193359 119.61146484 101.52386719 119.59792969 100.50585938 119.58398438 C98.06585769 119.54862203 95.62695281 119.49927033 93.1875 119.4375 C90.28631447 114.74405316 88.52884093 110.84989368 87.4375 105.375 C87.07398438 103.62509766 87.07398438 103.62509766 86.703125 101.83984375 C86.21829883 98.64072559 86.08921141 95.66628029 86.1875 92.4375 C85.5275 92.4375 84.8675 92.4375 84.1875 92.4375 C83.43669684 89.14601603 82.68697531 85.85428657 81.9375 82.5625 C81.71006104 81.56468506 81.48262207 80.56687012 81.24829102 79.53881836 C80.18424168 74.86139604 79.12616229 70.18318787 78.10546875 65.49609375 C76.30390609 57.22552442 74.3570946 49.03081585 72.1171875 40.8671875 C71.08758582 37.06890905 70.13210903 33.257733 69.1875 29.4375 C69.02145264 30.16227539 68.85540527 30.88705078 68.68432617 31.63378906 C67.91575959 34.98530453 67.14538811 38.33640278 66.375 41.6875 C66.11396484 42.82703125 65.85292969 43.9665625 65.58398438 45.140625 C64.08797227 51.6418134 62.5351125 58.12416907 60.90405273 64.59277344 C59.78515688 69.03480902 58.69688935 73.48390485 57.625 77.9375 C57.29749756 79.29814575 57.29749756 79.29814575 56.96337891 80.6862793 C55.60212372 86.43385826 54.52681427 92.16187207 53.6484375 98.00390625 C53.07549719 101.02883689 52.08932683 103.72512475 50.90625 106.55859375 C50.12442562 108.60238465 49.65283469 110.61333819 49.1875 112.75 C47.92184758 117.41709329 47.92184758 117.41709329 45.1875 119.4375 C42.91918945 119.77807617 42.91918945 119.77807617 40.30078125 119.73046875 C39.36298828 119.72080078 38.42519531 119.71113281 37.45898438 119.70117188 C36.48251953 119.67603516 35.50605469 119.65089844 34.5 119.625 C33.51193359 119.61146484 32.52386719 119.59792969 31.50585938 119.58398438 C29.06585769 119.54862203 26.62695281 119.49927033 24.1875 119.4375 C20.48571751 112.83794208 18.40745115 105.97983031 16.38220215 98.7272644 C15.80278305 96.65270939 15.21378168 94.58108997 14.62207031 92.51000977 C13.8347675 89.75306382 13.05034926 86.99532923 12.26855469 84.23681641 C10.85626152 79.27337777 9.41348717 74.31985182 7.9375 69.375 C7.70063477 68.5809375 7.46376953 67.786875 7.21972656 66.96875 C5.81159986 62.31580958 4.24820912 57.74913105 2.5625 53.1875 C0.52457401 47.65784096 -0.94041375 42.13850536 -2.2890625 36.41503906 C-3.69098975 30.60099802 -5.63637107 25.10917565 -7.70703125 19.49609375 C-9.89600867 13.43966505 -11.21135689 7.95216256 -10.8125 1.4375 C-8.48947523 -0.88552477 -3.11485837 0.06277338 0 0 Z " transform="translate(221.8125,177.5625)" style="fill: #F7F8F8;"/><path d="M0 0 C3.3 0.33 6.6 0.66 10 1 C10.33 1.99 10.66 2.98 11 4 C12.93827351 4.55848559 14.88316693 5.10445381 16.85546875 5.52734375 C19.64543899 6.14225522 22.30591238 7.05706933 25 8 C25 8.66 25 9.32 25 10 C26.32 10.33 27.64 10.66 29 11 C29 11.66 29 12.32 29 13 C30.30324219 13.42152344 30.30324219 13.42152344 31.6328125 13.8515625 C38.33116852 16.13615261 44.90884814 18.85355815 51.1875 22.125 C58.25702768 25.73190188 65.89187612 27.52659154 73.53662109 29.51293945 C78.17085245 30.73293819 82.5502461 32.23688996 87 34 C88.32893383 34.3504622 89.66151878 34.68797932 91 35 C91 35.66 91 36.32 91 37 C100.23697232 39.4791329 109.41664969 41.55458415 118.88232422 42.96020508 C121.9986476 43.43537913 124.84846679 43.9487951 127.84375 44.9609375 C177.05935263 61.16310371 241.6923488 54.45244144 291 42 C291.96164062 41.76539063 292.92328125 41.53078125 293.9140625 41.2890625 C301.66841674 39.38958091 309.34124061 37.25152516 317 35 C317.80663086 34.76345703 318.61326172 34.52691406 319.44433594 34.28320312 C322.08914906 33.50549152 324.73230702 32.7223837 327.375 31.9375 C328.20708984 31.69217529 329.03917969 31.44685059 329.89648438 31.1940918 C333.76125731 30.03875986 337.56645914 28.82128111 341.3359375 27.3828125 C344.01145876 26.3730742 346.47305218 25.53839417 349.25 24.9375 C352.81429906 24.21352584 352.81429906 24.21352584 355.0625 22.875 C358.07173665 21.5159899 360.7554771 21.75966497 364 22 C366 24 366 24 366.4375 26.75 C365.84607771 31.14342272 364.13607532 32.93361525 361 36 C359.33631717 36.67407839 357.66912194 37.3395046 356 38 C353.20734445 39.67149151 350.46249789 41.40064422 347.72851562 43.16601562 C344.86798316 44.97601336 342.37179906 46.46413951 339 47 C339 47.66 339 48.32 339 49 C336.09399739 50.25664978 334.20395416 51 331 51 C331 51.66 331 52.32 331 53 C322.35149852 57.68910939 313.9380505 61.22868918 304.49609375 63.95703125 C301.08308745 64.91522062 301.08308745 64.91522062 298.2109375 66.12890625 C295.67632441 67.12752589 293.70021989 67.15429828 291 67 C291 67.66 291 68.32 291 69 C287.05696098 71.45909961 282.75756118 71.82975806 278.25 72.5 C273.65967419 73.19619942 269.13770285 73.91715276 264.640625 75.0859375 C261.2487644 75.93754199 258.47443524 76.17372176 255 76 C255 76.66 255 77.32 255 78 C252.17368711 78.79240552 249.5870905 79.15139623 246.65625 79.24609375 C245.8209375 79.27896484 244.985625 79.31183594 244.125 79.34570312 C242.40634597 79.40580487 240.68759468 79.46320109 238.96875 79.51757812 C234.39762725 79.70223476 230.06914444 80.13660722 225.578125 81.01953125 C217.70983304 82.40898171 209.84862965 82.29927696 201.88378906 82.26074219 C199.26864123 82.25007603 196.65418882 82.26066161 194.0390625 82.2734375 C167.58932443 82.29466221 167.58932443 82.29466221 161 79 C154.11044547 77.75443082 147.24234312 76.97340188 140.25 76.6875 C131.47819736 76.14420141 123.35532341 73.55876604 115 71 C114.00484375 70.70609375 113.0096875 70.4121875 111.984375 70.109375 C109.65184037 69.41988363 107.32568516 68.71219078 105 68 C103.1252861 67.43654721 101.25028729 66.87404146 99.375 66.3125 C97.91666667 65.875 96.45833333 65.4375 95 65 C95 64.34 95 63.68 95 63 C93.88625 62.7525 92.7725 62.505 91.625 62.25 C86.55080873 60.99509248 81.80672978 59.02907036 77 57 C77 56.34 77 55.68 77 55 C76.17628906 54.92523438 75.35257812 54.85046875 74.50390625 54.7734375 C70.09920025 53.80116126 66.79407789 51.90077706 62.9375 49.625 C62.24333984 49.22539062 61.54917969 48.82578125 60.83398438 48.4140625 C57.94026087 46.74323259 55.06916094 45.04209796 52.21484375 43.3046875 C48.67709168 41.22072067 44.88770805 39.6854178 41.03125 38.28515625 C39.125 37.5625 39.125 37.5625 36 36 C35.0625 33.8125 35.0625 33.8125 35 32 C34.34 32 33.68 32 33 32 C32.56945312 31.566875 32.13890625 31.13375 31.6953125 30.6875 C28.95629481 27.96110452 25.53770121 26.36880763 22.1796875 24.5 C20 23 20 23 19 20 C18.175 19.67 17.35 19.34 16.5 19 C15.675 18.67 14.85 18.34 14 18 C13.67 17.01 13.34 16.02 13 15 C12.4225 14.855625 11.845 14.71125 11.25 14.5625 C6.29586131 13.32396533 2.72457959 9.13732457 0 5 C0 3.35 0 1.7 0 0 Z " transform="translate(85,334)" style="fill: #FA9701;"/><path d="M0 0 C0.515625 0.49113281 1.03125 0.98226562 1.5625 1.48828125 C1.5625 2.14828125 1.5625 2.80828125 1.5625 3.48828125 C2.14 3.71515625 2.7175 3.94203125 3.3125 4.17578125 C9.15010676 7.58105186 12.02855203 14.45955745 14.5625 20.48828125 C15.48718748 24.2635173 15.69682794 27.7994803 15.72021484 31.68041992 C15.73047699 32.90907272 15.74073914 34.13772552 15.75131226 35.40361023 C15.75475018 36.05536413 15.7581881 36.70711803 15.76173019 37.37862206 C15.77360908 39.43596567 15.79308601 41.49310772 15.81484985 43.55036926 C15.87614994 49.39752359 15.93033786 55.24465605 15.96386719 61.09204102 C15.98496993 64.67713412 16.02039577 68.26185597 16.06462479 71.846735 C16.08542938 73.85714907 16.09080521 75.86770408 16.09579468 77.8782196 C16.20788984 86.29840585 16.84477687 93.9587427 21.25 101.30078125 C22.89716772 104.04606079 23.04111945 105.32563902 22.5625 108.48828125 C18.42483726 112.77558822 13.537337 115.9287441 7.8125 117.55078125 C2.72024267 115.88600482 0.14003739 112.06814289 -2.4375 107.48828125 C-3.1328125 104.6875 -3.1328125 104.6875 -3.4375 102.48828125 C-6.47826114 104.14687823 -8.98390508 105.95119261 -11.5 108.30078125 C-20.80726628 116.467551 -32.1715796 119.84656149 -44.3125 119.80078125 C-45.15941406 119.81689453 -46.00632813 119.83300781 -46.87890625 119.84960938 C-55.26541118 119.85603089 -62.87621364 117.90847433 -69.4375 112.48828125 C-77.7782773 103.39756564 -81.84529758 94.02734888 -81.58203125 81.58203125 C-80.86429935 71.18461774 -76.58266113 63.06475288 -68.875 56.05078125 C-55.78159834 44.87121013 -39.82812954 45.43638961 -23.4375 46.48828125 C-17.69631933 47.12992465 -12.06631147 48.20344385 -6.4375 49.48828125 C-6.21170241 34.35275065 -6.21170241 34.35275065 -11.7578125 20.8828125 C-17.34430443 15.89591788 -23.07220829 13.95211693 -30.4375 14.05078125 C-31.1991748 14.05400391 -31.96084961 14.05722656 -32.74560547 14.06054688 C-42.79730684 14.29444805 -52.63074662 16.41149202 -62.4375 18.48828125 C-62.4375 19.14828125 -62.4375 19.80828125 -62.4375 20.48828125 C-65.91075181 21.64603185 -68.79817448 21.55694777 -72.4375 21.48828125 C-72.57276616 18.90319455 -72.67167653 16.32519373 -72.75 13.73828125 C-72.8128418 12.64386719 -72.8128418 12.64386719 -72.87695312 11.52734375 C-72.96157303 7.80406795 -72.85028679 5.94591965 -70.31640625 3.13671875 C-52.38018182 -7.13341247 -18.54691309 -11.50265283 0 0 Z " transform="translate(182.4375,180.51171875)" style="fill: #F7F8F9;"/><path d="M0 0 C0 0.66 0 1.32 0 2 C0.6290625 2.08636719 1.258125 2.17273438 1.90625 2.26171875 C14.46891946 4.32396419 14.46891946 4.32396419 18 9 C18.81476662 13.86445847 19.25825533 19.48348934 17 24 C11.62147913 24.32271125 8.70652194 23.49733817 4 21 C-2.52308656 18.97205951 -8.56974435 18.66523149 -15.375 18.6875 C-16.35210937 18.67138672 -17.32921875 18.65527344 -18.3359375 18.63867188 C-24.89109984 18.63431339 -30.93981078 19.35172175 -37 22 C-39.70994398 25.43954428 -39.47239187 30.20517458 -39.3828125 34.4921875 C-38.76507323 38.53901008 -36.96422067 41.23122245 -34 44 C-31.60470331 45.32481546 -31.60470331 45.32481546 -29 46 C-28.20722656 46.44472656 -27.41445313 46.88945312 -26.59765625 47.34765625 C-22.52436894 49.21844945 -18.52516955 50.25018048 -14.19042969 51.34619141 C-0.61409774 54.79126062 11.91990125 58.79632827 20.328125 70.9140625 C24.79237874 79.19941478 25.25263452 88.01357225 23.328125 97.2109375 C22.62865323 99.51391532 21.88457928 101.76222504 21 104 C20.34 104 19.68 104 19 104 C18.814375 104.680625 18.62875 105.36125 18.4375 106.0625 C13.64658136 115.8526381 3.40610862 120.12408841 -6.2734375 123.8828125 C-20.42744745 127.85488644 -40.84033499 125.87485045 -54 120 C-54.63550781 119.77441406 -55.27101563 119.54882812 -55.92578125 119.31640625 C-60.33009895 117.70240163 -62.03288277 116.21441732 -64 112 C-64.328125 108.703125 -64.328125 108.703125 -64.25 105.25 C-64.23453125 104.10015625 -64.2190625 102.9503125 -64.203125 101.765625 C-64 99 -64 99 -63 98 C-58.28241831 97.42468516 -55.66866326 98.66211841 -51.5703125 100.84375 C-39.71015523 106.17901832 -24.38396351 108.60047209 -11.8125 104.6875 C-6.86263448 102.66984053 -2.84350594 100.67317132 0 96 C0.72546221 91.59661308 0.66218547 87.41082863 0 83 C-5.17470127 76.14701724 -15.5372657 74.46158637 -23.41015625 71.88671875 C-24.50263672 71.52513672 -25.59511719 71.16355469 -26.72070312 70.79101562 C-28.94863152 70.05531747 -31.18046454 69.33134007 -33.41601562 68.61914062 C-44.94704196 64.75730251 -52.94020629 59.65480285 -59 49 C-59.598125 48.071875 -60.19625 47.14375 -60.8125 46.1875 C-64.24024763 39.87322805 -64.12615938 31.23435926 -62.31640625 24.4296875 C-58.16217049 14.53536665 -51.59148561 7.24859954 -41.99609375 2.51953125 C-29.10609323 -2.62206672 -13.53282415 -2.82222999 0 0 Z " transform="translate(446,176)" style="fill: #F6F7F8;"/><path d="M0 0 C1.38058594 -0.01836914 1.38058594 -0.01836914 2.7890625 -0.03710938 C10.45195764 -0.05329859 19.86670688 0.01253393 26 5.1875 C31.48439354 16.52580296 26.72944005 30.85781443 23.01953125 42.1796875 C18.88091087 53.02456212 12.33462016 67.49647606 2 73.1875 C1.67 73.8475 1.34 74.5075 1 75.1875 C-0.65 75.1875 -2.3 75.1875 -4 75.1875 C-4.18915251 70.79133473 -3.65360302 67.452731 -2.1875 63.3125 C-1.82140625 62.26707031 -1.4553125 61.22164063 -1.078125 60.14453125 C0.02169751 57.12798908 1.13770039 54.11887112 2.27734375 51.1171875 C4.51929499 45.13057177 6.20667937 39.53406505 7 33.1875 C7.33 32.8575 7.66 32.5275 8 32.1875 C8.07226502 30.33462498 8.0838122 28.47916122 8.0625 26.625 C8.05347656 25.61308594 8.04445313 24.60117187 8.03515625 23.55859375 C8.02355469 22.77613281 8.01195312 21.99367188 8 21.1875 C2.60622115 18.50014492 -1.50309839 17.76019028 -7.48828125 17.859375 C-8.27269089 17.86124817 -9.05710052 17.86312134 -9.86528015 17.86505127 C-11.50992129 17.87173193 -13.15454763 17.88556619 -14.79907227 17.90625 C-17.32257771 17.9376253 -19.84545871 17.94724857 -22.36914062 17.953125 C-23.97136183 17.96228747 -25.57357667 17.97266081 -27.17578125 17.984375 C-27.93095535 17.98862488 -28.68612946 17.99287476 -29.46418762 17.99725342 C-33.36045646 17.97960432 -33.36045646 17.97960432 -37 19.1875 C-38.70702735 19.25746014 -40.41668003 19.27190154 -42.125 19.25 C-43.03507812 19.24097656 -43.94515625 19.23195313 -44.8828125 19.22265625 C-45.93082031 19.20525391 -45.93082031 19.20525391 -47 19.1875 C-47.4375 16.5 -47.4375 16.5 -47 13.1875 C-44.16063818 10.0834519 -41.24517633 8.31996557 -37.0625 7.875 C-36.381875 7.978125 -35.70125 8.08125 -35 8.1875 C-35 7.5275 -35 6.8675 -35 6.1875 C-34.07316406 5.91035156 -33.14632813 5.63320313 -32.19140625 5.34765625 C-30.99386719 4.98542969 -29.79632813 4.62320312 -28.5625 4.25 C-27.36753906 3.89035156 -26.17257812 3.53070313 -24.94140625 3.16015625 C-22.14132455 2.47860858 -22.14132455 2.47860858 -21 1.1875 C-14.06521968 0.05578238 -7.0088569 0.00490816 0 0 Z " transform="translate(459,324.8125)" style="fill: #F69502;"/><path d="M0 0 C1.11290405 0.00012085 1.11290405 0.00012085 2.24829102 0.00024414 C16.79868424 0.14934212 16.79868424 0.14934212 22.875 3.1875 C23.16933684 12.99872799 23.28408924 21.17613845 16.875 29.1875 C11.72988127 34.1875 11.72988127 34.1875 8.875 34.1875 C8.875 34.8475 8.875 35.5075 8.875 36.1875 C2.92142725 38.7535781 -1.85614695 39.65991354 -8.3125 39.5625 C-9.48329102 39.57990234 -9.48329102 39.57990234 -10.67773438 39.59765625 C-16.55875434 39.5677274 -19.70217764 38.12575789 -24.3125 34.4375 C-28.21413929 29.59408571 -28.57880364 23.70159955 -28.44140625 17.68359375 C-27.76487429 12.34650827 -25.49823279 8.52552169 -21.6875 4.8125 C-14.87496949 0.4923587 -7.92753042 -0.00806281 0 0 Z " transform="translate(153.125,242.8125)" style="fill: #1B2E3F;"/><path d="M0 0 C7.52212546 -0.30088502 17.19537115 -0.40231442 24 3 C35.18937442 4.97416459 46.30357596 5.31611368 57.63769531 5.26074219 C60.26129951 5.24995353 62.88422793 5.26074431 65.5078125 5.2734375 C73.65476863 5.27929807 81.38431869 5.02229685 89.40722656 3.4453125 C93.52678068 2.73777326 97.58296532 2.78287168 101.75 2.875 C102.554375 2.88402344 103.35875 2.89304687 104.1875 2.90234375 C106.12513614 2.92541085 108.062614 2.96125228 110 3 C110 3.33 110 3.66 110 4 C109.03960815 4.12846313 109.03960815 4.12846313 108.05981445 4.25952148 C105.14381763 4.65052115 102.22815863 5.04398675 99.3125 5.4375 C98.30509766 5.57220703 97.29769531 5.70691406 96.25976562 5.84570312 C95.28330078 5.97783203 94.30683594 6.10996094 93.30078125 6.24609375 C91.95753784 6.42676392 91.95753784 6.42676392 90.5871582 6.61108398 C88.93078276 6.86007956 87.28051935 7.15735566 85.64421082 7.51522827 C83.06709759 7.98769878 80.72185816 8.1331974 78.10546875 8.14526367 C76.68874878 8.15483345 76.68874878 8.15483345 75.2434082 8.16459656 C73.73073364 8.16626579 73.73073364 8.16626579 72.1875 8.16796875 C71.14102295 8.17129715 70.0945459 8.17462555 69.01635742 8.17805481 C66.80745889 8.18310929 64.59855275 8.18546359 62.38964844 8.18530273 C59.01224217 8.18749206 55.63516115 8.20567143 52.2578125 8.22460938 C50.10937612 8.22754303 47.96093818 8.22952801 45.8125 8.23046875 C44.29982544 8.24124702 44.29982544 8.24124702 42.7565918 8.25224304 C41.81211182 8.24916641 40.86763184 8.24608978 39.89453125 8.24291992 C39.06800049 8.24434494 38.24146973 8.24576996 37.38989258 8.24723816 C34.64517837 7.96329314 32.52901615 7.07596661 30 6 C28.17316269 5.78776449 26.33723779 5.64578138 24.5 5.5625 C18.79135597 5.17439688 13.45687755 4.09340212 7.91015625 2.71875 C5.28305054 2.06990778 2.65724436 1.50893815 0 1 C0 0.67 0 0.34 0 0 Z " transform="translate(224,410)" style="fill: #413626;"/><path d="M0 0 C3.3 0.33 6.6 0.66 10 1 C10.33 1.99 10.66 2.98 11 4 C12.93827351 4.55848559 14.88316693 5.10445381 16.85546875 5.52734375 C19.64543899 6.14225522 22.30591238 7.05706933 25 8 C25 8.66 25 9.32 25 10 C26.32 10.66 27.64 11.32 29 12 C27.35 12 25.7 12 24 12 C23.67 11.34 23.34 10.68 23 10 C22.01 10 21.02 10 20 10 C19.67 10.66 19.34 11.32 19 12 C17.68 12 16.36 12 15 12 C15 13.98 15 15.96 15 18 C14.34 17.67 13.68 17.34 13 17 C13 16.34 13 15.68 13 15 C12.443125 14.9175 11.88625 14.835 11.3125 14.75 C6.36655682 13.14591032 2.80410386 9.25808364 0 5 C0 3.35 0 1.7 0 0 Z " transform="translate(85,334)" style="fill: #E08806;"/><path d="M0 0 C1.890625 0.81640625 1.890625 0.81640625 3.890625 3.81640625 C3.890625 4.80640625 3.890625 5.79640625 3.890625 6.81640625 C4.96546143 6.8414624 6.04029785 6.86651855 7.14770508 6.89233398 C11.13415522 6.9864812 15.12043409 7.0866841 19.10668945 7.1887207 C20.83223465 7.23204187 22.55782193 7.27371898 24.28344727 7.3137207 C26.76331264 7.37149151 29.24296672 7.43516628 31.72265625 7.5 C32.49462845 7.51671249 33.26660065 7.53342499 34.06196594 7.55064392 C37.24245433 7.6386852 39.85298084 7.8038582 42.890625 8.81640625 C42.890625 9.47640625 42.890625 10.13640625 42.890625 10.81640625 C42.39965332 10.65414551 41.90868164 10.49188477 41.40283203 10.32470703 C37.84202686 9.60424091 34.31238716 9.67396661 30.6953125 9.68359375 C29.90665802 9.68263702 29.11800354 9.6816803 28.30545044 9.68069458 C26.64292318 9.68001552 24.98039323 9.68185069 23.31787109 9.68603516 C20.76784353 9.69140158 18.21799095 9.68607361 15.66796875 9.6796875 C14.05208294 9.68034805 12.43619725 9.68162873 10.8203125 9.68359375 C10.05572723 9.68156952 9.29114197 9.67954529 8.50338745 9.67745972 C4.56832005 9.61437538 4.56832005 9.61437538 0.890625 10.81640625 C-0.81640235 10.88636639 -2.52605503 10.90080779 -4.234375 10.87890625 C-5.14445312 10.86988281 -6.05453125 10.86085938 -6.9921875 10.8515625 C-7.69085938 10.83996094 -8.38953125 10.82835937 -9.109375 10.81640625 C-9.546875 8.12890625 -9.546875 8.12890625 -9.109375 4.81640625 C-6.58596714 2.06359768 -3.86711609 -0.33658233 0 0 Z " transform="translate(421.109375,333.18359375)" style="fill: #E58A05;"/><path d="M0 0 C5.02339202 1.32194527 8.96109924 3.7083071 13.33203125 6.40625 C18.31770218 9.38451316 23.48284846 12.16094949 29 14 C29 14.66 29 15.32 29 16 C29.66 16.33 30.32 16.66 31 17 C29.68 17 28.36 17 27 17 C27 16.34 27 15.68 27 15 C24.36 14.67 21.72 14.34 19 14 C19 13.34 19 12.68 19 12 C17.865625 11.71125 16.73125 11.4225 15.5625 11.125 C14.386875 10.75375 13.21125 10.3825 12 10 C11.67 9.34 11.34 8.68 11 8 C10.01 7.67 9.02 7.34 8 7 C8 6.34 8 5.68 8 5 C7.01 5 6.02 5 5 5 C4.67 5.99 4.34 6.98 4 8 C2.35 8 0.7 8 -1 8 C-1.33 7.01 -1.66 6.02 -2 5 C-0.02 5 1.96 5 4 5 C4 4.34 4 3.68 4 3 C3.01 3 2.02 3 1 3 C0.67 2.01 0.34 1.02 0 0 Z " transform="translate(133,375)" style="fill: #4E3C1E;"/><path d="M0 0 C1.6260287 0.06000106 3.25101549 0.1487885 4.875 0.25 C6.23238281 0.31960938 6.23238281 0.31960938 7.6171875 0.390625 C10 1 10 1 11.3203125 3.046875 C11.54460937 3.69140625 11.76890625 4.3359375 12 5 C6.25 10 6.25 10 4 10 C0.04046763 5.92401079 0.04046763 5.92401079 -0.1171875 2.32421875 C-0.07851562 1.55722656 -0.03984375 0.79023438 0 0 Z " transform="translate(85,334)" style="fill: #ED9105;"/><path d="M0 0 C0 0.66 0 1.32 0 2 C0.66 2.33 1.32 2.66 2 3 C2 3.66 2 4.32 2 5 C0.02 5 -1.96 5 -4 5 C-3.34 5.33 -2.68 5.66 -2 6 C-2 6.66 -2 7.32 -2 8 C-8.95023264 7.35346673 -15.38177303 5.13972752 -22 3 C-18.59333455 2.02342257 -15.56356489 2.03843479 -12.0234375 2.09765625 C-7.73706044 1.89078477 -4.38784971 0 0 0 Z " transform="translate(198,368)" style="fill: #172A36;"/><path d="M0 0 C1.4473648 2.8947296 0.47579285 4.54185159 -0.375 7.625 C-1.64606018 12.44226003 -2.52366274 17.04609245 -3 22 C-3.66 22 -4.32 22 -5 22 C-6.13764351 17.73383684 -7 14.43513689 -7 10 C-6.01 10 -5.02 10 -4 10 C-3.67 7.03 -3.34 4.06 -3 1 C-2.01 0.67 -1.02 0.34 0 0 Z " transform="translate(262,250)" style="fill: #2E3D49;"/><path d="M0 0 C1.98 0 3.96 0 6 0 C6 0.66 6 1.32 6 2 C6.66 2.33 7.32 2.66 8 3 C6.68 3 5.36 3 4 3 C4.33 3.99 4.66 4.98 5 6 C2.36 5.67 -0.28 5.34 -3 5 C-1.94124926 8.40312738 -0.99097846 11.01353231 1 14 C-2.875 12.125 -2.875 12.125 -4 11 C-4.14115161 8.32941149 -4.04247107 5.67567762 -4 3 C-5.32 2.67 -6.64 2.34 -8 2 C-8 1.67 -8 1.34 -8 1 C-2.25 0.875 -2.25 0.875 0 2 C0 1.34 0 0.68 0 0 Z " transform="translate(88,329)" style="fill: #2B322A;"/><path d="M0 0 C7.52212546 -0.30088502 17.19537115 -0.40231442 24 3 C26.70872518 3.39227838 29.40751693 3.74569498 32.125 4.0625 C32.87910156 4.15337891 33.63320313 4.24425781 34.41015625 4.33789062 C36.27304188 4.56190852 38.13647252 4.78138573 40 5 C40 5.33 40 5.66 40 6 C28.98257581 6.21937349 18.62770315 5.37489545 7.91015625 2.71875 C5.28305054 2.06990778 2.65724436 1.50893815 0 1 C0 0.67 0 0.34 0 0 Z " transform="translate(224,410)" style="fill: #9F640E;"/><path d="M0 0 C1.06775224 1.96466413 2.06553465 3.96855359 3 6 C2.67 6.66 2.34 7.32 2 8 C1.01 8 0.02 8 -1 8 C-1.66 6.68 -2.32 5.36 -3 4 C-3.78375 4.78375 -4.5675 5.5675 -5.375 6.375 C-10 11 -10 11 -13.125 11.125 C-14.548125 11.063125 -14.548125 11.063125 -16 11 C-15.34 10.484375 -14.68 9.96875 -14 9.4375 C-10.8400386 6.87003137 -7.85370524 4.1563496 -4.8671875 1.390625 C-3 0 -3 0 0 0 Z " transform="translate(179,283)" style="fill: #404E5A;"/><path d="M0 0 C10.90671099 -0.44517188 21.81252707 1.0679929 32 5 C32 5.33 32 5.66 32 6 C21.12430216 6.50584641 10.42835801 3.81847514 0 1 C0 0.67 0 0.34 0 0 Z " transform="translate(204,377)" style="fill: #4F3B21;"/><path d="M0 0 C1.60379341 -0.05416188 3.20811406 -0.09286638 4.8125 -0.125 C5.70582031 -0.14820313 6.59914063 -0.17140625 7.51953125 -0.1953125 C10 0 10 0 13 2 C13.40843923 4.71203652 13.13336867 7.2437142 13 10 C13.66 10.33 14.32 10.66 15 11 C14.34 11.66 13.68 12.32 13 13 C10.375 12.625 10.375 12.625 8 12 C8.66 11.01 9.32 10.02 10 9 C10.2502157 5.91634129 10.2502157 5.91634129 10 3 C8.85817652 1.64162574 8.85817652 1.64162574 5.8125 1.75 C1.74136241 2.01695984 -0.42289635 3.17170258 -4 5 C-6.375 4.6875 -6.375 4.6875 -8 4 C-5.09399739 2.74335022 -3.20395416 2 0 2 C0 1.34 0 0.68 0 0 Z " transform="translate(440,355)" style="fill: #6F4C19;"/><path d="M0 0 C0 0.66 0 1.32 0 2 C-1.91054275 2.47763569 -3.82149497 2.95368758 -5.734375 3.421875 C-7.75369311 3.93714928 -9.75386768 4.5261603 -11.75 5.125 C-17.08494782 6.49074664 -22.53542168 6.16393735 -28 6 C-28 5.67 -28 5.34 -28 5 C-26.90945313 4.83564453 -26.90945313 4.83564453 -25.796875 4.66796875 C-19.28244166 3.64069272 -12.95887364 2.31410279 -6.59375 0.5859375 C-4 0 -4 0 0 0 Z " transform="translate(368,405)" style="fill: #60451C;"/><path d="M0 0 C-0.5347998 0.14622803 -1.06959961 0.29245605 -1.62060547 0.44311523 C-4.03933339 1.10575521 -6.45717096 1.77158806 -8.875 2.4375 C-9.71675781 2.66759766 -10.55851562 2.89769531 -11.42578125 3.13476562 C-12.23144531 3.35712891 -13.03710938 3.57949219 -13.8671875 3.80859375 C-14.98262939 4.11494751 -14.98262939 4.11494751 -16.12060547 4.42749023 C-18.0636295 4.96216267 -18.0636295 4.96216267 -20 6 C-21.99960012 6.039992 -24.00047242 6.04346799 -26 6 C-26 5.34 -26 4.68 -26 4 C-20.555 3.505 -20.555 3.505 -15 3 C-14.67 2.01 -14.34 1.02 -14 0 C-11.9375 -0.6875 -11.9375 -0.6875 -10 -1 C-10 -0.34 -10 0.32 -10 1 C-9.34 1 -8.68 1 -8 1 C-8 0.34 -8 -0.32 -8 -1 C-3.375 -2.25 -3.375 -2.25 0 0 Z " transform="translate(402,370)" style="fill: #282D2D;"/><path d="M0 0 C0.66 0.33 1.32 0.66 2 1 C4.02463255 1.65213292 4.02463255 1.65213292 6 2 C6.33 1.67 6.66 1.34 7 1 C8.99958364 0.95919217 11.00045254 0.95745644 13 1 C12.01 1.66 11.02 2.32 10 3 C10.66 4.32 11.32 5.64 12 7 C5.79011871 6.55643705 1.39459439 5.08467498 -4 2 C-2.125 0.9375 -2.125 0.9375 0 0 Z " transform="translate(136,353)" style="fill: #222B32;"/><path d="M0 0 C1.95273962 2.92910944 2.75396363 5.08132291 3.6875 8.4375 C3.95949219 9.38496094 4.23148438 10.33242187 4.51171875 11.30859375 C4.99803744 13.98918237 4.89369149 15.46287583 4 18 C3.01 18 2.02 18 1 18 C1 17.01 1 16.02 1 15 C0.34 15 -0.32 15 -1 15 C-0.9278125 14.25234375 -0.855625 13.5046875 -0.78125 12.734375 C-0.64203125 11.25710937 -0.64203125 11.25710937 -0.5 9.75 C-0.36078125 8.28820312 -0.36078125 8.28820312 -0.21875 6.796875 C-0.04199832 4.53697847 0 2.26679807 0 0 Z " transform="translate(227,238)" style="fill: #2A3B4B;"/><path d="M0 0 C0 0.33 0 0.66 0 1 C-10.06979989 2.35067975 -19.82241303 3.31860272 -30 3 C-30 2.67 -30 2.34 -30 2 C-19.95726488 -0.2054634 -10.21548751 -0.20430975 0 0 Z " transform="translate(334,413)" style="fill: #885712;"/><path d="M0 0 C-3.7559214 3.42931954 -8.23466745 4.56429083 -13 6 C-12.67 4.02 -12.34 2.04 -12 0 C-7.91556885 -1.53166168 -4.20544343 -0.63081652 0 0 Z " transform="translate(416,386)" style="fill: #EB8F05;"/><path d="M0 0 C0.33 0 0.66 0 1 0 C1.39753288 6.3605261 0.39655236 10.37464928 -2.5 16 C-3.00080078 17.01900391 -3.00080078 17.01900391 -3.51171875 18.05859375 C-4.32712952 19.71271274 -5.16159728 21.35741507 -6 23 C-6.66 23 -7.32 23 -8 23 C-6.82508471 19.27943493 -5.47648094 15.67106349 -4 12.0625 C-2.38632158 8.08249464 -1.0835109 4.15345846 0 0 Z " transform="translate(484,357)" style="fill: #493722;"/><path d="M0 0 C5.04737558 2.43021787 9.09153067 4.95675586 13 9 C13.66 9.33 14.32 9.66 15 10 C15 10.66 15 11.32 15 12 C14.01 12 13.02 12 12 12 C12 11.34 12 10.68 12 10 C8.37 9.01 4.74 8.02 1 7 C1.66 6.01 2.32 5.02 3 4 C2.01 4 1.02 4 0 4 C0 2.68 0 1.36 0 0 Z " transform="translate(89,344)" style="fill: #373228;"/><path d="M0 0 C2.0625 0.4375 2.0625 0.4375 4 1 C5.36884358 5.51718381 4.47075246 8.58774263 3 13 C2.34 12.67 1.68 12.34 1 12 C0.33203125 9.53125 0.33203125 9.53125 -0.1875 6.5 C-0.36667969 5.4996875 -0.54585938 4.499375 -0.73046875 3.46875 C-0.81941406 2.6540625 -0.90835937 1.839375 -1 1 C-0.67 0.67 -0.34 0.34 0 0 Z " transform="translate(324,258)" style="fill: #1A2C3C;"/><path d="M0 0 C2.1464753 0.11344376 4.29220592 0.24106345 6.4375 0.375 C8.22994141 0.47941406 8.22994141 0.47941406 10.05859375 0.5859375 C11.02925781 0.72257812 11.99992188 0.85921875 13 1 C13.33 1.66 13.66 2.32 14 3 C17.02934491 3.65772428 17.02934491 3.65772428 20 4 C20 4.66 20 5.32 20 6 C13.04976736 5.35346673 6.61822697 3.13972752 0 1 C0 0.67 0 0.34 0 0 Z " transform="translate(176,370)" style="fill: #6B4818;"/><path d="M0 0 C3.74817794 0.28288135 6.07469317 1.39982467 9.3125 3.25 C7.3325 4.24 7.3325 4.24 5.3125 5.25 C4.9825 4.59 4.6525 3.93 4.3125 3.25 C2.3325 3.58 0.3525 3.91 -1.6875 4.25 C-2.0175 7.55 -2.3475 10.85 -2.6875 14.25 C-3.0175 14.25 -3.3475 14.25 -3.6875 14.25 C-3.71435938 12.10423363 -3.73383088 9.95837355 -3.75 7.8125 C-3.76160156 6.61753906 -3.77320313 5.42257812 -3.78515625 4.19140625 C-3.6572946 0.34021345 -3.6572946 0.34021345 0 0 Z " transform="translate(385.6875,273.75)" style="fill: #C4CBD0;"/><path d="M0 0 C0 1.98 0 3.96 0 6 C-2.31 5.67 -4.62 5.34 -7 5 C-7.33 5.99 -7.66 6.98 -8 8 C-9.32 7.67 -10.64 7.34 -12 7 C-10.3790787 5.82767315 -8.75313167 4.6622923 -7.125 3.5 C-6.22007812 2.8503125 -5.31515625 2.200625 -4.3828125 1.53125 C-2 0 -2 0 0 0 Z " transform="translate(444,370)" style="fill: #463922;"/><path d="M0 0 C2.9375 0.8125 2.9375 0.8125 6 2 C6.33 2.99 6.66 3.98 7 5 C6.34 5 5.68 5 5 5 C4.67 5.99 4.34 6.98 4 8 C2.35 8 0.7 8 -1 8 C-1.33 7.01 -1.66 6.02 -2 5 C-0.02 5 1.96 5 4 5 C4 4.34 4 3.68 4 3 C3.01 3 2.02 3 1 3 C0.67 2.01 0.34 1.02 0 0 Z " transform="translate(133,375)" style="fill: #35382B;"/><path d="M0 0 C2.66666667 1.33333333 5.33333333 2.66666667 8 4 C8 4.33 8 4.66 8 5 C6.35 5 4.7 5 3 5 C3 5.66 3 6.32 3 7 C3.66 7.33 4.32 7.66 5 8 C3.515 8.99 3.515 8.99 2 10 C0 3.375 0 3.375 0 0 Z " transform="translate(105,357)" style="fill: #2A302E;"/><path d="M0 0 C1.32 0.33 2.64 0.66 4 1 C3.01 2.485 3.01 2.485 2 4 C2.66 4.33 3.32 4.66 4 5 C4 5.66 4 6.32 4 7 C-0.23429756 5.68938409 -4.07407404 4.05643741 -8 2 C-4.94736336 1.01879536 -3.05263664 1.01879536 0 2 C0 1.34 0 0.68 0 0 Z " transform="translate(122,345)" style="fill: #453B23;"/><path d="M0 0 C3.66172475 0.62678171 6.8818995 1.64451846 10.3125 3.0625 C11.19550781 3.42472656 12.07851562 3.78695313 12.98828125 4.16015625 C13.65214844 4.43730469 14.31601563 4.71445312 15 5 C15 5.33 15 5.66 15 6 C11.4588979 6.08047959 8.40590348 5.97311528 5 5 C4.34 5 3.68 5 3 5 C3 4.34 3 3.68 3 3 C2.01 2.67 1.02 2.34 0 2 C0 1.34 0 0.68 0 0 Z " transform="translate(165,392)" style="fill: #3C3425;"/><path d="M0 0 C-6.79219135 4.17981006 -12.11397658 4.4731614 -20 4 C-17.39133036 1.39133036 -15.61788317 1.45496165 -12 0.9375 C-1.81327577 -0.54398273 -1.81327577 -0.54398273 0 0 Z " transform="translate(388,375)" style="fill: #B16E0C;"/><path d="M0 0 C1.48117801 0.28127421 2.95993249 0.57533732 4.4375 0.875 C5.67306641 1.11863281 5.67306641 1.11863281 6.93359375 1.3671875 C7.61550781 1.57601563 8.29742187 1.78484375 9 2 C9.33 2.66 9.66 3.32 10 4 C11.32 4 12.64 4 14 4 C13.67 5.32 13.34 6.64 13 8 C11.32986582 7.34206835 9.6642135 6.67276716 8 6 C7.38769531 5.77054687 6.77539062 5.54109375 6.14453125 5.3046875 C4.39493678 4.61927936 2.69350706 3.81418609 1 3 C0.67 2.01 0.34 1.02 0 0 Z " transform="translate(120,367)" style="fill: #B06C0D;"/><path d="M0 0 C2.12046792 3.53411321 2.53199289 6.94393835 3 11 C1.35 10.67 -0.3 10.34 -2 10 C-1.85950482 8.52031676 -1.71245174 7.04125484 -1.5625 5.5625 C-1.48128906 4.73878906 -1.40007812 3.91507813 -1.31640625 3.06640625 C-1 1 -1 1 0 0 Z " transform="translate(291,206)" style="fill: #3D4A56;"/><path d="M0 0 C2.4294516 3.6441774 2.16179575 5.71241272 2 10 C-0.475 9.01 -0.475 9.01 -3 8 C-3 6.02 -3 4.04 -3 2 C-2.67 2.66 -2.34 3.32 -2 4 C-1.34 4 -0.68 4 0 4 C0 2.68 0 1.36 0 0 Z " transform="translate(211,186)" style="fill: #203343;"/><path d="M0 0 C6.86049678 0.71463508 12.92257223 2.70805996 19 6 C16.36 6.33 13.72 6.66 11 7 C10.67 6.01 10.34 5.02 10 4 C7.67108904 2.97299556 7.67108904 2.97299556 4.9375 2.3125 C4.01839844 2.06113281 3.09929687 1.80976563 2.15234375 1.55078125 C1.44207031 1.36902344 0.73179687 1.18726563 0 1 C0 0.67 0 0.34 0 0 Z " transform="translate(157,364)" style="fill: #965F10;"/><path d="M0 0 C0.5859375 1.84375 0.5859375 1.84375 1 4 C0.54625 4.825 0.0925 5.65 -0.375 6.5 C-2.70962422 11.52842139 -2.74264344 16.51564296 -3 22 C-3.33 22 -3.66 22 -4 22 C-4.46251848 13.68751509 -4.22550835 7.30032023 0 0 Z " transform="translate(387,194)" style="fill: #AAB2BA;"/><path d="M0 0 C-4.81384901 3.81788025 -10.10647769 3.70067925 -16 4 C-13.2034121 1.68118908 -10.99090062 0.49555275 -7.4375 -0.25 C-6.67308594 -0.42015625 -5.90867187 -0.5903125 -5.12109375 -0.765625 C-3 -1 -3 -1 0 0 Z " transform="translate(416,367)" style="fill: #B66F0D;"/><path d="M0 0 C0.99 0 1.98 0 3 0 C3 3.63 3 7.26 3 11 C2.34 11 1.68 11 1 11 C-0.20272819 8.59454362 -0.10071472 7.05003047 -0.0625 4.375 C-0.05347656 3.55773437 -0.04445312 2.74046875 -0.03515625 1.8984375 C-0.02355469 1.27195312 -0.01195312 0.64546875 0 0 Z " transform="translate(256,261)" style="fill: #46525D;"/><path d="M0 0 C0.33 1.32 0.66 2.64 1 4 C0.34 4 -0.32 4 -1 4 C-1.061875 4.763125 -1.12375 5.52625 -1.1875 6.3125 C-2 9 -2 9 -4.5625 10.8125 C-5.366875 11.204375 -6.17125 11.59625 -7 12 C-5.44298069 7.32894208 -2.91552627 3.91294315 0 0 Z " transform="translate(475,380)" style="fill: #4D3B1E;"/><path d="M0 0 C0 0.66 0 1.32 0 2 C-0.66 2 -1.32 2 -2 2 C-1.67 2.99 -1.34 3.98 -1 5 C-5.75 6.125 -5.75 6.125 -8 5 C-8 4.34 -8 3.68 -8 3 C-2.25 0 -2.25 0 0 0 Z " transform="translate(432,378)" style="fill: #413829;"/><path d="M0 0 C6.0546875 -0.1953125 6.0546875 -0.1953125 8 0 C8.66 0.66 9.32 1.32 10 2 C6.38026598 3.31626692 3.90432869 4 0 4 C0 2.68 0 1.36 0 0 Z " transform="translate(360,376)" style="fill: #30302B;"/><path d="M0 0 C0.99 0 1.98 0 3 0 C4.06775224 1.96466413 5.06553465 3.96855359 6 6 C5.67 6.66 5.34 7.32 5 8 C4.01 8 3.02 8 2 8 C0.25 5.6875 0.25 5.6875 -1 3 C-0.67 2.01 -0.34 1.02 0 0 Z " transform="translate(176,283)" style="fill: #364552;"/><path d="M0 0 C1.4606285 2.64738916 2 3.89448334 2 7 C1.01 7.66 0.02 8.32 -1 9 C-2.06246527 10.96752828 -3.07137808 12.96587579 -4 15 C-4.33 14.34 -4.66 13.68 -5 13 C-4.2578125 10.9765625 -4.2578125 10.9765625 -3.125 8.625 C-1.75438442 5.75916741 -0.66759978 3.11073087 0 0 Z " transform="translate(462,374)" style="fill: #BB7908;"/><path d="M0 0 C0 2 0 2 -1 3 C1.91765 4.9451 3.62537285 5.45276317 7 6 C7 6.33 7 6.66 7 7 C3.7 7 0.4 7 -3 7 C-3.04254356 5.00045254 -3.04080783 2.99958364 -3 1 C-2 0 -2 0 0 0 Z " transform="translate(415,337)" style="fill: #CB7B0A;"/><path d="M0 0 C0.33 0 0.66 0 1 0 C1.22126178 2.45779976 1.42750395 4.91527648 1.625 7.375 C1.68945312 8.07367188 1.75390625 8.77234375 1.8203125 9.4921875 C1.96119739 11.32369111 1.98761659 13.16312748 2 15 C1.34 15.66 0.68 16.32 0 17 C-2 14 -2 14 -1.66015625 12.140625 C-1.44230469 11.43421875 -1.22445313 10.7278125 -1 10 C-0.7856066 8.25309081 -0.59892347 6.5025977 -0.4375 4.75 C-0.35371094 3.85796875 -0.26992188 2.9659375 -0.18359375 2.046875 C-0.12300781 1.37140625 -0.06242187 0.6959375 0 0 Z " transform="translate(380,276)" style="fill: #0D2031;"/><path d="M0 0 C0.66 0.33 1.32 0.66 2 1 C1.67 1.99 1.34 2.98 1 4 C0.34 4 -0.32 4 -1 4 C-1.4021875 5.2065625 -1.4021875 5.2065625 -1.8125 6.4375 C-2.204375 7.283125 -2.59625 8.12875 -3 9 C-3.99 9.33 -4.98 9.66 -6 10 C-4.79157144 5.56909529 -3.48331435 3.01887244 0 0 Z " transform="translate(132,247)" style="fill: #45515D;"/><path d="M0 0 C3.09038848 1.54519424 5.56246661 3.56246661 8 6 C3.43545749 5.45660208 0.0271824 4.20536179 -4 2 C-2.125 0.9375 -2.125 0.9375 0 0 Z " transform="translate(136,353)" style="fill: #5D421B;"/><path d="M0 0 C0.66 0.33 1.32 0.66 2 1 C1.01 2.485 1.01 2.485 0 4 C0.99 4 1.98 4 3 4 C3 3.01 3 2.02 3 1 C4.65 1.33 6.3 1.66 8 2 C7.01 2.33 6.02 2.66 5 3 C5 3.66 5 4.32 5 5 C3.02 5.33 1.04 5.66 -1 6 C-1 5.34 -1 4.68 -1 4 C-1.66 3.67 -2.32 3.34 -3 3 C-2.34 3 -1.68 3 -1 3 C-0.67 2.01 -0.34 1.02 0 0 Z " transform="translate(419,328)" style="fill: #2E3129;"/><path d="M0 0 C0.33 0.66 0.66 1.32 1 2 C1.66 2.33 2.32 2.66 3 3 C1.68 3 0.36 3 -1 3 C-0.67 3.99 -0.34 4.98 0 6 C-2.64 5.67 -5.28 5.34 -8 5 C-8 4.34 -8 3.68 -8 3 C-5.36 2.67 -2.72 2.34 0 2 C0 1.34 0 0.68 0 0 Z " transform="translate(93,329)" style="fill: #453925;"/><path d="M0 0 C0.33 0 0.66 0 1 0 C1 1.65 1 3.3 1 5 C1.66 5 2.32 5 3 5 C3 6.65 3 8.3 3 10 C2.01 10 1.02 10 0 10 C-1.125 2.25 -1.125 2.25 0 0 Z " transform="translate(254,250)" style="fill: #1F303F;"/><path d="M0 0 C6.93 0.495 6.93 0.495 14 1 C14 2.32 14 3.64 14 5 C12.22739369 4.54857225 10.4569632 4.08859477 8.6875 3.625 C7.20830078 3.24214844 7.20830078 3.24214844 5.69921875 2.8515625 C3 2 3 2 0 0 Z " transform="translate(446,177)" style="fill: #68727C;"/><path d="M0 0 C0.33 0 0.66 0 1 0 C0.67 2.31 0.34 4.62 0 7 C0.66 7 1.32 7 2 7 C1.67 9.31 1.34 11.62 1 14 C0.67 12.68 0.34 11.36 0 10 C-0.66 10 -1.32 10 -2 10 C-1.34 6.7 -0.68 3.4 0 0 Z " transform="translate(333,232)" style="fill: #2A3C4B;"/><path d="M0 0 C0.33 1.32 0.66 2.64 1 4 C0.34 4 -0.32 4 -1 4 C-1.33 4.99 -1.66 5.98 -2 7 C-3.65 7.33 -5.3 7.66 -7 8 C-6.02133662 6.85373678 -5.04205413 5.70800212 -4.0625 4.5625 C-3.51722656 3.92441406 -2.97195313 3.28632813 -2.41015625 2.62890625 C-1.63204305 1.73008851 -0.84063472 0.84063472 0 0 Z " transform="translate(463,284)" style="fill: #424E5A;"/><path d="M0 0 C2.57619276 1.91315119 2.98395232 2.9016314 3.51171875 6.13671875 C3.56972656 7.30847656 3.62773437 8.48023438 3.6875 9.6875 C3.75324219 10.86699219 3.81898438 12.04648437 3.88671875 13.26171875 C3.92410156 14.16535156 3.96148437 15.06898438 4 16 C2.14353999 13.21530998 1.54842185 11.7318584 0.875 8.5625 C0.70742188 7.80066406 0.53984375 7.03882813 0.3671875 6.25390625 C0 4 0 4 0 0 Z " transform="translate(303,254)" style="fill: #A1ABB2;"/><path d="M0 0 C2.58464442 4.38008443 1.81479148 7.11125113 1 12 C0.34 11.34 -0.32 10.68 -1 10 C-0.9765625 7.6171875 -0.9765625 7.6171875 -0.625 4.875 C-0.51414062 3.96492187 -0.40328125 3.05484375 -0.2890625 2.1171875 C-0.19367188 1.41851562 -0.09828125 0.71984375 0 0 Z " transform="translate(273,192)" style="fill: #213444;"/><path d="M0 0 C0.66 0.33 1.32 0.66 2 1 C0.50164772 5.66154042 -2.88463591 6.86610751 -7 9 C-5.44499019 5.18315774 -2.96404505 2.80804268 0 0 Z " transform="translate(115,235)" style="fill: #C2C9CE;"/><path d="M0 0 C-1.5830577 4.2742558 -4.50568404 6.26531794 -8 9 C-6.68994234 5.06982701 -4.75047804 0 0 0 Z " transform="translate(396,185)" style="fill: #C3C9CE;"/><path d="M0 0 C2.97 0.495 2.97 0.495 6 1 C3.37801226 3.15377564 1.35595828 4.40072174 -2 5 C-1.34 3.35 -0.68 1.7 0 0 Z " transform="translate(410,385)" style="fill: #D78207;"/><path d="M0 0 C0 0.66 0 1.32 0 2 C1.98 1.67 3.96 1.34 6 1 C3.04816899 3.95183101 0.04488053 4.08663988 -4 5 C-4 1.6442809 -3.65717785 0 0 0 Z " transform="translate(418,361)" style="fill: #31332B;"/><path d="M0 0 C0.66 1.98 1.32 3.96 2 6 C-0.64 4.68 -3.28 3.36 -6 2 C-4 0 -4 0 0 0 Z " transform="translate(484,325)" style="fill: #2B2D2A;"/><path d="M0 0 C1.27875 0.103125 2.5575 0.20625 3.875 0.3125 C4.95394531 0.39951172 4.95394531 0.39951172 6.0546875 0.48828125 C8 1 8 1 10 4 C3.47692308 3.38461538 3.47692308 3.38461538 1.0625 1.4375 C0.711875 0.963125 0.36125 0.48875 0 0 Z " transform="translate(390,294)" style="fill: #B5BBBF;"/><path d="M0 0 C4.75 0.75 4.75 0.75 7 3 C1.25 4 1.25 4 -1 4 C-0.67 2.68 -0.34 1.36 0 0 Z " transform="translate(433,251)" style="fill: #223341;"/><path d="M0 0 C3.3 0.33 6.6 0.66 10 1 C10 1.33 10 1.66 10 2 C7.69 2 5.38 2 3 2 C3 2.66 3 3.32 3 4 C2.01 4 1.02 4 0 4 C0 2.68 0 1.36 0 0 Z " transform="translate(200,377)" style="fill: #D48107;"/><path d="M0 0 C3.63 0.33 7.26 0.66 11 1 C11 1.33 11 1.66 11 2 C8.03 2 5.06 2 2 2 C2 2.66 2 3.32 2 4 C1.01 3.67 0.02 3.34 -1 3 C-0.67 2.01 -0.34 1.02 0 0 Z " transform="translate(438,353)" style="fill: #2E312A;"/><path d="M0 0 C0.86625 0.3403125 0.86625 0.3403125 1.75 0.6875 C0 2.25 0 2.25 -2.25 3.6875 C-4.5 3.375 -4.5 3.375 -6.25 2.6875 C-2.80384615 -0.38942308 -2.80384615 -0.38942308 0 0 Z " transform="translate(421.25,333.3125)" style="fill: #B9710B;"/><path d="M0 0 C0.33 0 0.66 0 1 0 C1.33 3.3 1.66 6.6 2 10 C1.01 10 0.02 10 -1 10 C-1.33 8.35 -1.66 6.7 -2 5 C-1.34 5 -0.68 5 0 5 C0 3.35 0 1.7 0 0 Z " transform="translate(307,270)" style="fill: #3D4B58;"/><path d="M0 0 C0 1.65 0 3.3 0 5 C-1.65 4.67 -3.3 4.34 -5 4 C-3.8732544 0.61976321 -3.52080611 0 0 0 Z " transform="translate(416,216)" style="fill: #2F3E50;"/><path d="M0 0 C0 3 0 3 -1 5 C-3.5625 5.625 -3.5625 5.625 -6 6 C-4.75453595 2.26360784 -3.36595047 1.81243487 0 0 Z " transform="translate(466,394)" style="fill: #403523;"/><path d="M0 0 C0.66 0 1.32 0 2 0 C2.6875 1.8125 2.6875 1.8125 3 4 C1.5625 5.75 1.5625 5.75 0 7 C-1.125 2.25 -1.125 2.25 0 0 Z " transform="translate(465,280)" style="fill: #31414D;"/><path d="M0 0 C1.32 0.33 2.64 0.66 4 1 C3.67 2.98 3.34 4.96 3 7 C2.34 6.67 1.68 6.34 1 6 C0.375 2.9375 0.375 2.9375 0 0 Z " transform="translate(324,264)" style="fill: #293643;"/></svg>