<svg id="svg" version="1.1" xmlns="http://www.w3.org/2000/svg" xmlns:xlink="http://www.w3.org/1999/xlink" width="400" height="400" viewBox="0, 0, 400,400"><g id="svgg"><path id="path0" d="M0.168 28.700 C 0.269 44.485,0.464 58.390,0.600 59.600 C 0.736 60.810,0.941 62.880,1.054 64.200 C 1.167 65.520,1.353 67.544,1.468 68.698 C 1.636 70.379,1.550 70.844,1.038 71.041 C 0.687 71.175,0.403 71.581,0.406 71.943 C 0.411 72.514,0.464 72.521,0.806 72.000 C 1.475 70.981,1.862 72.153,2.168 76.131 C 2.323 78.149,2.504 80.520,2.571 81.400 C 3.109 88.479,3.272 90.193,3.428 90.446 C 3.527 90.605,3.323 91.020,2.975 91.368 C 2.402 91.941,2.402 92.000,2.971 92.000 C 3.436 92.000,3.613 92.443,3.652 93.700 C 3.706 95.498,3.731 95.788,4.199 100.200 C 4.363 101.740,4.575 104.080,4.671 105.400 C 4.766 106.720,4.942 108.745,5.061 109.900 C 5.225 111.497,5.148 112.003,4.739 112.013 C 4.375 112.021,4.437 112.205,4.931 112.579 C 5.499 113.010,5.644 113.607,5.582 115.266 C 5.539 116.440,5.600 117.670,5.719 118.000 C 5.919 118.558,6.331 122.592,6.618 126.800 C 6.685 127.790,6.840 129.680,6.961 131.000 C 7.937 141.580,7.952 142.611,7.132 142.550 C 6.733 142.520,6.545 142.711,6.665 143.024 C 6.776 143.313,7.121 143.452,7.433 143.332 C 7.845 143.174,8.021 143.481,8.078 144.457 C 8.121 145.196,8.222 146.430,8.302 147.200 C 8.382 147.970,8.511 149.739,8.589 151.132 C 8.667 152.525,8.837 153.770,8.966 153.899 C 9.443 154.377,9.210 158.000,8.700 158.012 C 8.423 158.019,8.512 158.206,8.900 158.432 C 9.742 158.922,9.942 163.200,9.124 163.200 C 8.839 163.200,8.903 163.402,9.282 163.700 C 9.937 164.216,10.099 165.481,10.992 177.000 C 11.094 178.320,11.298 180.345,11.445 181.500 C 11.672 183.288,11.614 183.600,11.056 183.600 C 10.597 183.600,10.412 183.931,10.440 184.700 L 10.480 185.800 10.757 184.804 C 11.134 183.450,11.573 184.251,11.881 186.858 C 12.109 188.779,12.070 188.914,11.364 188.666 C 10.656 188.418,10.650 188.437,11.289 188.935 C 12.373 189.780,12.800 194.230,11.763 193.866 C 11.048 193.615,11.044 193.632,11.702 194.145 C 12.497 194.763,13.249 198.074,12.771 198.848 C 12.597 199.128,12.606 199.637,12.789 199.979 C 13.281 200.899,13.416 203.327,13.011 203.982 C 12.786 204.346,12.829 204.610,13.129 204.710 C 13.424 204.808,13.600 205.807,13.600 207.378 L 13.600 209.889 15.900 210.520 C 23.045 212.481,24.254 212.827,24.800 213.063 C 25.130 213.206,25.580 213.350,25.800 213.384 C 27.386 213.625,30.000 214.567,30.000 214.896 C 30.000 215.134,30.231 215.106,30.564 214.830 C 30.957 214.504,31.209 214.491,31.392 214.787 C 31.537 215.021,31.831 215.105,32.045 214.972 C 32.260 214.840,32.652 214.907,32.918 215.121 C 33.183 215.335,34.435 215.740,35.700 216.019 C 36.965 216.299,38.000 216.689,38.000 216.887 C 38.000 217.085,38.197 217.125,38.438 216.976 C 38.679 216.827,39.264 216.901,39.738 217.139 C 40.212 217.377,43.660 218.366,47.400 219.337 C 51.140 220.307,56.180 221.671,58.600 222.368 C 61.020 223.064,63.450 223.730,64.000 223.847 C 64.550 223.964,65.360 224.214,65.800 224.402 C 66.240 224.590,68.490 225.214,70.800 225.789 C 73.110 226.365,75.360 227.000,75.800 227.201 C 76.240 227.402,78.850 228.127,81.600 228.811 C 84.350 229.496,86.870 230.162,87.200 230.292 C 87.530 230.421,87.954 230.492,88.142 230.449 C 88.330 230.407,88.707 230.557,88.979 230.782 C 89.251 231.008,89.588 231.079,89.727 230.940 C 89.867 230.800,90.210 230.870,90.490 231.094 C 90.771 231.319,92.395 231.828,94.100 232.225 C 95.805 232.622,97.200 233.093,97.200 233.273 C 97.200 233.702,98.294 233.697,98.467 233.267 C 98.540 233.085,100.130 232.539,102.000 232.056 C 103.870 231.573,105.760 231.077,106.200 230.955 C 106.640 230.832,107.630 230.590,108.400 230.416 C 109.170 230.242,111.352 229.640,113.250 229.078 C 115.147 228.515,117.397 227.927,118.250 227.770 C 119.102 227.613,119.890 227.357,120.000 227.202 C 120.110 227.047,121.460 226.624,123.000 226.262 C 124.540 225.901,127.510 225.144,129.600 224.581 C 131.690 224.018,133.580 223.516,133.800 223.467 C 134.020 223.418,134.380 223.272,134.600 223.144 C 134.820 223.015,136.350 222.601,138.000 222.224 C 139.650 221.847,141.360 221.394,141.800 221.218 C 142.240 221.042,143.590 220.674,144.800 220.400 C 146.010 220.126,148.080 219.572,149.400 219.171 C 150.720 218.769,153.600 217.971,155.800 217.397 C 158.000 216.824,160.790 216.080,162.000 215.744 C 163.210 215.408,165.752 214.723,167.649 214.222 C 169.547 213.720,171.297 213.187,171.540 213.037 C 171.783 212.887,172.480 212.684,173.091 212.586 C 174.733 212.321,177.105 211.737,179.730 210.950 C 181.606 210.388,182.123 210.352,182.380 210.768 C 182.924 211.647,183.143 210.709,183.409 206.376 C 183.549 204.079,183.772 201.930,183.903 201.600 C 184.142 201.000,185.234 188.637,186.939 167.200 C 187.438 160.930,187.955 155.530,188.087 155.200 C 188.220 154.870,188.548 151.450,188.817 147.600 C 189.792 133.632,189.877 132.610,190.005 133.200 C 190.077 133.530,190.240 132.270,190.368 130.400 C 190.495 128.530,190.465 126.940,190.300 126.867 C 189.897 126.687,189.915 124.800,190.320 124.800 C 190.496 124.800,190.861 121.429,191.131 117.308 C 191.402 113.188,191.798 109.642,192.012 109.428 C 192.531 108.909,192.521 106.278,192.000 106.600 C 191.780 106.736,191.600 106.556,191.600 106.200 C 191.600 105.844,191.769 105.657,191.976 105.785 C 192.182 105.913,192.350 105.698,192.349 105.309 C 192.348 104.919,192.472 103.835,192.626 102.900 C 192.817 101.737,192.762 101.200,192.453 101.200 C 191.842 101.200,191.874 100.109,192.490 99.903 C 192.826 99.791,192.966 98.773,192.934 96.670 C 192.908 94.981,193.002 93.600,193.143 93.599 C 193.285 93.599,193.443 91.315,193.494 88.525 C 193.549 85.572,193.768 83.273,194.018 83.026 C 194.323 82.723,194.372 82.832,194.186 83.400 C 193.974 84.048,194.007 84.086,194.356 83.600 C 194.902 82.841,194.937 81.068,194.400 81.400 C 194.153 81.552,194.000 80.871,194.000 79.624 C 194.000 78.451,194.180 77.600,194.429 77.600 C 194.714 77.600,194.768 76.880,194.589 75.448 C 194.436 74.230,194.491 72.973,194.716 72.548 C 195.043 71.929,195.350 68.463,195.613 62.400 C 195.653 61.480,195.684 61.464,196.000 62.200 C 196.286 62.867,196.348 62.779,196.372 61.676 C 196.389 60.890,196.238 60.453,196.000 60.600 C 195.773 60.740,195.600 60.404,195.600 59.824 C 195.600 59.261,195.755 58.800,195.945 58.800 C 196.134 58.800,196.203 58.350,196.098 57.800 C 195.986 57.216,196.093 56.800,196.353 56.800 C 196.599 56.800,196.800 56.530,196.800 56.200 C 196.800 55.870,196.620 55.600,196.400 55.600 C 196.180 55.600,196.000 55.161,196.000 54.624 C 196.000 54.087,196.180 53.536,196.400 53.400 C 196.620 53.264,196.800 52.703,196.800 52.153 C 196.800 51.588,196.974 51.260,197.200 51.400 C 197.420 51.536,197.600 51.367,197.600 51.024 C 197.600 50.681,197.330 50.400,197.000 50.400 C 196.258 50.400,196.246 49.477,196.963 47.418 C 197.271 46.532,197.383 45.483,197.217 45.035 C 197.055 44.595,197.070 43.597,197.251 42.818 C 197.433 42.038,197.585 40.470,197.590 39.333 C 197.601 37.015,197.908 35.896,198.442 36.226 C 198.639 36.348,198.800 36.167,198.800 35.824 C 198.800 35.481,198.620 35.200,198.400 35.200 C 197.899 35.200,197.868 31.729,198.366 31.421 C 198.567 31.297,198.823 31.421,198.934 31.698 C 199.046 31.974,199.151 31.806,199.168 31.324 C 199.186 30.842,199.020 30.336,198.800 30.200 C 198.197 29.827,198.344 26.707,199.006 25.833 C 199.437 25.263,199.473 24.928,199.143 24.532 C 198.878 24.212,198.813 23.478,198.981 22.699 C 199.135 21.985,199.343 20.140,199.443 18.600 C 199.542 17.060,199.798 15.740,200.012 15.667 C 200.225 15.593,200.400 15.358,200.400 15.143 C 200.400 14.928,200.196 14.879,199.947 15.033 C 199.324 15.418,199.915 10.709,200.541 10.300 C 200.874 10.082,200.849 9.903,200.448 9.644 C 200.025 9.371,199.972 8.835,200.222 7.344 C 200.401 6.275,200.500 4.655,200.442 3.744 C 200.383 2.833,200.530 1.967,200.768 1.820 C 201.005 1.673,201.200 1.203,201.200 0.776 C 201.200 0.010,199.914 -0.000,100.592 -0.000 L -0.016 -0.000 0.168 28.700 M182.220 20.900 C 182.076 22.715,181.612 27.710,181.190 32.000 C 180.769 36.290,180.231 42.230,179.995 45.200 C 179.759 48.170,179.307 53.120,178.989 56.200 C 178.672 59.280,178.135 65.220,177.797 69.400 C 177.459 73.580,177.090 77.540,176.978 78.200 C 176.865 78.860,176.424 83.540,175.998 88.600 C 175.196 98.121,174.571 105.024,173.207 119.400 C 172.769 124.020,172.132 131.130,171.793 135.200 C 171.454 139.270,171.090 143.140,170.985 143.800 C 170.880 144.460,170.431 149.410,169.987 154.800 C 169.543 160.190,169.094 165.140,168.989 165.800 C 168.884 166.460,168.528 170.330,168.199 174.400 C 167.639 181.324,166.615 192.134,166.169 195.826 L 165.973 197.452 163.287 198.129 C 161.809 198.501,158.980 199.264,157.000 199.823 C 155.020 200.382,152.140 201.177,150.600 201.589 C 147.988 202.289,140.397 204.354,134.400 205.997 C 132.970 206.388,129.730 207.290,127.200 208.000 C 120.908 209.766,118.513 210.420,110.400 212.586 C 106.550 213.614,102.256 214.803,100.858 215.228 C 99.460 215.652,98.245 216.000,98.158 216.000 C 98.071 216.000,98.000 210.006,98.000 202.680 L 98.000 189.360 95.500 188.731 C 94.125 188.384,91.290 187.644,89.200 187.086 C 80.317 184.712,77.200 183.875,73.800 182.952 C 71.820 182.415,68.687 181.614,66.838 181.173 C 64.988 180.731,63.321 180.275,63.132 180.158 C 62.824 179.968,59.857 179.183,52.600 177.374 C 51.280 177.045,48.923 176.395,47.363 175.930 L 44.526 175.085 44.077 170.042 C 43.829 167.269,43.175 159.870,42.624 153.600 C 42.072 147.330,41.431 140.409,41.199 138.219 C 40.966 136.030,40.866 134.005,40.976 133.719 C 41.262 132.974,67.154 132.955,67.369 133.700 C 67.713 134.890,68.813 143.430,69.251 148.307 L 69.728 153.615 71.964 154.230 C 73.194 154.568,75.010 155.091,76.000 155.392 C 76.990 155.692,78.970 156.228,80.400 156.583 C 81.830 156.937,83.360 157.396,83.800 157.601 C 84.240 157.806,85.950 158.331,87.600 158.767 C 89.250 159.202,91.770 159.901,93.200 160.319 C 94.630 160.737,96.295 161.199,96.900 161.347 L 98.000 161.615 98.000 141.608 L 98.000 121.600 69.042 121.600 L 40.084 121.600 39.851 119.900 C 39.723 118.965,39.160 113.250,38.600 107.200 C 38.041 101.150,37.140 91.430,36.600 85.600 C 36.060 79.770,35.160 70.050,34.602 64.000 C 34.043 57.950,33.420 51.650,33.218 50.000 C 33.015 48.350,32.838 46.055,32.825 44.900 L 32.800 42.800 65.400 42.800 L 98.000 42.800 98.000 30.200 L 98.000 17.600 140.242 17.600 L 182.483 17.600 182.220 20.900 M198.093 42.000 C 198.093 42.770,198.175 43.085,198.276 42.700 C 198.376 42.315,198.376 41.685,198.276 41.300 C 198.175 40.915,198.093 41.230,198.093 42.000 M62.400 70.213 C 62.400 72.301,63.596 87.550,64.053 91.300 L 64.529 95.200 81.265 95.200 L 98.000 95.200 98.000 82.200 L 98.000 69.200 80.200 69.200 L 62.400 69.200 62.400 70.213 M189.882 131.700 C 189.787 132.195,189.709 131.790,189.709 130.800 C 189.709 129.810,189.787 129.405,189.882 129.900 C 189.978 130.395,189.978 131.205,189.882 131.700 M9.600 179.376 C 9.600 180.602,9.828 180.701,10.116 179.600 C 10.231 179.161,10.162 178.700,9.962 178.577 C 9.763 178.454,9.600 178.813,9.600 179.376 M11.600 199.710 C 11.600 200.283,11.755 200.848,11.944 200.965 C 12.133 201.082,12.237 200.717,12.175 200.154 C 12.021 198.750,11.600 198.426,11.600 199.710 " stroke="none" fill="#ec4c14" fill-rule="evenodd"></path><path id="path1" d="M199.600 174.200 C 199.600 175.850,199.740 177.200,199.912 177.200 C 200.083 177.200,200.545 182.105,200.938 188.100 C 201.332 194.095,201.807 199.360,201.995 199.800 C 202.183 200.240,202.636 205.370,203.000 211.200 C 203.364 217.030,203.814 222.160,204.000 222.600 C 204.185 223.040,204.632 227.990,204.993 233.600 C 205.354 239.210,205.804 244.250,205.993 244.800 C 206.183 245.350,206.652 250.660,207.036 256.600 C 207.420 262.540,207.853 267.490,207.998 267.600 C 208.143 267.710,208.571 272.570,208.949 278.400 C 209.327 284.230,209.794 289.450,209.987 290.000 C 210.180 290.550,210.652 295.860,211.036 301.800 C 211.420 307.740,211.850 312.690,211.991 312.800 C 212.132 312.910,212.567 317.770,212.958 323.600 C 213.349 329.430,213.829 334.740,214.024 335.400 C 214.219 336.060,214.665 341.190,215.017 346.800 C 215.368 352.410,215.808 357.360,215.994 357.800 C 216.181 358.240,216.617 362.899,216.962 368.153 C 217.677 379.029,217.473 378.497,221.195 379.199 C 222.738 379.490,224.000 379.851,224.000 380.002 C 224.000 380.152,225.575 380.602,227.500 381.002 C 229.425 381.402,231.090 381.851,231.200 382.000 C 231.310 382.149,233.020 382.603,235.000 383.009 C 236.980 383.415,238.690 383.865,238.800 384.009 C 238.910 384.153,240.620 384.603,242.600 385.009 C 244.580 385.415,246.290 385.859,246.400 385.996 C 246.510 386.134,248.130 386.581,250.000 386.990 C 251.870 387.400,253.580 387.867,253.800 388.029 C 254.020 388.191,255.730 388.646,257.600 389.040 C 259.470 389.434,261.090 389.881,261.200 390.033 C 261.310 390.186,262.930 390.619,264.800 390.997 C 266.670 391.375,268.380 391.826,268.600 392.000 C 268.820 392.174,270.530 392.624,272.400 393.000 C 274.270 393.376,275.980 393.822,276.200 393.990 C 276.420 394.159,278.040 394.610,279.800 394.992 C 281.560 395.374,283.180 395.826,283.400 395.997 C 283.620 396.167,285.330 396.629,287.200 397.023 C 289.070 397.418,290.690 397.854,290.800 397.993 C 291.098 398.370,299.193 400.009,300.733 400.004 C 302.176 400.000,308.216 398.606,309.210 398.048 C 309.545 397.860,311.300 397.386,313.110 396.995 C 314.919 396.604,316.400 396.166,316.400 396.020 C 316.400 395.875,317.930 395.421,319.800 395.012 C 321.670 394.602,323.200 394.150,323.200 394.007 C 323.200 393.864,324.415 393.512,325.900 393.226 C 327.385 392.940,329.140 392.469,329.800 392.181 C 330.460 391.892,332.350 391.342,334.000 390.959 C 335.650 390.575,337.090 390.150,337.200 390.014 C 337.310 389.878,338.840 389.438,340.600 389.035 C 342.360 388.632,343.980 388.167,344.200 388.000 C 344.420 387.833,346.040 387.368,347.800 386.965 C 349.560 386.562,351.090 386.116,351.200 385.973 C 351.310 385.831,352.840 385.399,354.600 385.013 C 356.360 384.628,357.985 384.164,358.211 383.981 C 358.437 383.799,359.967 383.348,361.611 382.978 C 363.255 382.609,364.780 382.168,365.000 382.000 C 365.220 381.832,366.745 381.391,368.389 381.022 C 370.033 380.652,371.563 380.201,371.789 380.019 C 372.015 379.836,373.640 379.372,375.400 378.987 C 377.160 378.601,378.690 378.162,378.800 378.010 C 378.910 377.859,380.130 377.499,381.512 377.210 C 384.654 376.554,384.276 377.697,385.028 366.551 C 385.382 361.298,385.824 356.640,386.010 356.200 C 386.196 355.760,386.644 350.720,387.007 345.000 C 387.369 339.280,387.819 334.240,388.007 333.800 C 388.194 333.360,388.644 328.320,389.007 322.600 C 389.369 316.880,389.820 311.840,390.008 311.400 C 390.197 310.960,390.663 305.830,391.044 300.000 C 391.426 294.170,391.858 289.310,392.004 289.200 C 392.150 289.090,392.598 284.050,393.000 278.000 C 393.402 271.950,393.849 266.910,393.994 266.800 C 394.138 266.690,394.645 261.650,395.119 255.600 C 396.661 235.941,397.837 222.613,398.084 222.000 C 398.768 220.300,400.021 195.388,400.011 183.700 L 400.000 171.200 299.800 171.200 L 199.600 171.200 199.600 174.200 M382.649 189.383 C 382.855 189.919,382.067 200.317,380.617 216.200 C 379.531 228.087,378.745 236.961,377.992 245.800 C 377.579 250.640,376.971 257.570,376.640 261.200 C 375.534 273.310,374.749 282.121,373.984 291.000 C 372.817 304.547,371.294 321.895,370.631 329.200 C 369.998 336.173,369.132 345.877,368.169 356.787 C 367.478 364.611,368.356 363.559,360.800 365.606 C 357.390 366.530,353.430 367.607,352.000 368.000 C 347.739 369.171,333.065 373.153,326.200 375.001 C 322.680 375.948,318.090 377.198,316.000 377.778 C 313.910 378.358,309.860 379.460,307.000 380.228 C 304.140 380.996,301.487 381.720,301.104 381.838 C 300.452 382.038,300.402 380.975,300.304 364.745 L 300.200 347.439 289.400 343.800 C 237.780 326.409,236.478 325.965,235.700 325.470 C 235.173 325.136,234.930 296.369,235.443 295.033 C 235.657 294.474,237.196 294.400,248.632 294.400 L 261.579 294.400 261.689 300.256 L 261.800 306.112 266.600 307.875 C 269.240 308.845,273.650 310.465,276.400 311.476 C 279.150 312.486,282.750 313.807,284.400 314.410 C 286.050 315.013,288.660 315.992,290.200 316.584 C 291.740 317.177,293.900 317.940,295.000 318.280 C 296.100 318.621,297.180 319.031,297.400 319.191 C 297.620 319.352,298.385 319.681,299.100 319.921 L 300.400 320.358 300.400 298.979 L 300.400 277.600 268.043 277.600 C 238.906 277.600,235.661 277.537,235.443 276.967 C 235.126 276.141,235.126 253.459,235.443 252.633 C 235.661 252.063,238.906 252.000,268.043 252.000 L 300.400 252.000 300.400 244.000 L 300.400 236.000 267.755 236.000 L 235.111 236.000 235.334 234.700 C 235.456 233.985,235.661 229.440,235.789 224.600 C 235.916 219.760,236.120 214.675,236.242 213.300 L 236.464 210.800 268.432 210.800 L 300.400 210.800 300.400 200.067 C 300.400 194.163,300.520 189.213,300.667 189.067 C 301.280 188.454,382.412 188.767,382.649 189.383 " stroke="none" fill="#0474bc" fill-rule="evenodd"></path><path id="path2" d="M199.600 18.200 C 199.600 18.796,199.772 19.141,200.000 19.000 C 200.220 18.864,200.400 18.504,200.400 18.200 C 200.400 17.896,200.220 17.536,200.000 17.400 C 199.772 17.259,199.600 17.604,199.600 18.200 M65.700 43.100 C 35.094 43.199,33.200 43.245,33.205 43.902 C 33.212 44.932,34.293 57.273,35.000 64.400 C 35.666 71.117,37.087 86.514,39.393 112.000 C 39.741 115.850,40.119 119.585,40.231 120.300 L 40.436 121.600 84.636 121.600 L 128.836 121.600 128.626 122.900 C 128.510 123.615,128.230 126.900,128.004 130.200 C 127.777 133.500,127.323 139.080,126.994 142.600 C 126.665 146.120,126.297 150.090,126.175 151.423 L 125.953 153.846 121.476 155.154 C 119.014 155.873,115.920 156.792,114.600 157.197 C 113.280 157.601,110.220 158.502,107.800 159.200 C 105.380 159.898,102.247 160.837,100.838 161.287 C 97.860 162.240,98.588 162.361,87.200 159.010 C 82.910 157.747,78.770 156.545,78.000 156.339 C 71.716 154.655,69.652 153.860,69.450 153.046 C 69.335 152.581,68.870 148.690,68.416 144.400 C 67.963 140.110,67.495 136.015,67.378 135.300 L 67.164 134.000 54.150 134.000 L 41.136 134.000 41.345 135.100 C 41.459 135.705,41.663 137.820,41.797 139.800 C 41.932 141.780,42.310 146.190,42.638 149.600 C 42.966 153.010,43.585 160.013,44.013 165.162 C 44.441 170.312,44.885 174.619,45.000 174.733 C 45.187 174.921,53.888 177.310,63.400 179.787 C 65.380 180.302,72.490 182.200,79.200 184.004 C 99.596 189.489,97.505 189.198,103.750 187.420 C 105.538 186.911,109.070 185.923,111.600 185.224 C 114.130 184.526,117.730 183.524,119.600 182.998 C 121.470 182.473,128.940 180.405,136.200 178.404 C 143.460 176.402,149.689 174.678,150.043 174.573 C 150.530 174.429,150.751 173.630,150.951 171.291 C 151.096 169.591,151.666 162.980,152.218 156.600 C 152.770 150.220,153.575 140.680,154.008 135.400 C 154.440 130.120,154.971 124.180,155.187 122.200 C 155.403 120.220,155.767 116.080,155.996 113.000 C 156.504 106.178,157.148 99.123,157.448 97.100 L 157.670 95.600 110.835 95.600 C 78.505 95.600,64.000 95.470,64.000 95.182 C 64.000 94.951,63.550 89.686,63.000 83.482 C 61.646 68.203,61.693 69.250,62.352 68.997 C 62.667 68.876,84.541 68.887,110.962 69.020 C 137.383 69.154,159.190 69.114,159.423 68.932 C 159.655 68.749,160.152 65.630,160.526 62.000 C 160.900 58.370,161.484 52.809,161.824 49.642 C 162.163 46.475,162.347 43.640,162.233 43.342 C 162.015 42.773,164.953 42.780,65.700 43.100 M0.093 64.400 C 0.093 65.170,0.175 65.485,0.276 65.100 C 0.376 64.715,0.376 64.085,0.276 63.700 C 0.175 63.315,0.093 63.630,0.093 64.400 M0.493 69.600 C 0.493 70.370,0.575 70.685,0.676 70.300 C 0.776 69.915,0.776 69.285,0.676 68.900 C 0.575 68.515,0.493 68.830,0.493 69.600 M1.200 79.976 C 1.200 80.649,1.380 81.200,1.600 81.200 C 1.820 81.200,2.000 80.761,2.000 80.224 C 2.000 79.687,1.820 79.136,1.600 79.000 C 1.367 78.856,1.200 79.263,1.200 79.976 M1.405 84.700 C 1.565 85.085,1.704 85.617,1.714 85.882 C 1.751 86.805,2.400 85.947,2.400 84.976 C 2.400 84.346,2.172 84.000,1.757 84.000 C 1.301 84.000,1.199 84.203,1.405 84.700 M1.859 89.388 C 2.071 91.002,2.800 91.693,2.800 90.280 C 2.800 89.686,2.633 89.200,2.429 89.200 C 2.225 89.200,1.979 88.975,1.881 88.700 C 1.783 88.425,1.773 88.734,1.859 89.388 M2.684 95.200 C 2.569 95.639,2.638 96.100,2.838 96.223 C 3.037 96.346,3.200 95.987,3.200 95.424 C 3.200 94.198,2.972 94.099,2.684 95.200 M3.200 100.624 C 3.200 101.187,3.363 101.546,3.562 101.423 C 3.762 101.300,3.831 100.839,3.716 100.400 C 3.428 99.299,3.200 99.398,3.200 100.624 M3.600 105.800 C 3.600 106.130,3.780 106.400,4.000 106.400 C 4.220 106.400,4.400 106.130,4.400 105.800 C 4.400 105.470,4.220 105.200,4.000 105.200 C 3.780 105.200,3.600 105.470,3.600 105.800 M4.067 110.420 C 4.301 111.092,4.570 111.563,4.666 111.468 C 4.947 111.187,4.344 109.200,3.977 109.200 C 3.793 109.200,3.833 109.749,4.067 110.420 M4.425 115.580 C 4.408 116.527,4.529 116.831,4.812 116.548 C 5.085 116.275,5.094 115.809,4.838 115.168 C 4.474 114.258,4.449 114.283,4.425 115.580 M4.834 120.580 C 4.812 121.605,4.937 122.023,5.190 121.770 C 5.431 121.529,5.444 120.927,5.224 120.190 C 4.873 119.014,4.868 119.019,4.834 120.580 M5.200 125.776 C 5.200 126.339,5.380 126.800,5.600 126.800 C 5.820 126.800,6.000 126.451,6.000 126.024 C 6.000 125.597,5.820 125.136,5.600 125.000 C 5.373 124.860,5.200 125.196,5.200 125.776 M5.232 129.876 C 5.214 130.138,5.363 130.454,5.562 130.577 C 5.762 130.700,5.836 131.140,5.728 131.555 C 5.619 131.970,5.726 132.431,5.965 132.578 C 6.253 132.756,6.398 132.264,6.394 131.124 C 6.390 130.000,6.268 129.590,6.042 129.945 C 5.751 130.406,5.663 130.406,5.480 129.945 C 5.343 129.601,5.252 129.576,5.232 129.876 M6.203 135.592 C 6.064 136.027,6.137 136.702,6.363 137.092 C 6.700 137.670,6.778 137.524,6.788 136.300 C 6.801 134.642,6.587 134.382,6.203 135.592 M6.676 140.947 C 6.503 141.578,6.460 142.193,6.581 142.314 C 6.998 142.731,7.260 142.069,7.125 140.937 L 6.990 139.800 6.676 140.947 M7.227 146.380 C 7.206 147.432,7.311 147.649,7.667 147.293 C 8.012 146.948,8.019 146.588,7.694 145.913 C 7.281 145.056,7.252 145.084,7.227 146.380 M7.778 151.235 C 7.631 151.474,7.710 151.870,7.955 152.115 C 8.282 152.442,8.400 152.326,8.400 151.680 C 8.400 150.714,8.192 150.565,7.778 151.235 M8.412 160.800 C 8.412 161.130,8.587 161.670,8.800 162.000 C 9.145 162.533,9.188 162.533,9.188 162.000 C 9.188 161.670,9.013 161.130,8.800 160.800 C 8.455 160.267,8.412 160.267,8.412 160.800 M8.806 166.900 C 8.803 167.505,8.980 168.000,9.200 168.000 C 9.706 168.000,9.706 167.183,9.200 166.400 C 8.898 165.932,8.811 166.043,8.806 166.900 M9.271 171.769 C 9.342 172.412,9.625 173.012,9.900 173.102 C 10.586 173.328,10.506 172.371,9.759 171.400 C 9.165 170.629,9.147 170.643,9.271 171.769 M10.022 175.800 C 9.618 177.647,9.619 178.559,10.023 177.888 C 10.259 177.497,10.375 176.777,10.281 176.288 C 10.186 175.800,10.070 175.580,10.022 175.800 M10.310 181.300 C 10.213 181.575,10.266 182.250,10.427 182.800 C 10.682 183.670,10.725 183.605,10.760 182.300 C 10.801 180.777,10.628 180.394,10.310 181.300 M10.428 186.276 C 10.487 187.793,11.141 188.714,11.172 187.324 C 11.187 186.622,11.020 185.936,10.800 185.800 C 10.580 185.664,10.413 185.878,10.428 186.276 M11.206 192.500 C 11.210 193.384,11.323 193.626,11.557 193.256 C 11.872 192.759,11.717 191.200,11.353 191.200 C 11.269 191.200,11.203 191.785,11.206 192.500 M11.949 196.700 C 11.724 198.022,11.763 198.800,12.055 198.800 C 12.245 198.800,12.400 198.260,12.400 197.600 C 12.400 196.538,12.084 195.907,11.949 196.700 M12.446 206.800 C 12.465 207.130,12.624 207.850,12.800 208.400 L 13.120 209.400 13.154 208.400 C 13.173 207.850,13.013 207.130,12.800 206.800 C 12.455 206.267,12.416 206.267,12.446 206.800 M268.754 211.099 L 236.507 211.205 236.249 217.502 C 236.107 220.966,235.879 226.544,235.742 229.899 L 235.493 235.997 288.246 236.099 L 341.000 236.200 341.000 244.200 L 341.000 252.200 288.300 252.301 L 235.600 252.403 235.600 264.801 L 235.600 277.200 258.300 277.200 C 270.785 277.200,294.365 277.320,310.700 277.466 L 340.400 277.732 340.400 292.019 C 340.400 305.277,340.350 306.322,339.700 306.524 C 339.315 306.643,337.470 307.303,335.600 307.990 C 333.730 308.677,331.210 309.579,330.000 309.994 C 328.790 310.409,326.360 311.279,324.600 311.926 C 308.823 317.732,300.882 320.418,299.992 320.248 C 299.437 320.143,295.792 318.874,291.892 317.428 C 287.991 315.983,281.605 313.617,277.700 312.172 C 273.795 310.726,268.575 308.792,266.100 307.874 L 261.600 306.204 261.600 300.502 L 261.600 294.800 248.600 294.800 L 235.600 294.800 235.600 310.113 L 235.600 325.426 246.500 329.093 C 252.495 331.110,267.030 336.033,278.800 340.034 C 302.829 348.201,300.656 347.708,305.200 346.019 C 307.070 345.324,309.590 344.416,310.800 344.000 C 312.010 343.584,314.530 342.684,316.400 342.000 C 318.270 341.316,320.790 340.416,322.000 340.000 C 323.210 339.584,325.730 338.684,327.600 338.000 C 329.470 337.316,331.990 336.417,333.200 336.004 C 334.410 335.590,336.840 334.721,338.600 334.072 C 340.360 333.423,346.840 331.087,353.000 328.880 C 359.160 326.674,364.516 324.743,364.901 324.591 C 365.566 324.328,365.597 321.339,365.501 267.657 L 365.400 211.000 333.200 210.996 C 315.490 210.994,286.489 211.041,268.754 211.099 M67.600 225.751 C 67.600 225.834,67.870 226.126,68.200 226.400 C 68.691 226.808,68.800 226.780,68.800 226.249 C 68.800 225.892,68.530 225.600,68.200 225.600 C 67.870 225.600,67.600 225.668,67.600 225.751 " stroke="none" fill="#fbfbfb" fill-rule="evenodd"></path><path id="path3" d="M300.667 189.067 C 300.520 189.213,300.400 194.162,300.400 200.064 L 300.400 210.795 268.500 210.924 C 250.955 210.994,265.580 211.041,301.000 211.026 L 365.400 211.000 365.501 267.657 C 365.597 321.339,365.566 324.328,364.901 324.591 C 364.516 324.743,359.160 326.674,353.000 328.880 C 346.840 331.087,340.360 333.423,338.600 334.072 C 336.840 334.721,334.410 335.590,333.200 336.004 C 331.990 336.417,329.470 337.316,327.600 338.000 C 325.730 338.684,323.210 339.584,322.000 340.000 C 320.790 340.416,318.270 341.316,316.400 342.000 C 314.530 342.684,312.010 343.584,310.800 344.000 C 309.590 344.416,307.070 345.324,305.200 346.019 C 303.330 346.714,301.440 347.309,301.000 347.341 C 300.211 347.399,300.202 347.647,300.308 364.724 C 300.410 380.931,300.461 382.035,301.108 381.836 C 301.489 381.719,304.140 380.996,307.000 380.228 C 309.860 379.460,313.910 378.358,316.000 377.778 C 318.090 377.198,322.680 375.948,326.200 375.001 C 333.065 373.153,347.739 369.171,352.000 368.000 C 353.430 367.607,357.390 366.530,360.800 365.606 C 368.356 363.559,367.478 364.611,368.169 356.787 C 369.132 345.877,369.998 336.173,370.631 329.200 C 371.294 321.895,372.817 304.547,373.984 291.000 C 374.749 282.121,375.534 273.310,376.640 261.200 C 376.971 257.570,377.579 250.640,377.992 245.800 C 378.745 236.961,379.531 228.087,380.617 216.200 C 382.067 200.317,382.855 189.919,382.649 189.383 C 382.412 188.767,301.280 188.454,300.667 189.067 M236.128 215.600 C 236.128 217.030,236.201 217.615,236.289 216.900 C 236.378 216.185,236.378 215.015,236.289 214.300 C 236.201 213.585,236.128 214.170,236.128 215.600 M235.720 227.200 C 235.720 228.410,235.795 228.905,235.887 228.300 C 235.978 227.695,235.978 226.705,235.887 226.100 C 235.795 225.495,235.720 225.990,235.720 227.200 M300.400 243.994 L 300.400 251.995 267.900 252.101 C 250.025 252.159,259.160 252.205,288.200 252.203 L 341.000 252.200 341.000 244.200 L 341.000 236.200 320.700 236.096 L 300.400 235.993 300.400 243.994 M235.378 264.800 C 235.378 271.510,235.432 274.255,235.499 270.900 C 235.566 267.545,235.566 262.055,235.499 258.700 C 235.432 255.345,235.378 258.090,235.378 264.800 M267.900 277.500 L 300.400 277.605 300.400 299.002 C 300.400 310.771,300.547 320.400,300.726 320.400 C 301.020 320.400,316.602 314.870,324.600 311.926 C 326.360 311.279,328.790 310.409,330.000 309.994 C 331.210 309.579,333.730 308.677,335.600 307.990 C 337.470 307.303,339.315 306.643,339.700 306.524 C 340.350 306.322,340.400 305.277,340.400 292.019 L 340.400 277.732 310.700 277.466 C 294.365 277.320,270.740 277.244,258.200 277.298 C 238.646 277.381,240.027 277.410,267.900 277.500 M242.125 294.699 C 245.824 294.766,251.764 294.765,255.325 294.699 C 258.886 294.633,255.860 294.579,248.600 294.579 C 241.340 294.579,238.426 294.633,242.125 294.699 M235.381 310.200 C 235.381 318.560,235.434 322.037,235.499 317.926 C 235.564 313.816,235.564 306.976,235.500 302.726 C 235.435 298.477,235.382 301.840,235.381 310.200 M295.200 318.534 C 295.200 318.637,295.781 318.924,296.491 319.172 C 297.201 319.419,297.606 319.457,297.391 319.256 C 296.935 318.829,295.200 318.258,295.200 318.534 M250.800 330.733 C 251.130 330.936,251.850 331.224,252.400 331.371 C 253.095 331.557,253.217 331.525,252.800 331.267 C 252.470 331.064,251.750 330.776,251.200 330.629 C 250.505 330.443,250.383 330.475,250.800 330.733 M280.400 340.733 C 280.730 340.936,281.450 341.224,282.000 341.371 C 282.695 341.557,282.817 341.525,282.400 341.267 C 282.070 341.064,281.350 340.776,280.800 340.629 C 280.105 340.443,279.983 340.475,280.400 340.733 M285.800 342.555 C 286.460 342.855,287.450 343.211,288.000 343.346 C 288.803 343.543,288.764 343.484,287.800 343.045 C 287.140 342.745,286.150 342.389,285.600 342.254 C 284.797 342.057,284.836 342.116,285.800 342.555 " stroke="none" fill="#04abdb" fill-rule="evenodd"></path><path id="path4" d="M200.683 1.889 C 200.509 2.158,200.398 3.148,200.436 4.089 C 200.474 5.030,200.367 6.655,200.198 7.700 C 199.995 8.956,200.034 9.600,200.312 9.600 C 200.543 9.600,200.854 8.295,201.003 6.700 C 201.313 3.380,201.165 1.146,200.683 1.889 M200.000 10.944 C 200.000 11.243,199.887 12.368,199.748 13.444 C 199.563 14.880,199.616 15.289,199.945 14.983 C 200.528 14.442,200.925 10.400,200.395 10.400 C 200.178 10.400,200.000 10.645,200.000 10.944 M199.600 16.376 C 199.600 16.803,199.780 17.264,200.000 17.400 C 200.227 17.540,200.400 17.204,200.400 16.624 C 200.400 16.061,200.220 15.600,200.000 15.600 C 199.780 15.600,199.600 15.949,199.600 16.376 M98.000 30.200 L 98.000 42.800 65.346 42.800 L 32.691 42.800 32.973 47.372 C 33.128 49.887,33.420 52.452,33.622 53.072 C 34.000 54.232,33.943 52.710,33.360 46.151 L 33.107 43.301 97.385 43.002 C 140.572 42.801,161.795 42.835,162.067 43.107 C 162.340 43.380,162.266 45.449,161.840 49.456 C 161.493 52.725,160.902 58.370,160.527 62.000 C 160.152 65.630,159.655 68.749,159.423 68.932 C 159.190 69.114,137.383 69.154,110.962 69.020 C 84.541 68.887,62.663 68.877,62.345 69.000 C 61.795 69.211,62.134 77.041,62.942 82.800 C 63.179 84.488,62.887 77.124,62.534 72.500 L 62.282 69.200 80.141 69.200 L 98.000 69.200 98.000 82.200 L 98.000 95.200 81.247 95.200 L 64.493 95.200 64.211 92.569 C 64.056 91.121,63.840 90.027,63.730 90.137 C 63.620 90.247,63.656 91.521,63.811 92.969 L 64.093 95.600 110.882 95.600 L 157.670 95.600 157.448 97.100 C 157.148 99.123,156.504 106.178,155.996 113.000 C 155.767 116.080,155.403 120.220,155.187 122.200 C 154.971 124.180,154.440 130.120,154.008 135.400 C 153.575 140.680,152.770 150.220,152.218 156.600 C 151.666 162.980,151.096 169.591,150.951 171.291 C 150.751 173.630,150.530 174.429,150.043 174.573 C 149.689 174.678,143.460 176.402,136.200 178.404 C 128.940 180.405,121.470 182.473,119.600 182.998 C 117.730 183.524,114.130 184.526,111.600 185.224 C 109.070 185.923,105.538 186.911,103.750 187.420 C 98.841 188.817,98.020 188.896,95.217 188.238 C 93.797 187.905,92.570 187.697,92.490 187.776 C 92.298 187.969,94.632 188.695,96.500 189.024 L 98.000 189.289 98.000 202.645 C 98.000 209.990,98.071 216.000,98.158 216.000 C 98.245 216.000,99.460 215.652,100.858 215.228 C 102.256 214.803,106.550 213.614,110.400 212.586 C 118.513 210.420,120.908 209.766,127.200 208.000 C 129.730 207.290,132.970 206.388,134.400 205.997 C 140.397 204.354,147.988 202.289,150.600 201.589 C 152.140 201.177,155.020 200.382,157.000 199.823 C 158.980 199.264,161.809 198.501,163.287 198.129 L 165.973 197.452 166.169 195.826 C 166.615 192.134,167.639 181.324,168.199 174.400 C 168.528 170.330,168.884 166.460,168.989 165.800 C 169.094 165.140,169.543 160.190,169.987 154.800 C 170.431 149.410,170.880 144.460,170.985 143.800 C 171.090 143.140,171.454 139.270,171.793 135.200 C 172.132 131.130,172.769 124.020,173.207 119.400 C 174.571 105.024,175.196 98.121,175.998 88.600 C 176.424 83.540,176.865 78.860,176.978 78.200 C 177.090 77.540,177.459 73.580,177.797 69.400 C 178.135 65.220,178.672 59.280,178.989 56.200 C 179.307 53.120,179.759 48.170,179.995 45.200 C 180.231 42.230,180.769 36.290,181.190 32.000 C 181.612 27.710,182.076 22.715,182.220 20.900 L 182.483 17.600 140.242 17.600 L 98.000 17.600 98.000 30.200 M199.000 22.400 C 198.846 23.310,198.811 24.144,198.921 24.254 C 199.031 24.364,199.246 23.710,199.400 22.800 C 199.554 21.890,199.589 21.056,199.479 20.946 C 199.369 20.836,199.154 21.490,199.000 22.400 M198.667 26.267 C 198.292 26.641,198.333 29.911,198.715 30.148 C 198.889 30.255,199.071 29.365,199.121 28.171 C 199.213 25.992,199.160 25.773,198.667 26.267 M198.267 31.467 C 197.841 31.893,197.959 35.200,198.400 35.200 C 198.620 35.200,198.800 34.300,198.800 33.200 C 198.800 31.172,198.744 30.989,198.267 31.467 M197.823 36.727 C 197.694 37.134,197.611 38.261,197.637 39.233 C 197.664 40.205,197.515 41.724,197.306 42.609 C 197.097 43.494,197.052 44.574,197.205 45.009 C 197.457 45.721,197.706 44.367,198.589 37.502 C 198.752 36.227,198.169 35.637,197.823 36.727 M196.900 47.559 C 196.302 49.507,196.265 50.400,196.782 50.400 C 197.237 50.400,197.725 48.074,197.535 46.817 C 197.430 46.125,197.290 46.288,196.900 47.559 M196.267 53.467 C 195.848 53.885,195.955 55.600,196.400 55.600 C 196.620 55.600,196.800 55.060,196.800 54.400 C 196.800 53.157,196.719 53.015,196.267 53.467 M34.101 57.400 C 34.105 58.280,34.187 58.593,34.283 58.095 C 34.379 57.598,34.375 56.878,34.275 56.495 C 34.175 56.113,34.096 56.520,34.101 57.400 M0.270 62.200 C 0.428 65.500,0.566 68.875,0.578 69.700 C 0.590 70.525,0.780 71.139,1.000 71.064 C 1.422 70.921,1.442 68.204,1.050 64.200 C 0.921 62.880,0.816 60.971,0.816 59.958 C 0.817 58.945,0.630 57.685,0.401 57.158 C 0.103 56.474,0.066 57.919,0.270 62.200 M196.000 57.624 C 196.000 58.077,196.180 58.336,196.400 58.200 C 196.620 58.064,196.800 57.693,196.800 57.376 C 196.800 57.059,196.620 56.800,196.400 56.800 C 196.180 56.800,196.000 57.171,196.000 57.624 M195.600 59.867 C 195.600 60.453,195.724 60.810,195.875 60.659 C 196.277 60.256,196.323 58.800,195.933 58.800 C 195.750 58.800,195.600 59.280,195.600 59.867 M34.514 62.200 C 34.517 63.300,34.595 63.703,34.687 63.095 C 34.779 62.486,34.777 61.586,34.682 61.095 C 34.587 60.603,34.511 61.100,34.514 62.200 M195.628 62.500 C 195.613 63.105,195.780 63.600,196.000 63.600 C 196.469 63.600,196.469 63.293,196.000 62.200 C 195.695 61.491,195.653 61.525,195.628 62.500 M35.065 68.924 C 35.184 71.522,35.436 74.132,35.625 74.724 C 36.010 75.932,35.710 70.503,35.176 66.600 C 34.945 64.912,34.912 65.602,35.065 68.924 M195.301 68.200 C 195.305 69.080,195.387 69.393,195.483 68.895 C 195.579 68.398,195.575 67.678,195.475 67.295 C 195.375 66.913,195.296 67.320,195.301 68.200 M0.920 74.985 C 0.893 77.432,1.038 78.499,1.441 78.834 C 2.135 79.410,2.179 81.198,1.500 81.206 C 1.167 81.210,1.200 81.342,1.600 81.600 C 2.000 81.858,2.033 81.990,1.700 81.994 C 1.425 81.997,1.200 82.450,1.200 83.000 C 1.200 83.622,1.427 84.000,1.800 84.000 C 2.177 84.000,2.400 84.380,2.400 85.024 C 2.400 85.695,2.241 85.949,1.938 85.762 C 1.626 85.569,1.586 85.654,1.814 86.023 C 2.000 86.324,2.112 87.162,2.064 87.885 C 2.015 88.608,2.161 89.200,2.387 89.200 C 2.614 89.200,2.800 89.661,2.800 90.224 C 2.800 90.926,2.643 91.159,2.300 90.965 C 1.926 90.754,1.931 90.823,2.317 91.238 C 2.833 91.793,3.798 91.043,3.398 90.397 C 3.268 90.186,2.935 86.512,2.583 81.400 C 2.308 77.413,1.933 73.323,1.767 72.500 C 1.372 70.547,0.955 71.771,0.920 74.985 M194.700 72.533 C 194.208 73.735,194.327 75.967,194.837 75.091 C 195.064 74.702,195.193 73.802,195.125 73.091 C 195.027 72.077,194.936 71.957,194.700 72.533 M36.101 79.000 C 36.105 79.880,36.187 80.193,36.283 79.695 C 36.379 79.198,36.375 78.478,36.275 78.095 C 36.175 77.713,36.096 78.120,36.101 79.000 M194.000 79.624 C 194.000 80.871,194.153 81.552,194.400 81.400 C 194.620 81.264,194.800 80.353,194.800 79.376 C 194.800 78.399,194.620 77.600,194.400 77.600 C 194.180 77.600,194.000 78.511,194.000 79.624 M36.514 83.800 C 36.517 84.900,36.595 85.303,36.687 84.695 C 36.779 84.086,36.777 83.186,36.682 82.695 C 36.587 82.203,36.511 82.700,36.514 83.800 M193.819 83.300 C 193.732 83.575,193.569 85.600,193.456 87.800 C 193.314 90.557,193.361 91.365,193.607 90.400 C 194.242 87.907,194.439 81.317,193.819 83.300 M63.314 86.200 C 63.317 87.300,63.395 87.703,63.487 87.095 C 63.579 86.486,63.577 85.586,63.482 85.095 C 63.387 84.603,63.311 85.100,63.314 86.200 M37.065 90.524 C 37.184 93.122,37.436 95.732,37.625 96.324 C 38.010 97.532,37.710 92.103,37.176 88.200 C 36.945 86.512,36.912 87.202,37.065 90.524 M2.428 93.900 C 2.449 95.330,2.541 95.602,2.800 95.000 C 3.102 94.296,3.147 94.335,3.172 95.324 C 3.187 95.942,3.065 96.364,2.900 96.263 C 2.735 96.162,2.586 96.692,2.570 97.440 C 2.553 98.188,2.699 98.800,2.894 98.800 C 3.088 98.800,3.136 98.980,3.000 99.200 C 2.864 99.420,2.922 99.600,3.130 99.600 C 3.592 99.600,4.035 101.131,3.642 101.374 C 3.035 101.749,3.153 104.807,3.783 105.049 C 4.402 105.286,4.663 106.399,4.100 106.401 C 3.611 106.402,3.580 108.940,4.065 109.240 C 4.310 109.392,4.531 110.074,4.555 110.757 C 4.580 111.440,4.752 111.999,4.939 111.999 C 5.125 112.000,5.180 111.055,5.061 109.900 C 4.942 108.745,4.766 106.720,4.671 105.400 C 4.575 104.080,4.363 101.740,4.199 100.200 C 3.731 95.788,3.706 95.498,3.652 93.700 C 3.615 92.478,3.431 92.000,3.000 92.000 C 2.547 92.000,2.407 92.465,2.428 93.900 M192.800 94.867 C 192.800 96.323,192.975 96.270,193.351 94.700 C 193.508 94.047,193.450 93.600,193.208 93.600 C 192.983 93.600,192.800 94.170,192.800 94.867 M38.101 100.600 C 38.105 101.480,38.187 101.793,38.283 101.295 C 38.379 100.798,38.375 100.078,38.275 99.695 C 38.175 99.313,38.096 99.720,38.101 100.600 M192.000 100.600 C 192.000 100.930,192.180 101.200,192.400 101.200 C 192.620 101.200,192.800 100.930,192.800 100.600 C 192.800 100.270,192.620 100.000,192.400 100.000 C 192.180 100.000,192.000 100.270,192.000 100.600 M38.468 104.600 C 38.403 106.710,39.502 118.435,39.792 118.723 C 40.095 119.024,39.784 114.731,39.002 107.800 C 38.728 105.380,38.488 103.940,38.468 104.600 M4.593 113.892 C 4.758 114.721,4.867 116.087,4.835 116.926 C 4.803 117.766,4.955 119.099,5.173 119.889 C 5.392 120.679,5.448 121.522,5.300 121.762 C 4.944 122.338,5.168 124.497,5.634 124.980 C 6.089 125.452,6.114 126.687,5.673 126.867 C 5.492 126.940,5.423 127.787,5.519 128.748 C 5.638 129.937,5.804 130.321,6.040 129.948 C 6.529 129.178,6.510 132.248,6.021 133.162 C 5.534 134.071,5.947 135.918,6.461 135.134 C 6.678 134.802,6.786 135.510,6.745 137.000 C 6.709 138.320,6.817 139.718,6.985 140.107 C 7.153 140.495,7.204 141.267,7.098 141.823 C 6.976 142.460,7.070 142.775,7.352 142.678 C 7.913 142.485,7.851 140.651,6.961 131.000 C 6.840 129.680,6.685 127.790,6.618 126.800 C 6.332 122.605,5.920 118.558,5.720 118.000 C 5.602 117.670,5.539 116.389,5.579 115.153 C 5.637 113.363,5.514 112.853,4.972 112.645 C 4.378 112.417,4.330 112.572,4.593 113.892 M190.893 120.000 C 190.893 120.770,190.975 121.085,191.076 120.700 C 191.176 120.315,191.176 119.685,191.076 119.300 C 190.975 118.915,190.893 119.230,190.893 120.000 M98.000 141.627 C 98.000 160.511,97.960 161.642,97.300 161.451 C 94.910 160.757,93.095 160.371,92.942 160.525 C 92.845 160.622,93.946 161.021,95.389 161.412 L 98.013 162.122 101.706 161.016 C 103.738 160.408,106.930 159.462,108.800 158.915 C 110.670 158.368,113.280 157.592,114.600 157.191 C 115.920 156.790,119.014 155.873,121.476 155.154 L 125.953 153.846 126.175 151.423 C 126.297 150.090,126.665 146.120,126.994 142.600 C 127.323 139.080,127.777 133.500,128.004 130.200 C 128.230 126.900,128.510 123.615,128.626 122.900 L 128.836 121.600 113.418 121.600 L 98.000 121.600 98.000 141.627 M190.000 125.800 C 190.000 126.350,190.180 126.800,190.400 126.800 C 190.620 126.800,190.800 126.350,190.800 125.800 C 190.800 125.250,190.620 124.800,190.400 124.800 C 190.180 124.800,190.000 125.250,190.000 125.800 M189.709 130.800 C 189.709 131.790,189.787 132.195,189.882 131.700 C 189.978 131.205,189.978 130.395,189.882 129.900 C 189.787 129.405,189.709 129.810,189.709 130.800 M40.975 133.722 C 40.724 134.376,41.496 142.832,41.836 143.162 C 42.094 143.412,41.702 136.988,41.345 135.100 L 41.136 134.000 54.139 134.000 C 66.178 134.000,67.156 134.052,67.345 134.700 C 67.462 135.104,67.517 134.978,67.474 134.400 L 67.400 133.400 54.290 133.295 C 43.664 133.209,41.140 133.290,40.975 133.722 M67.644 137.000 C 67.624 137.220,67.965 140.624,68.404 144.563 C 68.842 148.503,69.200 151.998,69.200 152.330 C 69.200 152.662,69.302 152.832,69.426 152.707 C 69.693 152.441,68.504 140.036,68.017 138.000 C 67.833 137.230,67.665 136.780,67.644 137.000 M7.088 143.445 C 6.953 143.580,7.123 144.392,7.467 145.250 C 7.890 146.307,7.963 146.969,7.693 147.305 C 7.475 147.577,7.347 148.340,7.408 149.000 C 7.470 149.660,7.539 150.436,7.560 150.724 C 7.582 151.012,7.780 151.136,8.000 151.000 C 8.220 150.864,8.400 151.134,8.400 151.600 C 8.400 152.066,8.229 152.342,8.020 152.212 C 7.788 152.069,7.730 152.725,7.871 153.889 C 7.997 154.940,8.284 155.917,8.508 156.059 C 8.732 156.202,8.816 156.697,8.695 157.159 C 8.574 157.622,8.638 158.000,8.837 158.000 C 9.232 158.000,9.348 154.281,8.966 153.899 C 8.837 153.770,8.667 152.525,8.589 151.132 C 8.511 149.739,8.382 147.970,8.302 147.200 C 8.222 146.430,8.121 145.215,8.078 144.500 C 8.004 143.274,7.643 142.890,7.088 143.445 M42.101 146.600 C 42.105 147.480,42.187 147.793,42.283 147.295 C 42.379 146.798,42.375 146.078,42.275 145.695 C 42.175 145.313,42.096 145.720,42.101 146.600 M42.459 150.600 C 42.386 152.740,43.508 165.242,43.799 165.525 C 44.104 165.823,43.791 161.312,42.999 154.000 C 42.725 151.470,42.482 149.940,42.459 150.600 M74.178 155.214 C 75.485 155.654,76.745 155.946,76.978 155.862 C 77.405 155.707,75.205 155.025,73.000 154.629 C 72.340 154.510,72.870 154.773,74.178 155.214 M81.000 157.200 C 83.196 158.010,84.385 158.205,83.780 157.654 C 83.408 157.316,79.961 156.370,79.323 156.431 C 79.145 156.448,79.900 156.794,81.000 157.200 M8.577 159.649 C 8.733 160.392,8.872 161.495,8.887 162.100 C 8.902 162.705,9.078 163.200,9.277 163.200 C 9.885 163.200,9.473 158.687,8.847 158.481 C 8.415 158.338,8.356 158.593,8.577 159.649 M88.178 159.214 C 89.485 159.654,90.745 159.946,90.978 159.862 C 91.405 159.707,89.205 159.025,87.000 158.629 C 86.340 158.510,86.870 158.773,88.178 159.214 M8.976 165.050 C 9.127 165.903,9.232 167.476,9.209 168.546 C 9.185 169.689,9.423 170.880,9.784 171.432 C 10.584 172.652,10.571 173.351,9.755 173.038 C 9.284 172.857,9.176 172.962,9.355 173.428 C 9.490 173.779,9.603 174.636,9.606 175.333 C 9.611 176.306,9.704 176.461,10.007 176.000 C 10.275 175.592,10.331 176.427,10.181 178.600 C 10.025 180.865,10.081 181.625,10.374 181.200 C 10.692 180.738,10.789 180.946,10.794 182.100 C 10.797 182.952,10.997 183.600,11.256 183.600 C 11.573 183.600,11.630 182.961,11.445 181.500 C 11.298 180.345,11.097 178.320,10.997 177.000 C 10.254 167.116,9.829 163.873,9.250 163.682 C 8.818 163.539,8.759 163.831,8.976 165.050 M44.101 169.000 C 44.105 169.880,44.187 170.193,44.283 169.695 C 44.379 169.198,44.375 168.478,44.275 168.095 C 44.175 167.713,44.096 168.120,44.101 169.000 M44.464 173.657 C 44.405 175.002,45.901 176.233,46.666 175.468 C 46.760 175.373,46.390 175.184,45.844 175.047 C 45.092 174.858,44.811 174.481,44.689 173.499 L 44.528 172.200 44.464 173.657 M47.264 175.784 C 47.586 176.123,53.165 177.596,54.000 177.563 C 54.330 177.550,53.477 177.207,52.105 176.802 C 48.846 175.840,46.935 175.438,47.264 175.784 M54.899 177.832 C 55.237 178.171,61.260 179.673,61.464 179.470 C 61.558 179.375,60.221 178.915,58.491 178.449 C 55.211 177.564,54.510 177.443,54.899 177.832 M62.813 179.966 C 63.539 180.412,68.850 181.683,69.070 181.464 C 69.221 181.313,65.698 180.299,63.400 179.833 C 62.562 179.662,62.385 179.703,62.813 179.966 M70.413 181.952 C 71.130 182.408,76.445 183.689,76.673 183.460 C 76.759 183.375,75.607 183.003,74.114 182.635 C 72.621 182.267,71.040 181.874,70.600 181.763 C 69.959 181.602,69.921 181.639,70.413 181.952 M78.000 184.052 C 79.411 184.618,84.060 185.673,84.261 185.472 C 84.427 185.307,77.919 183.577,77.314 183.625 C 77.142 183.639,77.450 183.831,78.000 184.052 M10.944 185.400 C 11.080 186.280,11.193 187.405,11.196 187.900 C 11.198 188.395,11.405 188.800,11.656 188.800 C 12.245 188.800,11.814 184.840,11.159 184.231 C 10.811 183.907,10.758 184.199,10.944 185.400 M84.899 185.832 C 85.237 186.171,91.260 187.673,91.464 187.470 C 91.558 187.375,90.221 186.915,88.491 186.449 C 85.211 185.564,84.510 185.443,84.899 185.832 M11.383 190.700 C 11.541 191.525,11.657 192.605,11.640 193.100 C 11.623 193.595,11.787 194.000,12.004 194.000 C 12.455 194.000,12.503 192.875,12.143 190.700 C 12.007 189.875,11.715 189.200,11.495 189.200 C 11.249 189.200,11.206 189.775,11.383 190.700 M11.606 195.900 C 11.611 197.022,11.711 197.249,12.004 196.800 C 12.282 196.374,12.391 196.897,12.379 198.600 C 12.370 199.920,12.461 202.350,12.581 204.000 C 12.702 205.650,12.845 207.879,12.900 208.953 C 13.004 210.986,14.060 211.970,15.532 211.405 C 15.853 211.282,16.444 211.478,16.845 211.840 C 17.257 212.214,17.926 212.408,18.386 212.288 C 18.833 212.171,19.287 212.218,19.395 212.392 C 19.503 212.567,20.239 212.831,21.031 212.979 C 21.822 213.128,23.184 213.621,24.056 214.076 C 24.929 214.531,26.442 214.925,27.419 214.951 C 28.396 214.978,29.196 215.135,29.198 215.300 C 29.199 215.465,29.524 215.600,29.920 215.600 C 30.316 215.600,30.863 215.823,31.137 216.097 C 31.532 216.492,31.701 216.483,31.968 216.051 C 32.219 215.646,32.344 215.632,32.466 215.997 C 32.555 216.265,33.229 216.555,33.964 216.640 C 34.699 216.726,35.952 216.972,36.750 217.186 C 37.547 217.401,38.303 217.537,38.429 217.488 C 38.554 217.440,38.931 217.674,39.267 218.009 C 39.602 218.345,41.250 218.863,42.929 219.161 C 44.609 219.460,45.905 219.830,45.809 219.985 C 45.713 220.140,45.852 220.285,46.118 220.308 C 47.181 220.399,48.637 220.710,49.281 220.983 C 49.655 221.141,50.138 221.162,50.353 221.029 C 50.569 220.896,50.860 220.973,51.000 221.200 C 51.140 221.427,51.434 221.502,51.653 221.367 C 51.872 221.232,52.430 221.454,52.894 221.861 C 53.358 222.267,53.606 222.375,53.445 222.100 C 53.284 221.825,53.343 221.600,53.576 221.600 C 53.809 221.600,54.000 221.840,54.000 222.133 C 54.000 222.427,54.225 222.695,54.500 222.729 C 57.716 223.130,60.176 223.645,60.400 223.963 C 60.510 224.119,61.643 224.492,62.919 224.792 C 64.194 225.091,65.335 225.495,65.454 225.688 C 65.574 225.881,65.925 225.828,66.236 225.570 C 66.577 225.287,66.800 225.263,66.800 225.508 C 66.800 225.732,67.079 226.022,67.421 226.153 C 67.777 226.289,67.937 226.222,67.797 225.995 C 67.663 225.778,67.833 225.600,68.176 225.600 C 68.519 225.600,68.800 225.889,68.800 226.243 C 68.800 226.679,69.015 226.803,69.468 226.629 C 69.835 226.488,70.253 226.562,70.396 226.793 C 70.539 227.024,71.421 227.289,72.358 227.383 C 73.294 227.476,74.316 227.764,74.628 228.023 C 74.940 228.282,75.557 228.400,75.998 228.285 C 76.439 228.169,76.800 228.218,76.800 228.392 C 76.800 228.566,77.606 228.830,78.591 228.978 C 79.576 229.125,80.488 229.419,80.618 229.630 C 80.749 229.841,81.034 229.902,81.253 229.767 C 81.472 229.632,81.993 229.832,82.412 230.211 C 82.851 230.608,83.518 230.810,83.986 230.688 C 84.433 230.571,84.910 230.654,85.045 230.872 C 85.180 231.091,85.630 231.181,86.045 231.072 C 86.460 230.964,86.800 231.038,86.800 231.237 C 86.800 231.437,87.124 231.600,87.520 231.600 C 87.916 231.600,88.479 231.825,88.770 232.100 C 89.191 232.497,89.337 232.498,89.482 232.104 C 89.619 231.730,89.812 231.755,90.264 232.207 C 90.594 232.537,91.030 232.705,91.232 232.580 C 91.435 232.455,91.825 232.493,92.100 232.665 C 92.375 232.837,92.780 233.007,93.000 233.044 C 98.148 233.899,98.897 233.341,94.100 232.225 C 92.395 231.828,90.771 231.319,90.490 231.094 C 90.210 230.870,89.867 230.800,89.727 230.940 C 89.588 231.079,89.251 231.008,88.979 230.782 C 88.707 230.557,88.330 230.407,88.142 230.449 C 87.954 230.492,87.530 230.421,87.200 230.292 C 86.870 230.162,84.350 229.496,81.600 228.811 C 78.850 228.127,76.240 227.402,75.800 227.201 C 75.360 227.000,73.110 226.365,70.800 225.789 C 68.490 225.214,66.240 224.590,65.800 224.402 C 65.360 224.214,64.550 223.964,64.000 223.847 C 63.450 223.730,61.020 223.064,58.600 222.368 C 56.180 221.671,51.140 220.307,47.400 219.337 C 43.660 218.366,40.212 217.377,39.738 217.139 C 39.264 216.901,38.679 216.827,38.438 216.976 C 38.197 217.125,38.000 217.085,38.000 216.887 C 38.000 216.689,36.965 216.299,35.700 216.019 C 34.435 215.740,33.183 215.335,32.918 215.121 C 32.652 214.907,32.260 214.840,32.045 214.972 C 31.831 215.105,31.537 215.021,31.392 214.787 C 31.209 214.491,30.957 214.504,30.564 214.830 C 30.231 215.106,30.000 215.134,30.000 214.896 C 30.000 214.567,27.386 213.625,25.800 213.384 C 25.580 213.350,25.130 213.206,24.800 213.063 C 24.254 212.827,23.045 212.481,15.900 210.520 L 13.600 209.889 13.600 207.378 C 13.600 205.733,13.427 204.803,13.100 204.683 C 12.738 204.551,12.720 204.372,13.034 204.036 C 13.325 203.725,13.355 202.946,13.125 201.686 C 12.935 200.649,12.787 199.530,12.795 199.200 C 12.804 198.870,12.818 198.240,12.827 197.800 C 12.856 196.352,12.371 194.400,11.982 194.400 C 11.772 194.400,11.603 195.075,11.606 195.900 M179.464 210.931 C 178.578 211.202,178.070 211.554,178.264 211.764 C 178.453 211.968,178.423 212.028,178.197 211.900 C 177.975 211.775,176.985 211.837,175.997 212.040 C 175.008 212.242,173.701 212.487,173.091 212.586 C 172.480 212.684,171.783 212.887,171.540 213.037 C 171.297 213.187,169.547 213.720,167.649 214.222 C 165.752 214.723,163.210 215.408,162.000 215.744 C 160.790 216.080,158.000 216.824,155.800 217.397 C 153.600 217.971,150.720 218.769,149.400 219.171 C 148.080 219.572,146.010 220.126,144.800 220.400 C 143.590 220.674,142.240 221.042,141.800 221.218 C 141.360 221.394,139.650 221.847,138.000 222.224 C 136.350 222.601,134.820 223.015,134.600 223.144 C 134.380 223.272,134.020 223.418,133.800 223.467 C 133.580 223.516,131.690 224.018,129.600 224.581 C 127.510 225.144,124.540 225.901,123.000 226.262 C 121.460 226.624,120.110 227.047,120.000 227.202 C 119.890 227.357,119.102 227.613,118.250 227.770 C 117.397 227.927,115.147 228.515,113.250 229.078 C 111.352 229.640,109.170 230.242,108.400 230.416 C 107.630 230.590,106.640 230.834,106.200 230.959 C 105.760 231.084,103.825 231.586,101.900 232.075 C 98.305 232.988,97.016 233.942,100.100 233.408 C 101.035 233.246,102.246 233.054,102.792 232.982 C 103.337 232.909,103.836 232.691,103.901 232.496 C 103.966 232.301,104.526 232.216,105.145 232.307 C 105.819 232.406,106.519 232.224,106.888 231.855 C 107.227 231.516,107.609 231.343,107.737 231.470 C 108.141 231.874,111.723 230.781,112.306 230.076 C 112.828 229.445,112.851 229.446,112.645 230.100 C 112.391 230.910,113.123 231.066,113.430 230.267 C 113.542 229.973,113.852 229.711,114.117 229.683 C 115.350 229.555,117.918 228.897,118.431 228.579 C 118.744 228.384,119.425 228.280,119.945 228.347 C 120.465 228.414,120.787 228.302,120.661 228.099 C 120.535 227.895,121.099 227.703,121.913 227.673 C 122.728 227.642,123.455 227.434,123.530 227.209 C 123.607 226.980,124.116 226.914,124.693 227.059 C 125.429 227.244,125.637 227.183,125.426 226.842 C 125.215 226.501,125.425 226.441,126.171 226.628 C 127.016 226.841,127.163 226.770,126.962 226.246 C 126.756 225.708,126.928 225.646,128.020 225.864 C 128.956 226.051,129.244 225.994,129.039 225.662 C 128.881 225.408,128.943 225.200,129.176 225.200 C 129.409 225.200,129.600 225.369,129.600 225.576 C 129.600 225.783,130.095 225.694,130.700 225.379 C 131.305 225.063,132.205 224.804,132.700 224.802 C 133.195 224.801,133.600 224.645,133.600 224.455 C 133.600 224.266,134.077 224.202,134.659 224.313 C 135.323 224.440,135.624 224.363,135.466 224.107 C 135.195 223.668,136.943 223.200,138.850 223.200 C 139.483 223.200,140.000 223.026,140.000 222.813 C 140.000 222.599,140.268 222.528,140.597 222.654 C 140.943 222.787,141.301 222.602,141.451 222.212 C 141.636 221.730,141.984 221.610,142.688 221.786 C 143.282 221.935,143.572 221.878,143.425 221.640 C 143.292 221.425,143.502 221.251,143.891 221.254 C 144.902 221.263,147.657 220.827,148.600 220.509 C 149.040 220.361,149.490 220.215,149.600 220.186 C 149.710 220.157,150.306 219.923,150.923 219.667 C 151.541 219.411,152.760 219.088,153.632 218.948 C 154.504 218.809,155.310 218.546,155.422 218.365 C 155.534 218.183,155.919 218.148,156.278 218.285 C 156.690 218.443,156.833 218.376,156.664 218.103 C 156.424 217.716,157.071 217.519,160.400 216.967 C 163.751 216.411,170.957 214.393,171.243 213.930 C 171.416 213.651,171.685 213.551,171.841 213.708 C 171.998 213.865,172.323 213.837,172.563 213.646 C 172.803 213.455,174.257 213.084,175.793 212.821 C 177.328 212.559,178.768 212.200,178.993 212.024 C 179.217 211.848,180.075 211.583,180.900 211.434 C 181.725 211.285,182.400 210.992,182.400 210.782 C 182.400 210.290,181.393 210.341,179.464 210.931 " stroke="none" fill="#fb641c" fill-rule="evenodd"></path></g></svg>