<svg id="svg" version="1.1" xmlns="http://www.w3.org/2000/svg" style="display: block;" viewBox="0 0 256 256"><path d="M0 0 C84.48 0 168.96 0 256 0 C256 84.48 256 168.96 256 256 C171.52 256 87.04 256 0 256 C0 171.52 0 87.04 0 0 Z " transform="translate(0,0)" style="fill: #E57911;"/><path d="M0 0 C42.24 0 84.48 0 128 0 C128 23 128 23 124 27 C123.24988633 30.45728358 123.24988633 30.45728358 124 34 C127.07054542 37.97364701 130.44387127 39.98682684 135 42 C135 43.32 135 44.64 135 46 C133.741875 46.020625 132.48375 46.04125 131.1875 46.0625 C130.47980469 46.07410156 129.77210938 46.08570313 129.04296875 46.09765625 C127 46 127 46 124 45 C123.67 47.31 123.34 49.62 123 52 C124.65 52.33 126.3 52.66 128 53 C128 67.52 128 82.04 128 97 C124.4082443 94.84494658 121.63393389 92.9580983 118.5 90.3125 C107.77514234 81.64950022 97.70573095 75.72664626 84 74.1875 C78.19523719 73.44633393 74.76116294 72.02232311 70.140625 68.53125 C64.46494852 64.47127705 57.91517552 62.21174165 50.91796875 62.6328125 C48.81075075 62.93724906 48.81075075 62.93724906 46.4375 64.375 C44.182146 68.49347252 44.27105045 72.40740897 45 77 C46.60954718 80.29262518 48.78666791 83.01543075 51.0625 85.875 C56.59157794 93.313024 59.97940326 100.29683016 62.73510742 109.11474609 C64.46611073 114.63482713 66.53427884 119.3225874 69.8359375 124.125 C71.63446604 127.02195873 72.22293562 129.01808131 71.45678711 132.39257812 C71.1706958 133.26333984 70.88460449 134.13410156 70.58984375 135.03125 C68.87120478 140.93717193 68.49880441 146.37340844 68.5625 152.5 C68.56862305 153.50667725 68.57474609 154.51335449 68.58105469 155.55053711 C68.73042436 162.62893587 69.47089696 168.73674546 73 175 C73.34675781 175.6290625 73.69351563 176.258125 74.05078125 176.90625 C75.76418521 179.71120475 77.23234475 181.1548965 80 183 C83 183.5 83 183.5 86 183 C89.21335207 179.80998947 89.61717308 176.63713017 90.1875 172.25 C90.42533203 170.49429688 90.42533203 170.49429688 90.66796875 168.703125 C90.77753906 167.81109375 90.88710937 166.9190625 91 166 C93.73278208 168.41222113 95.08625842 170.93454791 96.6875 174.1875 C99.69584386 179.82535924 103.2461015 183.78712353 108 188 C108.7321875 188.66386719 109.464375 189.32773438 110.21875 190.01171875 C113.85496568 193.36992537 113.85496568 193.36992537 118 196 C117.030625 195.13375 116.06125 194.2675 115.0625 193.375 C104.62790387 182.8772914 96.317403 167.0586791 92 153 C86.08264409 158.45019624 84.78995799 162.97535987 83.875 170.8125 C83.74544922 171.85180664 83.74544922 171.85180664 83.61328125 172.91210938 C83.40283919 174.60733706 83.20058328 176.30357755 83 178 C78.8968633 176.30215033 77.00684129 174.02611271 75.05078125 170.08984375 C70.95133601 158.13855101 71.60221288 144.413948 76.22265625 132.76171875 C77.16067735 129.42915131 76.90124334 127.32304596 76 124 C74.80969155 122.6113068 73.615339 121.22563464 72.390625 119.8671875 C68.65714953 114.85426257 66.77775569 108.38104727 64.85546875 102.49609375 C62.10190325 94.10646776 58.5129233 87.87101296 53 81 C49.88241335 76.99663664 48.38924684 74.25247718 49 69 C50 68 50 68 52.61328125 67.73046875 C56.66350724 68.05280507 59.66090583 69.44193724 63.1875 71.3125 C63.80302734 71.62123047 64.41855469 71.92996094 65.05273438 72.24804688 C69.66147766 74.61982701 69.66147766 74.61982701 71.4921875 76.67578125 C73.96874848 78.85079206 76.72287712 78.60296793 79.9375 78.875 C96.01077182 80.60593788 109.15646607 89.44050113 121 100 C121.58433839 100.41608804 122.16867678 100.83217607 122.77072239 101.26087284 C126.01636567 103.86893906 127.76366349 105.87726972 128.6349926 110.01656914 C128.86238702 113.84534316 128.86691256 117.64083019 128.79467773 121.47241211 C128.79270122 122.94140528 128.79381546 124.41040536 128.79777527 125.87939453 C128.79977805 129.85260517 128.75871945 133.82432681 128.70975757 137.79719234 C128.66590154 141.95444418 128.66187888 146.11173282 128.65357971 150.2691803 C128.63185103 158.13516161 128.57444668 166.00045925 128.50413328 173.86613995 C128.41114738 184.49967324 128.37345367 195.13339442 128.33261776 205.76723194 C128.26686078 222.51199972 128.12738975 239.25532504 128 256 C85.76 256 43.52 256 0 256 C0 171.52 0 87.04 0 0 Z " transform="translate(0,0)" style="fill: #144E61;"/><path d="M0 0 C5.62675417 1.792659 10.67927438 3.92146685 15.32421875 7.5859375 C19.27064596 10.48578345 22.90696845 10.93888872 27.6875 11.4375 C49.10682862 14.41192322 68.20816103 30.8427331 81.08227539 47.5612793 C88.02659365 56.88814612 93.00657549 66.76943124 97.5 77.4375 C98.64201509 80.12089845 99.78580652 82.80351073 100.93261719 85.48486328 C101.61077462 87.08284541 102.27925138 88.68499751 102.93457031 90.29248047 C106.17586838 98.12770209 109.27455642 103.54402426 117.3125 107 C119.26164819 107.77754221 121.2191514 108.52603273 123.18408203 109.26269531 C133.24372293 113.34714214 144.94317794 121.98044329 151 131 C150.67 131.99 150.34 132.98 150 134 C145.9155167 135.72041564 141.80561335 136.47519801 137.4375 137.125 C136.34308594 137.29257813 135.24867188 137.46015625 134.12109375 137.6328125 C131.37252787 137.95617319 128.76270831 138.07202592 126 138 C128.7056862 141.69986858 131.16640381 143.96486284 135.125 146.25 C143.9914018 151.70715785 151.19772388 158.34375879 157 167 C153.36063439 167 152.96768454 166.33697971 150.3125 164 C146.14224063 160.60655365 141.8935637 158.38220098 137.0625 156.125 C127.89869829 151.7660601 120.16728656 146.59659051 116 137 C116 136.34 116 135.68 116 135 C121.59190908 132.29130049 126.80505003 131.16591319 132.9375 130.3125 C133.81212891 130.18294922 134.68675781 130.05339844 135.58789062 129.91992188 C137.72401986 129.60475527 139.86185355 129.30117747 142 129 C131.9225559 121.45149624 122.56259129 115.12133219 110.5324707 111.26708984 C104.60713775 109.25400061 102.28850059 106.35925045 99.34008789 100.96069336 C98.80633545 99.84831299 98.27258301 98.73593262 97.72265625 97.58984375 C97.42942978 96.98169327 97.13620331 96.37354279 96.83409119 95.7469635 C96.21681959 94.4633911 95.6026555 93.1783201 94.99145508 91.8918457 C94.07511638 89.96404247 93.14883304 88.04129004 92.22070312 86.11914062 C89.4263819 80.30109751 86.74315136 74.46781521 84.32421875 68.48046875 C75.64214114 47.28499442 56.59853819 30.52133449 36.125 21.125 C30.30754103 18.79336864 24.54040418 18.12770716 18.34765625 17.65234375 C14.45928806 16.89463373 12.93604714 15.59146283 10 13 C8.054041 11.85809135 6.07273957 10.77452364 4.0625 9.75 C2.56396484 8.96882813 2.56396484 8.96882813 1.03515625 8.171875 C-2.20631854 6.92034033 -4.55779175 6.77428143 -8 7 C-8.44363642 12.1281363 -7.48449784 14.37628923 -4.3125 18.375 C2.26193408 26.76947515 6.10670642 34.44223081 9.31640625 44.578125 C11.47674983 51.12949252 14.19905587 56.91896146 18.875 62.0625 C20.70967475 65.22221762 19.78940609 67.50405875 19 71 C18.75378906 71.66257812 18.50757813 72.32515625 18.25390625 73.0078125 C14.04766948 84.55986945 14.61393225 98.14684327 18.63671875 109.65234375 C20.30535141 112.52583437 22.31621556 114.08173948 25 116 C25.03738281 114.98679687 25.07476562 113.97359375 25.11328125 112.9296875 C25.17898388 111.57809061 25.24542971 110.22652971 25.3125 108.875 C25.34633789 107.87726563 25.34633789 107.87726563 25.38085938 106.859375 C25.78712608 99.32497436 28.53899681 95.01821914 34 90 C34.24492188 90.65742188 34.48984375 91.31484375 34.7421875 91.9921875 C40.14372348 105.73816526 47.18696238 118.90321688 57 130 C58.00314356 131.20572486 59.00360303 132.41369388 60 133.625 C60.99 134.800625 60.99 134.800625 62 136 C49.56385769 130.35945065 39.08099167 117.41547756 34 105 C33.90203125 105.80824219 33.8040625 106.61648437 33.703125 107.44921875 C32.1149045 118.79951872 32.1149045 118.79951872 28 122 C24.04079466 122.86069681 22.41873572 122.24782318 18.9375 120.1875 C13.59858649 115.29817921 10.32184346 106.77547418 9.83886719 99.60913086 C9.79296246 96.71846767 9.7647031 93.82849751 9.75 90.9375 C9.729375 89.95072266 9.70875 88.96394531 9.6875 87.94726562 C9.65455338 81.65857986 10.46617052 76.35315547 12.45019531 70.37719727 C13.27874537 66.79478525 12.53807025 64.92569795 10.71728516 61.79321289 C10.20472168 61.0068042 9.6921582 60.22039551 9.1640625 59.41015625 C6.00637589 54.27303833 4.18418749 49.15838878 2.375 43.4375 C-0.52381775 34.75574665 -4.22903162 27.81422092 -10.13916016 20.80639648 C-13.78901898 16.27255994 -14.57478043 13.03905035 -14.38256836 7.22021484 C-14 5 -14 5 -12.0625 1.875 C-7.80252009 -0.73315096 -4.87050553 -0.91550856 0 0 Z " transform="translate(58,62)" style="fill: #F8F7F6;"/><path d="M0 0 C1.11246094 -0.01675781 2.22492188 -0.03351562 3.37109375 -0.05078125 C6.96734717 0.35858419 8.72923389 1.08184966 11.5625 3.3125 C15.81833999 8.74845282 15.19279571 14.71927515 14.5625 21.3125 C13.1875 24.9375 13.1875 24.9375 11.5625 27.3125 C10.9025 28.3025 10.2425 29.2925 9.5625 30.3125 C11.5425 32.9525 13.5225 35.5925 15.5625 38.3125 C11.85270487 38.60032893 8.26345835 38.75448495 4.5625 38.3125 C1.875 35.9375 1.875 35.9375 0.5625 33.3125 C0.5625 32.6525 0.5625 31.9925 0.5625 31.3125 C-0.736875 31.43625 -0.736875 31.43625 -2.0625 31.5625 C-6.33887718 31.24573132 -8.17790931 30.06504325 -11.4375 27.3125 C-15.64740807 21.83961951 -15.19911375 14.89920356 -14.4375 8.3125 C-13.26961072 5.08433423 -11.6237525 3.08023196 -8.69921875 1.1875 C-5.72115091 0.03536322 -3.18785587 0.01105615 0 0 Z " transform="translate(162.4375,21.6875)" style="fill: #FEFBF8;"/><path d="M0 0 C3.96 0 7.92 0 12 0 C12.26554687 0.96421875 12.53109375 1.9284375 12.8046875 2.921875 C13.15789062 4.18515625 13.51109375 5.4484375 13.875 6.75 C14.39707031 8.62945313 14.39707031 8.62945313 14.9296875 10.546875 C15.76739025 13.24953641 16.62479728 15.5469357 18 18 C18.34933594 16.78441406 18.69867188 15.56882812 19.05859375 14.31640625 C19.5180586 12.73172137 19.9777033 11.14708863 20.4375 9.5625 C20.66759766 8.76005859 20.89769531 7.95761719 21.13476562 7.13085938 C22.88671875 1.11328125 22.88671875 1.11328125 24 0 C27.63 0 31.26 0 35 0 C35 10.23 35 20.46 35 31 C32.36 31 29.72 31 27 31 C26.67 25.72 26.34 20.44 26 15 C24.02 22.425 24.02 22.425 22 30 C19.03 30 16.06 30 13 30 C11.68 25.38 10.36 20.76 9 16 C8.855625 18.289375 8.71125 20.57875 8.5625 22.9375 C8.125 29.875 8.125 29.875 7 31 C4.69 31 2.38 31 0 31 C0 20.77 0 10.54 0 0 Z " transform="translate(55,22)" style="fill: #F2F5F6;"/><path d="M0 0 C0.66 0.33 1.32 0.66 2 1 C1.125 5.75 1.125 5.75 0 8 C-3.3 7.67 -6.6 7.34 -10 7 C-10 7.66 -10 8.32 -10 9 C-9.38511719 9.32613281 -8.77023438 9.65226562 -8.13671875 9.98828125 C-6.92435547 10.64376953 -6.92435547 10.64376953 -5.6875 11.3125 C-4.88699219 11.74175781 -4.08648437 12.17101563 -3.26171875 12.61328125 C-1.10723404 13.93425201 0.4407479 15.01773314 2 17 C2.39919236 20.09374082 2.62913952 22.03900393 2 25 C-0.53453657 28.21954645 -2.11297305 29.70432435 -6 31 C-7.66458673 31.09308544 -9.33281997 31.12996185 -11 31.125 C-12.299375 31.12886719 -12.299375 31.12886719 -13.625 31.1328125 C-16 31 -16 31 -19 30 C-19 27.36 -19 24.72 -19 22 C-18.505 22.165 -18.01 22.33 -17.5 22.5 C-13.96555911 23.20688818 -10.60309299 23.06005155 -7 23 C-7.6526059 19.9479212 -7.6526059 19.9479212 -9.7421875 18.97265625 C-10.44601563 18.67230469 -11.14984375 18.37195313 -11.875 18.0625 C-17.44166558 15.40885655 -17.44166558 15.40885655 -19 12 C-19.60190112 7.86192982 -19.40553614 5.73308456 -17.375 2.0625 C-11.96884677 -1.24126031 -6.18173309 -0.54844273 0 0 Z " transform="translate(142,22)" style="fill: #FBF9F7;"/><path d="M0 0 C2.97 0 5.94 0 9 0 C10.65 3.3 12.3 6.6 14 10 C15.65 6.7 17.3 3.4 19 0 C21.97 0 24.94 0 28 0 C25 6 22 12 19 18 C18.77049681 20.204364 18.58924067 22.41392173 18.4375 24.625 C18.35371094 25.81351563 18.26992187 27.00203125 18.18359375 28.2265625 C18.09271484 29.59941406 18.09271484 29.59941406 18 31 C15.36 31 12.72 31 10 31 C10.03222656 30.25878906 10.06445312 29.51757812 10.09765625 28.75390625 C9.97679361 17.78226467 5.35248531 10.29926741 0 1 C0 0.67 0 0.34 0 0 Z " transform="translate(93,22)" style="fill: #F8F9FA;"/><path d="M0 0 C2.64 0 5.28 0 8 0 C8 7.92 8 15.84 8 24 C11.96 24 15.92 24 20 24 C20 26.31 20 28.62 20 31 C13.4 31 6.8 31 0 31 C0 20.77 0 10.54 0 0 Z " transform="translate(183,22)" style="fill: #FEFAF6;"/><path d="M0 0 C2.916391 0.59823405 3.67381321 1.12831861 5.4375 3.5 C5.8359375 6.3125 5.8359375 6.3125 5.8125 9.5 C5.82023438 10.551875 5.82796875 11.60375 5.8359375 12.6875 C5.4375 15.5 5.4375 15.5 4.13671875 17.37890625 C2.4375 18.5 2.4375 18.5 -1.125 18.4375 C-4.5625 17.5 -4.5625 17.5 -6 15.9375 C-7.18693057 10.7941342 -7.45203758 7.08140014 -4.875 2.5 C-2.5625 0.5 -2.5625 0.5 0 0 Z " transform="translate(162.5625,27.5)" style="fill: #E67F1C;"/><path d="M0 0 C3.375 0.3125 3.375 0.3125 7 1 C9 4 9 4 8.625 7.1875 C8.41875 8.115625 8.2125 9.04375 8 10 C7.01 10 6.02 10 5 10 C3.33333333 6.66666667 1.66666667 3.33333333 0 0 Z " transform="translate(78,91)" style="fill: #EBF0F1;"/><path d="M0 0 C3.465 1.485 3.465 1.485 7 3 C7 4.32 7 5.64 7 7 C4.36 7 1.72 7 -1 7 C-0.67 4.69 -0.34 2.38 0 0 Z " transform="translate(128,39)" style="fill: #E37E1C;"/></svg>