<?xml version="1.0" standalone="no"?>
<!DOCTYPE svg PUBLIC "-//W3C//DTD SVG 20010904//EN"
 "http://www.w3.org/TR/2001/REC-SVG-20010904/DTD/svg10.dtd">
<svg version="1.0" xmlns="http://www.w3.org/2000/svg"
 width="1478.000000pt" height="1434.000000pt" viewBox="0 0 1478.000000 1434.000000"
 preserveAspectRatio="xMidYMid meet">

<g transform="translate(0.000000,1434.000000) scale(0.100000,-0.100000)"
fill="#ffffff" stroke="none">
<path d="M7115 12484 c-22 -2 -105 -8 -185 -14 -244 -18 -557 -61 -695 -96
-49 -13 -66 -14 -97 -3 -31 10 -44 9 -80 -4 -24 -8 -81 -20 -127 -26 -105 -14
-205 -42 -302 -87 -45 -20 -118 -42 -180 -54 -141 -27 -184 -43 -286 -104
-140 -85 -297 -163 -448 -223 -156 -62 -196 -85 -274 -154 -29 -26 -83 -62
-119 -79 -38 -18 -93 -57 -131 -93 -36 -34 -86 -72 -111 -85 -25 -12 -97 -66
-160 -118 -63 -53 -126 -102 -140 -109 -14 -7 -43 -32 -65 -55 -71 -74 -147
-125 -285 -192 -118 -57 -145 -76 -215 -143 -59 -57 -100 -86 -155 -112 -41
-19 -91 -42 -110 -51 -19 -9 -67 -49 -106 -88 -46 -47 -98 -87 -150 -115 -43
-24 -115 -71 -160 -104 -55 -42 -106 -70 -159 -89 -116 -41 -187 -77 -193 -98
-2 -10 -16 -21 -31 -24 -14 -2 -44 -13 -66 -23 -22 -11 -59 -27 -82 -37 -24
-10 -44 -25 -44 -33 -3 -37 -5 -42 -19 -51 -39 -24 3 -135 91 -240 28 -34 56
-78 61 -98 14 -52 64 -117 162 -208 l85 -80 -10 -44 c-15 -65 -16 -248 -1
-380 7 -63 17 -288 23 -500 5 -212 14 -405 18 -430 59 -321 63 -360 67 -640 3
-274 17 -470 54 -735 10 -77 22 -169 25 -205 19 -199 100 -639 156 -855 33
-126 76 -239 143 -380 71 -147 302 -552 381 -665 68 -99 155 -236 287 -455 60
-99 121 -192 137 -206 15 -15 48 -57 73 -95 24 -38 61 -89 82 -114 20 -25 52
-67 70 -95 52 -79 123 -88 152 -19 19 45 12 86 -32 187 -19 43 -34 85 -34 94
0 9 -14 38 -30 65 -17 26 -30 54 -30 61 0 7 -10 30 -21 52 -32 58 -69 173 -69
211 0 40 -35 121 -81 189 -24 35 -60 128 -122 315 -48 146 -91 276 -95 290 -4
14 -4 106 -1 205 14 389 10 572 -17 753 l-6 42 58 0 c107 0 99 14 100 -188 1
-190 14 -293 59 -441 173 -577 659 -998 1249 -1080 125 -18 339 -14 468 8 201
35 421 121 598 235 168 109 337 279 456 461 32 50 64 95 70 102 6 6 24 41 39
77 28 67 32 70 58 60 13 -4 11 -21 -13 -112 -33 -125 -44 -195 -35 -221 3 -12
31 -29 71 -45 55 -22 69 -25 82 -14 49 41 164 357 212 583 7 33 16 76 21 95
14 56 11 133 -7 158 -19 28 -65 52 -98 52 -33 0 -59 -35 -92 -128 -50 -141
-50 -141 -74 -135 -24 6 -24 9 1 133 8 41 13 147 13 285 1 194 -2 231 -22 315
-27 115 -27 110 1 110 31 0 42 10 63 55 16 33 33 47 109 87 96 50 238 100 345
119 36 7 124 12 195 12 150 -1 276 -28 386 -83 106 -53 129 -75 129 -120 0
-31 5 -42 23 -51 12 -6 23 -13 24 -14 2 -1 -4 -24 -12 -51 -56 -190 -66 -423
-30 -699 4 -30 0 -24 -15 25 -11 36 -20 74 -20 86 0 52 -65 68 -143 35 -54
-23 -61 -40 -52 -129 13 -135 37 -241 95 -415 88 -261 115 -307 179 -307 47 0
99 32 107 66 5 18 -1 53 -15 98 -22 71 -50 188 -51 215 0 8 29 -44 65 -115 83
-166 175 -292 301 -418 225 -225 506 -374 819 -432 132 -25 390 -25 522 -1
487 89 906 415 1116 867 105 227 148 431 148 703 l0 157 65 2 c35 0 70 1 76 2
13 1 96 -226 163 -447 32 -105 36 -127 31 -190 -3 -40 -9 -196 -12 -347 -7
-323 -2 -361 57 -425 l38 -41 2 -145 c1 -117 -5 -179 -29 -329 -17 -102 -35
-225 -42 -275 -6 -49 -18 -112 -27 -138 -34 -109 31 -210 151 -232 34 -7 41
-5 62 21 13 16 23 34 24 40 0 7 11 15 24 18 33 8 103 90 116 135 5 20 10 55
10 79 0 33 9 56 39 100 21 31 58 93 82 137 24 44 58 104 76 134 43 71 113 295
140 444 5 25 9 28 33 23 45 -8 80 45 100 154 7 36 30 116 51 178 22 65 38 131
38 155 -1 23 15 93 35 154 46 142 65 239 56 289 -4 24 -2 53 6 74 7 19 20 64
29 100 11 42 32 86 59 125 61 86 74 113 113 249 40 141 53 270 33 341 -11 39
-10 58 6 135 14 72 16 101 8 140 -6 27 -7 51 -2 52 5 2 1 39 -8 83 -43 214
-55 323 -56 516 0 108 3 173 11 187 31 59 32 304 2 518 -6 39 -15 152 -20 252
-6 99 -15 202 -21 228 -6 26 -15 92 -20 148 -6 61 -23 146 -44 216 -19 63 -46
171 -61 240 -42 202 -137 467 -196 552 -24 32 -23 49 1 118 25 70 25 99 -1
195 -29 110 -78 211 -131 270 -25 28 -75 88 -111 134 -106 134 -279 319 -313
336 -17 8 -37 21 -44 30 -6 8 -28 18 -48 21 -20 4 -53 19 -74 35 -21 15 -61
35 -89 45 -39 14 -58 29 -80 60 -55 80 -159 164 -334 267 -93 55 -186 115
-205 132 -45 42 -213 167 -315 235 -44 30 -109 84 -145 120 -36 37 -85 80
-110 96 -25 16 -78 53 -119 82 -62 44 -81 53 -111 51 -25 -2 -46 4 -67 19 -55
39 -117 59 -207 66 -53 4 -104 15 -125 25 -20 10 -50 22 -68 25 -18 4 -49 21
-70 38 -53 42 -231 130 -338 166 -56 19 -122 33 -175 37 -47 4 -122 18 -168
31 -93 26 -190 44 -430 79 -92 13 -221 36 -287 51 -116 25 -131 26 -480 29
-198 1 -378 1 -400 -1z m2840 -3545 c134 -60 124 -53 169 -114 l38 -49 -7 -76
c-3 -41 -15 -112 -26 -158 -22 -95 -24 -140 -8 -196 6 -21 12 -72 13 -115 2
-71 6 -83 60 -186 32 -60 70 -126 85 -145 22 -30 26 -43 24 -97 -2 -35 4 -113
13 -175 8 -62 19 -146 24 -186 6 -47 18 -89 34 -115 29 -51 207 -222 256 -247
28 -14 38 -27 48 -64 9 -36 22 -54 62 -85 27 -21 53 -41 58 -43 17 -6 94 -151
118 -221 22 -64 54 -193 54 -218 0 -5 -25 -9 -56 -9 -53 0 -55 1 -66 33 -24
69 -122 246 -186 337 -37 52 -114 142 -172 200 -527 527 -1323 604 -1934 186
-170 -116 -341 -299 -447 -477 -48 -83 -55 -89 -84 -89 -22 0 -55 15 -101 46
-252 169 -507 227 -781 180 -228 -40 -381 -120 -467 -245 l-29 -41 -24 26
c-18 20 -31 25 -54 22 -27 -4 -32 0 -51 36 -96 188 -292 403 -486 533 -255
171 -530 254 -847 255 -581 3 -1104 -316 -1392 -848 -24 -46 -49 -84 -54 -84
-5 0 -16 -15 -25 -32 l-15 -33 -123 3 -123 3 -6 242 c-3 140 -12 290 -22 357
-18 129 -21 110 58 410 48 187 67 305 67 431 0 105 1 109 45 212 25 58 45 111
45 117 0 6 27 -7 60 -30 68 -46 275 -150 299 -150 21 0 163 -57 281 -113 52
-25 129 -52 170 -61 41 -10 149 -46 240 -82 175 -70 262 -99 400 -133 47 -12
126 -32 175 -45 143 -38 294 -50 438 -35 67 6 147 10 177 8 102 -7 347 -1 441
11 87 11 332 67 389 88 16 6 31 5 42 -1 27 -17 310 34 460 83 85 28 158 61
229 102 57 34 153 86 212 116 76 38 127 73 170 114 68 65 96 75 264 101 50 8
117 27 148 41 32 14 71 26 88 26 30 0 94 15 207 47 73 20 179 73 249 124 89
64 170 109 246 136 103 38 194 86 254 135 29 23 68 52 86 63 19 12 55 38 82
58 159 124 286 183 368 170 17 -3 80 -27 140 -54z m-4486 -1654 c352 -74 668
-288 867 -586 107 -160 173 -319 216 -523 30 -145 30 -378 0 -533 -117 -592
-550 -1037 -1137 -1168 -108 -24 -379 -30 -495 -11 -146 24 -263 61 -395 125
-399 195 -672 559 -762 1016 -24 122 -23 376 1 500 87 449 353 821 741 1035
281 155 653 211 964 145z m4181 9 c469 -82 881 -427 1064 -892 164 -414 125
-899 -104 -1285 -200 -340 -522 -568 -921 -654 -130 -28 -391 -25 -528 5 -570
128 -991 568 -1107 1157 -25 126 -25 406 0 530 73 368 262 675 545 888 195
147 429 239 674 267 91 11 267 3 377 -16z m-1733 -1756 c-3 -8 -6 -5 -6 6 -1
11 2 17 5 13 3 -3 4 -12 1 -19z m10 -40 c-3 -8 -6 -5 -6 6 -1 11 2 17 5 13 3
-3 4 -12 1 -19z"/>
</g>
</svg>
