<svg width="3462" height="1565" viewBox="0 0 3462 1565" fill="none" xmlns="http://www.w3.org/2000/svg">
<rect x="50" y="59" width="3362" height="1456" rx="728" fill="white" stroke="#2A97A3" stroke-width="100"/>
<path d="M1877.6 477L2102.6 1107H2014.4L1961.3 957.6H1682.3L1629.2 1107H1541L1766 477H1877.6ZM1820.9 566.1L1711.1 876.6H1932.5L1822.7 566.1H1820.9ZM2201.66 774V532.8L2306.06 472.5H2515.76L2620.16 532.8V625.5H2530.16V553.5H2291.66V744.3H2515.76L2620.16 804.6V1051.2L2515.76 1111.5H2297.06L2192.66 1051.2V958.5H2282.66V1030.5H2530.16V834.3H2306.06L2201.66 774ZM2781.73 1107V477H2871.73V1107H2781.73Z" fill="#2A97A3"/>
<g clip-path="url(#clip0_2:2)">
<path d="M997.649 841.563C989.552 835.256 977.883 836.705 971.576 844.797C961.756 857.399 941.112 865.541 918.979 865.541C897.098 865.541 876.553 857.526 866.634 845.121C860.228 837.108 848.538 835.801 840.523 842.209C832.51 848.615 831.206 860.305 837.611 868.323C854.821 889.845 885.237 902.696 918.976 902.696C952.645 902.696 984.029 889.264 1000.88 867.636C1007.19 859.543 1005.74 847.869 997.649 841.563Z" fill="#2A97A3"/>
<path d="M645.262 678.906C654.879 678.906 662.676 671.109 662.676 661.491C662.676 651.873 654.879 644.077 645.262 644.077C635.644 644.077 627.847 651.873 627.847 661.491C627.847 671.109 635.644 678.906 645.262 678.906Z" fill="#2A97A3"/>
<path d="M1144.7 558.658C1128.61 548.199 1100.78 541.959 1070.25 541.959C1039.31 541.959 1011.27 548.343 995.241 559.031C986.704 564.724 984.399 576.259 990.09 584.795C993.674 590.165 999.565 593.07 1005.57 593.07C1009.11 593.07 1012.69 592.06 1015.86 589.946C1023.94 584.557 1043.9 579.116 1070.25 579.116C1096.32 579.116 1116.26 584.489 1124.45 589.814C1133.05 595.405 1144.56 592.963 1150.15 584.361C1155.74 575.757 1153.3 564.25 1144.7 558.658Z" fill="#2A97A3"/>
<path d="M843.059 559.031C827.03 548.343 798.989 541.959 768.05 541.959C737.52 541.959 709.689 548.204 693.603 558.661C685.001 564.252 682.561 575.759 688.153 584.361C693.747 592.961 705.253 595.398 713.853 589.811C722.045 584.486 741.977 579.114 768.048 579.114C794.407 579.114 814.36 584.555 822.443 589.943C825.612 592.057 829.191 593.067 832.732 593.067C838.734 593.067 844.623 590.165 848.207 584.793C853.9 576.259 851.598 564.724 843.059 559.031Z" fill="#2A97A3"/>
<path d="M1053.5 716.608C1067.33 716.608 1078.55 705.395 1078.55 691.564C1078.55 677.732 1067.33 666.519 1053.5 666.519C1039.67 666.519 1028.46 677.732 1028.46 691.564C1028.46 705.395 1039.67 716.608 1053.5 716.608Z" fill="#2A97A3"/>
<path d="M784.448 716.608C798.28 716.608 809.492 705.395 809.492 691.564C809.492 677.732 798.28 666.519 784.448 666.519C770.616 666.519 759.403 677.732 759.403 691.564C759.403 705.395 770.616 716.608 784.448 716.608Z" fill="#2A97A3"/>
<path d="M1117 953.689C1125.12 959.96 1136.78 958.462 1143.06 950.344C1170.14 915.281 1188.21 875.339 1196.59 832.779C1262.23 814.68 1296.51 752.504 1291.84 698.922C1290.27 680.928 1284.52 665.384 1275.45 653.035C1291.56 576.66 1303.12 450.628 1229.64 376.187C1259.24 334.946 1265.36 297.939 1265.63 296.252C1266.63 289.903 1264.28 283.488 1259.41 279.295C1254.54 275.1 1247.84 273.72 1241.71 275.64C1215.35 283.92 1187.15 287.168 1160.18 285.04C1124.09 282.197 1094.19 261.6 1062.53 239.797C1034.21 220.29 1004.93 200.12 969.205 191.35C903.919 175.32 831.946 182.582 771.747 211.27C762.487 215.684 758.554 226.771 762.968 236.034C767.38 245.294 778.462 249.23 787.732 244.813C840.325 219.749 903.244 213.417 960.345 227.434C989.455 234.58 1014.71 251.976 1041.46 270.396C1075.76 294.02 1111.23 318.446 1157.25 322.08C1177.77 323.698 1198.86 322.672 1219.56 319.117C1218 319.383 1212.28 334.096 1211.18 336.064C1207.22 343.151 1202.82 349.984 1198 356.52C1179.82 381.21 1155.78 401.298 1128.92 415.961C1106.46 428.225 1082.15 436.783 1057.25 442.53C1031.72 448.424 1005.29 453.364 978.982 451.003C954.126 448.771 930.205 440.232 906.854 431.906C877.183 421.327 847.506 410.372 816.238 405.54C800.498 403.108 784.516 402.308 768.633 403.643C753.844 404.884 739.445 408.1 725.367 412.722C722.923 413.524 695.174 424.33 695.719 425.632C675.7 377.648 688.124 324.77 730.187 283.993C737.553 276.851 737.737 265.089 730.595 257.723C723.451 250.355 711.69 250.173 704.326 257.315C677.802 283.028 660.616 312.652 653.14 343.545C566.919 387.814 533.51 489.883 558.635 632.69C554.629 641.474 552.378 651.221 552.378 661.491C552.378 664.469 552.586 667.394 552.951 670.273C541.433 698.264 543.771 734.094 559.52 765.504C576.243 798.861 605.662 822.803 641.406 832.732C661.034 931.525 732.249 1011.95 825.694 1044.67V1096.07C809.757 1098.53 794.119 1102.35 778.972 1107.49C778.95 1107.5 778.924 1107.51 778.901 1107.51L776.365 1108.39C664.415 1147.63 589.201 1253.74 589.201 1372.42C589.201 1382.69 597.518 1391 607.778 1391H1230.18C1240.44 1391 1248.76 1382.68 1248.76 1372.42C1248.76 1253.74 1173.53 1147.63 1061.56 1108.4C1045.62 1102.81 1029.1 1098.68 1012.26 1096.07V1044.73C1038.44 1035.6 1063.28 1022.6 1086.13 1005.85C1094.41 999.786 1096.2 988.159 1090.13 979.885C1084.07 971.611 1072.44 969.82 1064.16 975.886C1041.04 992.84 1015.55 1005.39 988.622 1013.33C988.563 1013.34 988.504 1013.35 988.445 1013.37C907.614 1037.14 818.118 1016.87 755.385 960.833C712.619 922.635 683.981 869.835 675.716 813.057C675.157 809.213 674.688 805.353 674.313 801.486C674.223 800.569 674.147 791.282 673.548 791.006C686.272 796.876 700.308 799.901 714.318 799.901C714.318 799.901 779.465 799.901 779.472 799.901C811.736 799.901 843.248 783.01 861.007 756.057C874.394 735.74 876.947 711.835 881.083 688.468C890.176 679.821 904.299 674.581 919.158 674.581C933.989 674.581 947.683 679.552 956.814 688.053L957.08 689.558C957.08 689.558 962.337 719.26 962.337 719.267C970.427 764.989 1012.1 799.899 1058.5 799.899H1123.65C1130.01 799.899 1136.47 799.564 1142.66 798.002C1144.23 797.605 1157.43 793.137 1157.54 793.866L1161.59 817.577C1155.09 857.519 1138.86 895.005 1113.66 927.625C1107.38 935.749 1108.88 947.416 1117 953.689ZM1070.08 1154.78C1070.29 1153.89 1070.52 1153.02 1070.71 1152.14C1150.26 1188.86 1204.16 1266.22 1210.89 1353.84H627.066C633.856 1265.37 688.731 1187.36 769.508 1151.09C780.26 1203.31 819.239 1247.97 869.819 1265.1C886.044 1270.6 903.084 1273.5 920.22 1273.5C965.345 1273.5 1008.28 1252.15 1037.22 1218.66C1052.94 1200.46 1064.52 1178.67 1070.08 1154.78ZM862.852 1112.47V1054.9C899.757 1062.35 938.189 1062.34 975.106 1054.94V1112.47C975.106 1122.05 982.401 1130.07 991.944 1130.96C1006.7 1132.35 1021.24 1135.06 1035.34 1139.05C1035.25 1139.65 1035.15 1140.24 1035.04 1140.83C1030.28 1166.93 1016.25 1191.29 996.038 1208.47C975.04 1226.32 947.777 1236.35 920.215 1236.35C898.632 1236.35 876.63 1230.15 858.324 1218.72C841.072 1207.95 826.867 1192.71 817.236 1174.81C811.429 1164.02 807.397 1152.2 805.276 1140.14C805.172 1139.56 805.083 1138.97 804.988 1138.38C818.328 1134.76 832.069 1132.28 846.008 1130.97C855.552 1130.07 862.852 1122.06 862.852 1112.47ZM1201.6 791.563C1201.83 786.889 1201.98 782.201 1201.98 777.487C1201.98 777.487 1201.98 760.58 1201.98 760.573C1201.99 757.423 1205.45 754.889 1207.16 752.584C1220.55 734.504 1221.69 708.655 1225.49 687.14C1226.96 678.842 1226.8 670.169 1225.01 661.93C1224.95 661.609 1224.89 661.279 1224.81 660.956C1237.87 664.903 1252.48 675.371 1254.82 702.145C1257.33 730.977 1241.86 773.063 1201.6 791.563ZM1188.97 419.864C1194.33 415.367 1199.5 410.643 1204.45 405.705C1204.79 405.361 1205.16 405.042 1205.5 404.698C1230.6 431.538 1245.28 469.668 1249.22 518.332C1252.34 556.981 1248.14 596.127 1242.53 627.641C1229.92 622.618 1216.22 620.971 1202.73 621.745C1202.48 621.759 1202.23 621.752 1201.98 621.769V580.652C1201.98 542.598 1194.29 504.565 1179.31 469.571C1174.75 458.921 1169.53 448.502 1163.7 438.489C1172.49 432.81 1180.95 426.593 1188.97 419.864ZM593.174 486.537C601.774 443.984 620.58 411.556 649.225 389.739C650.497 407.904 655.084 426.055 663.039 443.696C663.292 444.257 663.556 444.819 663.818 445.38C664.63 447.131 665.472 448.875 666.352 450.611C666.557 451.022 666.739 451.439 666.949 451.847C646.661 491.537 635.978 536.077 635.978 580.647C635.978 580.647 635.978 591.812 635.978 591.824C630.839 591.376 625.36 591.692 620.203 591.859C617.313 591.951 590.668 595.214 591.143 599.076C586.983 565.028 585.525 524.395 593.174 486.537ZM592.74 748.849C588.04 739.473 584.999 729.505 583.663 719.753C583.817 720.867 589.63 723.266 590.671 723.783C596.012 726.452 601.691 728.396 607.524 729.611C611.721 730.488 615.998 730.989 620.285 731.111C620.538 731.118 620.786 731.147 621.038 731.149C621.052 731.201 621.073 731.251 621.09 731.302C621.47 732.522 621.873 733.726 622.296 734.919C622.319 734.985 622.34 735.056 622.364 735.122C625.655 744.369 630.275 752.917 635.975 760.573C635.975 768.578 635.817 776.602 636.067 784.605C636.081 785.176 635.93 791.355 636.324 791.539C611.785 780.177 598.834 761.002 592.74 748.849ZM635.841 694.003C629.52 694.003 622.923 694.51 616.666 693.527C605.395 691.752 595.611 683.462 591.607 672.835C590.272 669.289 589.531 665.337 589.531 661.491C589.531 655.531 591.171 649.959 593.983 645.15C593.995 645.129 594.014 645.108 594.028 645.087C598.428 637.574 605.832 632.103 614.245 629.937C616.768 629.288 619.438 628.981 622.043 628.981C622.045 628.984 668.49 628.984 668.556 628.986C673.494 628.996 678.55 630.199 682.964 632.417C693.857 637.89 701.002 649.267 701.002 661.491C701.002 679.418 686.416 694.003 668.49 694.003H635.841V694.003ZM845.348 680.701C844.791 691.502 840.86 702.497 839.039 712.788C833.917 741.736 808.862 762.743 779.469 762.743C742.892 762.743 695.868 773.294 668.596 741.842C665.739 738.548 663.278 734.957 661.209 731.161H668.492C706.905 731.161 738.159 699.909 738.159 661.494C738.159 660.717 738.126 659.948 738.1 659.177C737.968 655.213 737.525 651.329 736.758 647.559C736.758 647.559 816.92 647.559 816.967 647.559C829.545 647.559 840.962 656.334 844.206 668.465C845.282 672.483 845.558 676.577 845.348 680.701ZM970.918 633.762C967.421 637.933 964.514 642.482 962.19 647.269C949.315 640.92 934.489 637.421 919.146 637.421C903.664 637.421 888.751 640.967 875.824 647.401C873.488 642.562 870.562 637.971 867.03 633.759C854.582 618.916 836.333 610.404 816.96 610.404C816.96 610.404 715.873 610.404 715.854 610.404C715.146 610.404 712.86 607.849 712.284 607.381C708.077 603.977 703.293 600.947 698.328 598.581C690.597 594.893 682.245 592.68 673.706 592.043C673.51 592.029 673.319 591.991 673.126 591.982V580.65H673.13C673.13 560.291 675.735 539.635 680.756 519.91C685.621 500.79 692.808 482.236 702.118 464.84C702.564 464.564 703.012 464.276 703.458 464.005C724.786 451.036 748.897 442.313 773.897 440.551C797.417 438.894 820.881 443.115 843.394 449.674C858.428 454.053 873.157 459.355 887.906 464.593C924.226 477.496 961.591 491.187 1000.82 488.304C1000.86 488.302 1000.9 488.297 1000.95 488.292C1024.11 486.589 1047.21 483.203 1069.79 477.723C1074.88 476.489 1131.89 457.769 1131.13 456.465C1131.48 457.059 1131.85 457.644 1132.19 458.239C1132.24 458.326 1132.29 458.411 1132.34 458.498C1148.4 486.455 1158.85 517.662 1162.85 549.655C1163.23 552.691 1166.19 610.505 1164.8 610.505C1163.72 610.446 1162.63 610.418 1161.54 610.411C1161.4 610.411 1161.27 610.401 1161.13 610.401H1020.98C1001.62 610.404 983.366 618.916 970.918 633.762ZM1143.75 759.282C1137.32 761.533 1130.46 762.741 1123.64 762.746H1058.49C1052.97 762.746 1047.62 762.007 1042.51 760.615C1020.4 754.589 1003.08 736.309 998.916 712.791L993.233 680.666C991.777 672.436 994.021 664.042 999.391 657.638C1004.76 651.235 1012.64 647.561 1020.99 647.561C1020.99 647.561 1161.14 647.561 1161.21 647.564C1168.11 647.578 1174.86 650.204 1179.98 654.824C1180.09 654.927 1180.21 655.019 1180.33 655.123C1186.33 660.722 1189.68 669.058 1189.27 677.325C1189.22 678.443 1189.09 679.557 1188.9 680.663L1183.21 712.788C1179.46 734.002 1164.13 752.157 1143.75 759.282Z" fill="#2A97A3"/>
<path d="M1117 953.689C1125.12 959.96 1136.78 958.462 1143.06 950.344C1170.14 915.281 1188.21 875.339 1196.59 832.779C1262.23 814.68 1296.51 752.504 1291.84 698.922C1290.27 680.928 1284.52 665.384 1275.45 653.035C1291.56 576.66 1303.12 450.628 1229.64 376.187C1259.24 334.946 1265.36 297.939 1265.63 296.252C1266.63 289.903 1264.28 283.488 1259.41 279.295C1254.54 275.1 1247.84 273.72 1241.71 275.64C1215.35 283.92 1187.15 287.168 1160.18 285.04C1124.09 282.197 1094.19 261.6 1062.53 239.797C1034.21 220.29 1004.93 200.12 969.205 191.35C903.919 175.32 831.946 182.582 771.747 211.27C762.487 215.684 758.554 226.771 762.968 236.034C767.38 245.294 778.462 249.23 787.732 244.813C840.325 219.749 903.244 213.417 960.345 227.434C989.455 234.58 1014.71 251.976 1041.46 270.396C1075.76 294.02 1111.23 318.446 1157.25 322.08C1177.77 323.698 1198.86 322.672 1219.56 319.117C1218 319.383 1212.28 334.096 1211.18 336.064C1207.22 343.151 1202.82 349.984 1198 356.52C1179.82 381.21 1155.78 401.298 1128.92 415.961C1106.46 428.225 1082.15 436.783 1057.25 442.53C1031.72 448.424 1005.29 453.364 978.982 451.003C954.126 448.771 930.205 440.232 906.854 431.906C877.183 421.327 847.506 410.372 816.238 405.54C800.498 403.108 784.516 402.308 768.633 403.643C753.844 404.884 739.445 408.1 725.367 412.722C722.923 413.524 695.174 424.33 695.719 425.632C675.7 377.648 688.124 324.77 730.187 283.993C737.553 276.851 737.737 265.089 730.595 257.723C723.451 250.355 711.69 250.173 704.326 257.315C677.802 283.028 660.616 312.652 653.14 343.545C566.919 387.814 533.51 489.883 558.635 632.69C554.629 641.474 552.378 651.221 552.378 661.491C552.378 664.469 552.586 667.394 552.951 670.273C541.433 698.264 543.771 734.094 559.52 765.504C576.243 798.861 605.662 822.803 641.406 832.732C661.034 931.525 732.249 1011.95 825.694 1044.67V1096.07C809.757 1098.53 794.119 1102.35 778.972 1107.49C778.95 1107.5 778.924 1107.51 778.901 1107.51L776.365 1108.39C664.415 1147.63 589.201 1253.74 589.201 1372.42C589.201 1382.69 597.518 1391 607.778 1391H1230.18C1240.44 1391 1248.76 1382.68 1248.76 1372.42C1248.76 1253.74 1173.53 1147.63 1061.56 1108.4C1045.62 1102.81 1029.1 1098.68 1012.26 1096.07V1044.73C1038.44 1035.6 1063.28 1022.6 1086.13 1005.85C1094.41 999.786 1096.2 988.159 1090.13 979.885C1084.07 971.611 1072.44 969.82 1064.16 975.886C1041.04 992.84 1015.55 1005.39 988.622 1013.33C988.563 1013.34 988.504 1013.35 988.445 1013.37C907.614 1037.14 818.118 1016.87 755.385 960.833C712.619 922.635 683.981 869.835 675.716 813.057C675.157 809.213 674.688 805.353 674.313 801.486C674.223 800.569 674.147 791.282 673.548 791.006C686.272 796.876 700.308 799.901 714.318 799.901C714.318 799.901 779.465 799.901 779.472 799.901C811.736 799.901 843.248 783.01 861.007 756.057C874.394 735.74 876.947 711.835 881.083 688.468C890.176 679.821 904.299 674.581 919.158 674.581C933.989 674.581 947.683 679.552 956.814 688.053L957.08 689.558C957.08 689.558 962.337 719.26 962.337 719.267C970.427 764.989 1012.1 799.899 1058.5 799.899H1123.65C1130.01 799.899 1136.47 799.564 1142.66 798.002C1144.23 797.605 1157.43 793.137 1157.54 793.866L1161.59 817.577C1155.09 857.519 1138.86 895.005 1113.66 927.625C1107.38 935.749 1108.88 947.416 1117 953.689ZM1070.08 1154.78C1070.29 1153.89 1070.52 1153.02 1070.71 1152.14C1150.26 1188.86 1204.16 1266.22 1210.89 1353.84H627.066C633.856 1265.37 688.731 1187.36 769.508 1151.09C780.26 1203.31 819.239 1247.97 869.819 1265.1C886.044 1270.6 903.084 1273.5 920.22 1273.5C965.345 1273.5 1008.28 1252.15 1037.22 1218.66C1052.94 1200.46 1064.52 1178.67 1070.08 1154.78ZM862.852 1112.47V1054.9C899.757 1062.35 938.189 1062.34 975.106 1054.94V1112.47C975.106 1122.05 982.401 1130.07 991.944 1130.96C1006.7 1132.35 1021.24 1135.06 1035.34 1139.05C1035.25 1139.65 1035.15 1140.24 1035.04 1140.83C1030.28 1166.93 1016.25 1191.29 996.038 1208.47C975.04 1226.32 947.777 1236.35 920.215 1236.35C898.632 1236.35 876.63 1230.15 858.324 1218.72C841.072 1207.95 826.867 1192.71 817.236 1174.81C811.429 1164.02 807.397 1152.2 805.276 1140.14C805.172 1139.56 805.083 1138.97 804.988 1138.38C818.328 1134.76 832.069 1132.28 846.008 1130.97C855.552 1130.07 862.852 1122.06 862.852 1112.47ZM1201.6 791.563C1201.83 786.889 1201.98 782.201 1201.98 777.487C1201.98 777.487 1201.98 760.58 1201.98 760.573C1201.99 757.423 1205.45 754.889 1207.16 752.584C1220.55 734.504 1221.69 708.655 1225.49 687.14C1226.96 678.842 1226.8 670.169 1225.01 661.93C1224.95 661.609 1224.89 661.279 1224.81 660.956C1237.87 664.903 1252.48 675.371 1254.82 702.145C1257.33 730.977 1241.86 773.063 1201.6 791.563ZM1188.97 419.864C1194.33 415.367 1199.5 410.643 1204.45 405.705C1204.79 405.361 1205.16 405.042 1205.5 404.698C1230.6 431.538 1245.28 469.668 1249.22 518.332C1252.34 556.981 1248.14 596.127 1242.53 627.641C1229.92 622.618 1216.22 620.971 1202.73 621.745C1202.48 621.759 1202.23 621.752 1201.98 621.769V580.652C1201.98 542.598 1194.29 504.565 1179.31 469.571C1174.75 458.921 1169.53 448.502 1163.7 438.489C1172.49 432.81 1180.95 426.593 1188.97 419.864ZM593.174 486.537C601.774 443.984 620.58 411.556 649.225 389.739C650.497 407.904 655.084 426.055 663.039 443.696C663.292 444.257 663.556 444.819 663.818 445.38C664.63 447.131 665.472 448.875 666.352 450.611C666.557 451.022 666.739 451.439 666.949 451.847C646.661 491.537 635.978 536.077 635.978 580.647C635.978 580.647 635.978 591.812 635.978 591.824C630.839 591.376 625.36 591.692 620.203 591.859C617.313 591.951 590.668 595.214 591.143 599.076C586.983 565.028 585.525 524.395 593.174 486.537ZM592.74 748.849C588.04 739.473 584.999 729.505 583.663 719.753C583.817 720.867 589.63 723.266 590.671 723.783C596.012 726.452 601.691 728.396 607.524 729.611C611.721 730.488 615.998 730.989 620.285 731.111C620.538 731.118 620.786 731.147 621.038 731.149C621.052 731.201 621.073 731.251 621.09 731.302C621.47 732.522 621.873 733.726 622.296 734.919C622.319 734.985 622.34 735.056 622.364 735.122C625.655 744.369 630.275 752.917 635.975 760.573C635.975 768.578 635.817 776.602 636.067 784.605C636.081 785.176 635.93 791.355 636.324 791.539C611.785 780.177 598.834 761.002 592.74 748.849ZM635.841 694.003C629.52 694.003 622.923 694.51 616.666 693.527C605.395 691.752 595.611 683.462 591.607 672.835C590.272 669.289 589.531 665.337 589.531 661.491C589.531 655.531 591.171 649.959 593.983 645.15C593.995 645.129 594.014 645.108 594.028 645.087C598.428 637.574 605.832 632.103 614.245 629.937C616.768 629.288 619.438 628.981 622.043 628.981C622.045 628.984 668.49 628.984 668.556 628.986C673.494 628.996 678.55 630.199 682.964 632.417C693.857 637.89 701.002 649.267 701.002 661.491C701.002 679.418 686.416 694.003 668.49 694.003H635.841V694.003ZM845.348 680.701C844.791 691.502 840.86 702.497 839.039 712.788C833.917 741.736 808.862 762.743 779.469 762.743C742.892 762.743 695.868 773.294 668.596 741.842C665.739 738.548 663.278 734.957 661.209 731.161H668.492C706.905 731.161 738.159 699.909 738.159 661.494C738.159 660.717 738.126 659.948 738.1 659.177C737.968 655.213 737.525 651.329 736.758 647.559C736.758 647.559 816.92 647.559 816.967 647.559C829.545 647.559 840.962 656.334 844.206 668.465C845.282 672.483 845.558 676.577 845.348 680.701ZM970.918 633.762C967.421 637.933 964.514 642.482 962.19 647.269C949.315 640.92 934.489 637.421 919.146 637.421C903.664 637.421 888.751 640.967 875.824 647.401C873.488 642.562 870.562 637.971 867.03 633.759C854.582 618.916 836.333 610.404 816.96 610.404C816.96 610.404 715.873 610.404 715.854 610.404C715.146 610.404 712.86 607.849 712.284 607.381C708.077 603.977 703.293 600.947 698.328 598.581C690.597 594.893 682.245 592.68 673.706 592.043C673.51 592.029 673.319 591.991 673.126 591.982V580.65H673.13C673.13 560.291 675.735 539.635 680.756 519.91C685.621 500.79 692.808 482.236 702.118 464.84C702.564 464.564 703.012 464.276 703.458 464.005C724.786 451.036 748.897 442.313 773.897 440.551C797.417 438.894 820.881 443.115 843.394 449.674C858.428 454.053 873.157 459.355 887.906 464.593C924.226 477.496 961.591 491.187 1000.82 488.304C1000.86 488.302 1000.9 488.297 1000.95 488.292C1024.11 486.589 1047.21 483.203 1069.79 477.723C1074.88 476.489 1131.89 457.769 1131.13 456.465C1131.48 457.059 1131.85 457.644 1132.19 458.239C1132.24 458.326 1132.29 458.411 1132.34 458.498C1148.4 486.455 1158.85 517.662 1162.85 549.655C1163.23 552.691 1166.19 610.505 1164.8 610.505C1163.72 610.446 1162.63 610.418 1161.54 610.411C1161.4 610.411 1161.27 610.401 1161.13 610.401H1020.98C1001.62 610.404 983.366 618.916 970.918 633.762ZM1143.75 759.282C1137.32 761.533 1130.46 762.741 1123.64 762.746H1058.49C1052.97 762.746 1047.62 762.007 1042.51 760.615C1020.4 754.589 1003.08 736.309 998.916 712.791L993.233 680.666C991.777 672.436 994.021 664.042 999.391 657.638C1004.76 651.235 1012.64 647.561 1020.99 647.561C1020.99 647.561 1161.14 647.561 1161.21 647.564C1168.11 647.578 1174.86 650.204 1179.98 654.824C1180.09 654.927 1180.21 655.019 1180.33 655.123C1186.33 660.722 1189.68 669.058 1189.27 677.325C1189.22 678.443 1189.09 679.557 1188.9 680.663L1183.21 712.788C1179.46 734.002 1164.13 752.157 1143.75 759.282Z" fill="#2A97A3"/>
</g>
<defs>
<clipPath id="clip0_2:2">
<rect width="1208" height="1208" fill="white" transform="translate(315 183)"/>
</clipPath>
</defs>
</svg>
